<svg width="36" height="65" viewBox="0 0 36 65" fill="none" xmlns="http://www.w3.org/2000/svg">
<g clip-path="url(#clip0_4_279)">
<path d="M35.9301 7.62821V57.3718C35.9301 57.5721 35.849 57.7638 35.7036 57.8983C35.466 58.1243 35.2424 58.4047 35.0411 58.7338C34.4288 59.7553 34.2471 60.9026 34.2191 61.1029C34.0738 64.1216 23.9786 64.9285 17.9986 64.9285C12.013 64.9285 1.89826 64.1187 1.77805 61.0972C1.75568 60.9169 1.57955 59.7638 0.956116 58.7309C0.760419 58.4047 0.53956 58.1243 0.299131 57.9011C0.153756 57.7638 0.0698853 57.5721 0.0698853 57.3718V7.63107C0.0698853 7.52806 0.0922507 7.43364 0.128595 7.34494C0.13139 7.33636 0.136982 7.33063 0.139777 7.32491C0.156551 7.28771 0.176121 7.25338 0.198487 7.2219C0.206874 7.2076 0.215261 7.19901 0.223648 7.18757C0.243218 7.16182 0.265583 7.13607 0.290744 7.11318C0.29354 7.11031 0.296336 7.10459 0.299131 7.10173C0.542356 6.87569 0.763214 6.59814 0.956116 6.27482C1.63267 5.15319 1.78084 3.8885 1.78084 3.87419C1.78364 3.86275 1.78923 3.84844 1.78923 3.837C2.05482 0.869834 12.055 0.0715332 17.9986 0.0715332C23.945 0.0715332 33.9424 0.869834 34.208 3.837C34.2108 3.84844 34.2163 3.85989 34.2163 3.87419C34.2191 3.88564 34.3757 5.16177 35.0439 6.27196C35.234 6.5867 35.4492 6.86138 35.6841 7.08456L35.6953 7.09601C35.6981 7.09887 35.7009 7.10173 35.7036 7.10459L35.7064 7.10745C35.7372 7.13893 35.7652 7.1704 35.7931 7.2076C35.7987 7.21332 35.8015 7.22191 35.8071 7.23049C35.8267 7.26196 35.8462 7.29344 35.863 7.32777C35.8658 7.33636 35.8714 7.34494 35.8742 7.35639C35.8882 7.39072 35.8993 7.42792 35.9077 7.46512C35.9105 7.4737 35.9133 7.48228 35.9161 7.49087C35.9161 7.49659 35.9189 7.50517 35.9217 7.5109C35.9273 7.55095 35.9301 7.58815 35.9301 7.62821ZM34.5351 56.9741L34.5323 9.38218C34.5239 9.3879 34.5155 9.39077 34.5071 9.39649C34.3897 9.45658 34.2583 9.51952 34.1213 9.58247C34.0458 9.61681 33.9508 9.65687 33.8473 9.69692C33.7047 9.75701 33.5454 9.81424 33.3748 9.87432C33.3665 9.87718 33.3581 9.88005 33.3497 9.88291C32.4579 10.2005 31.3955 10.4609 30.2493 10.6726C29.897 10.7384 29.5364 10.7985 29.1673 10.8557C28.6418 10.9416 28.0882 11.0217 27.4983 11.0932L27.1293 11.1362C26.8889 11.1676 26.6373 11.1962 26.38 11.222C26.2906 11.2306 26.2011 11.242 26.1089 11.2477C26.0054 11.2592 25.9048 11.2706 25.8013 11.2792C25.5106 11.3078 25.2087 11.3364 24.9067 11.3593L24.6467 11.3794C24.4287 11.3965 24.2078 11.4137 23.9869 11.4309C23.8416 11.4423 23.6766 11.4509 23.5117 11.4623C23.3635 11.4709 23.2042 11.4824 23.0392 11.491C22.7261 11.511 22.399 11.5282 22.0719 11.5425C21.7588 11.5568 21.4457 11.5682 21.1242 11.5797C20.6797 11.5968 20.2295 11.6083 19.7739 11.6169C19.5418 11.6226 19.307 11.6254 19.0693 11.6283H19.0022C18.6696 11.6312 18.3341 11.634 17.9986 11.634C17.4255 11.634 6.80748 11.6054 2.18901 9.70551C2.18622 9.70551 2.18622 9.70551 2.18622 9.70551C1.92622 9.59964 1.68579 9.48805 1.46773 9.36788V57.017C1.47332 57.017 1.89826 57.9097 6.29028 58.7023C9.46338 59.2746 13.6206 59.5893 17.9986 59.5893C20.7244 59.5893 23.4334 59.4634 25.8461 59.223C25.9048 59.2173 25.9607 59.2116 26.0166 59.2059C26.162 59.1916 26.3046 59.1801 26.4443 59.1601C26.4723 59.1601 26.5003 59.1544 26.5282 59.1515C30.5931 58.7052 32.7235 58.0642 33.7383 57.5807C33.7411 57.5778 33.7411 57.5778 33.7439 57.5778C33.7886 57.5549 33.8333 57.5349 33.8753 57.512C33.8809 57.5091 33.8865 57.5063 33.892 57.5034C33.9284 57.4834 33.9647 57.4662 33.9955 57.449C34.0067 57.4433 34.0151 57.4376 34.0234 57.4319C34.0514 57.4176 34.0794 57.4004 34.1045 57.3861C34.1157 57.3775 34.1269 57.3718 34.1353 57.3661C34.1576 57.3518 34.18 57.3375 34.1996 57.326C34.2108 57.3174 34.2219 57.3088 34.2331 57.3003C34.2499 57.2917 34.2667 57.2802 34.2806 57.2688C34.2918 57.2602 34.303 57.2516 34.3142 57.243C34.3254 57.2344 34.3394 57.223 34.3505 57.2144C34.3617 57.2058 34.3701 57.1973 34.3813 57.1887C34.3897 57.1801 34.4009 57.1715 34.4092 57.1658L34.4344 57.14C34.4428 57.1314 34.4484 57.1257 34.454 57.1171C34.4624 57.1086 34.4708 57.1 34.4763 57.0914C34.4819 57.0857 34.4875 57.0799 34.4903 57.0742C34.4959 57.0685 34.5015 57.0599 34.5071 57.0513C34.5099 57.0456 34.5155 57.0399 34.5183 57.037C34.5211 57.0284 34.5239 57.0227 34.5267 57.017C34.5295 57.0113 34.5323 57.0055 34.5323 57.0027C34.5323 56.9941 34.5351 56.9827 34.5351 56.9741ZM34.3925 7.77413C34.1996 7.54809 34.0206 7.2963 33.8529 7.02448C33.5482 6.51517 33.3301 5.98583 33.1736 5.51657C33.1624 5.5223 33.1484 5.53088 33.1344 5.53946C33.0589 5.58811 32.9779 5.63389 32.894 5.68253C32.8688 5.69684 32.8437 5.70828 32.8185 5.72259C32.7151 5.77981 32.6088 5.83418 32.4942 5.88568C32.4802 5.8914 32.4635 5.89999 32.4495 5.90571C32.346 5.95149 32.237 6.00013 32.1252 6.04591C32.0916 6.05736 32.0581 6.07167 32.0245 6.08597C31.8931 6.13748 31.7617 6.18612 31.6192 6.23476C30.8531 6.50372 29.9334 6.73835 28.8906 6.94436C28.2504 7.07312 27.5654 7.18757 26.8385 7.28771C26.7938 7.2963 26.7463 7.30202 26.6988 7.30774C25.9188 7.41647 25.0912 7.50517 24.2274 7.58243C23.2293 7.67113 22.1837 7.7398 21.1018 7.78272C20.0954 7.82278 19.0582 7.84567 17.9986 7.84567C12.3625 7.84567 7.27156 7.2448 4.38083 6.23476C4.23825 6.18612 4.10405 6.13748 3.97545 6.08597C3.9419 6.07167 3.90836 6.05736 3.87481 6.04591C3.76298 6.00013 3.65395 5.95149 3.55051 5.90571C3.53653 5.89999 3.51976 5.8914 3.50578 5.88568C3.39116 5.83418 3.28492 5.77981 3.18148 5.72259C3.15632 5.71114 3.13116 5.69684 3.106 5.68253C3.02213 5.63675 2.94385 5.58811 2.86836 5.54233C2.85438 5.53374 2.83761 5.52516 2.82643 5.51657C2.67267 5.98583 2.4546 6.5123 2.14708 7.02161C1.98213 7.2963 1.80041 7.55095 1.60471 7.77986C1.92901 8.06599 2.98578 8.72122 6.29307 9.31637C9.46338 9.88863 13.6234 10.2034 17.9986 10.2034C19.0554 10.2034 20.0954 10.1833 21.113 10.149C21.3422 10.1404 21.5631 10.1318 21.7839 10.1204C21.8958 10.1175 22.0076 10.1118 22.1166 10.1061C22.4018 10.0946 22.6842 10.0803 22.9609 10.0603C23.1203 10.0517 23.274 10.046 23.425 10.0346C23.4837 10.0317 23.5368 10.026 23.5928 10.0231C23.6626 10.0202 23.7325 10.0145 23.8052 10.0088C23.8304 10.0059 23.8555 10.0059 23.8807 10.0031C24.1127 9.98878 24.328 9.97161 24.5405 9.95444L24.7781 9.93441C24.7865 9.93441 24.7977 9.93441 24.8089 9.93155C25.0996 9.91152 25.3904 9.88291 25.6727 9.85429C25.8684 9.83713 26.053 9.8171 26.2375 9.79707C26.4863 9.77132 26.7267 9.74843 26.9643 9.71695L27.2998 9.67689C27.3474 9.67117 27.3949 9.66545 27.4424 9.65973C27.6074 9.63684 27.7695 9.61681 27.9289 9.59678C28.0351 9.57961 28.1385 9.5653 28.242 9.551C28.3398 9.53669 28.4377 9.52238 28.5327 9.50808C28.6725 9.48805 28.8095 9.46516 28.9465 9.44513C29.0136 9.43368 29.0807 9.42224 29.145 9.41366C29.2456 9.39649 29.3435 9.37932 29.4413 9.36215C29.5587 9.34212 29.679 9.31923 29.7936 9.2992L29.8495 9.29062C29.9781 9.26487 30.1095 9.24198 30.2325 9.21623C30.2633 9.2105 30.2968 9.20478 30.3276 9.1962C30.3779 9.18761 30.4226 9.17903 30.4701 9.16758C30.5428 9.15328 30.6155 9.13897 30.6882 9.1218C30.7497 9.11036 30.8084 9.09605 30.8671 9.08461C30.9286 9.0703 30.9817 9.05886 31.0377 9.04741C31.0684 9.03883 31.102 9.0331 31.1327 9.02452C31.1858 9.01307 31.2361 8.99877 31.2865 8.98732C31.5241 8.93296 31.7394 8.87859 31.9435 8.82137C32.0413 8.79562 32.128 8.76986 32.2118 8.74411C32.3237 8.7155 32.4271 8.68403 32.525 8.65255C32.5865 8.63252 32.6452 8.61536 32.7011 8.59533C32.7235 8.5896 32.7458 8.58102 32.7654 8.5753C32.8185 8.55813 32.8688 8.54096 32.9191 8.52093C32.9862 8.49804 33.0478 8.47515 33.1121 8.45226C33.1204 8.4494 33.1316 8.44654 33.14 8.44082C33.1652 8.43223 33.1875 8.42365 33.2099 8.41506C33.2742 8.38931 33.3357 8.36642 33.3944 8.34067C33.4112 8.33495 33.428 8.32636 33.4419 8.32064C33.509 8.29203 33.5733 8.26628 33.632 8.23766C33.6348 8.23766 33.6348 8.2348 33.6376 8.2348C34.0458 8.04596 34.2695 7.88573 34.3925 7.77413ZM33.2351 59.3089C33.2211 59.3146 33.2043 59.3203 33.1903 59.3232C33.0142 59.3833 32.8325 59.4434 32.6396 59.5006C32.6284 59.5035 32.6144 59.5063 32.6032 59.5092C32.4047 59.5693 32.1979 59.6265 31.9826 59.6809C31.9742 59.6837 31.9658 59.6866 31.9574 59.6894C31.7422 59.7438 31.5185 59.7953 31.2865 59.8468C31.2613 59.8525 31.2361 59.8611 31.2082 59.8668C30.9845 59.9155 30.7525 59.9641 30.5121 60.0099C30.4757 60.0185 30.4366 60.0242 30.4002 60.0328C30.1626 60.0786 29.9166 60.1215 29.665 60.1644C29.6202 60.173 29.5755 60.1787 29.5308 60.1873C29.2764 60.2302 29.0164 60.2703 28.748 60.3103C28.7005 60.3161 28.6557 60.3218 28.6082 60.3304C28.3342 60.3704 28.0519 60.4076 27.7611 60.4448C27.722 60.4505 27.6828 60.4563 27.6437 60.4591C27.3529 60.4963 27.0566 60.5307 26.7491 60.565C26.7323 60.5679 26.7155 60.5707 26.6988 60.5707C26.6904 60.5736 26.682 60.5736 26.6764 60.5736C26.5086 60.5965 26.3325 60.6136 26.1508 60.6308C23.6543 60.8855 20.8334 61.0199 17.9986 61.0199H17.7889C17.747 61.0199 17.6967 61.0199 17.6435 61.0171H17.5848C17.5233 61.0171 17.4618 61.0171 17.3891 61.0142C17.3863 61.0142 17.3835 61.0142 17.3835 61.0142C17.3137 61.0142 17.2382 61.0142 17.1571 61.0114H17.076C16.9921 61.0085 16.9083 61.0085 16.816 61.0056H16.7965C16.707 61.0056 16.6119 61.0028 16.5169 60.9999C16.4777 60.9999 16.4414 60.9999 16.4023 60.997C16.3016 60.9942 16.201 60.9942 16.0919 60.9913C16.078 60.9885 16.064 60.9885 16.05 60.9885C15.9438 60.9856 15.8319 60.9827 15.7173 60.9799C15.6754 60.977 15.6334 60.977 15.5887 60.9742C15.4825 60.9713 15.3734 60.9684 15.2588 60.9656C15.2225 60.9627 15.1861 60.9627 15.1498 60.9599C15.0352 60.957 14.9178 60.9513 14.8003 60.9484C14.75 60.9455 14.7025 60.9427 14.655 60.9427C14.5347 60.937 14.4117 60.9312 14.2887 60.9255C14.244 60.9255 14.2021 60.9227 14.1573 60.9198C14.0315 60.9141 13.9057 60.9084 13.7771 60.9026L13.6178 60.894C13.4892 60.8883 13.3606 60.8797 13.2292 60.874C13.176 60.8712 13.1229 60.8683 13.0698 60.8654C12.9384 60.8568 12.807 60.8483 12.6728 60.8397C12.6141 60.8368 12.5554 60.834 12.4967 60.8282C12.3569 60.8196 12.2143 60.8111 12.0717 60.8025C12.027 60.7996 11.9795 60.7939 11.9348 60.791C11.7922 60.7825 11.6496 60.771 11.5042 60.7596C11.4427 60.7567 11.3812 60.751 11.3197 60.7453C11.1743 60.7367 11.029 60.7224 10.8836 60.7109C10.8333 60.7081 10.7829 60.7023 10.7326 60.6995C10.5872 60.6852 10.4391 60.6737 10.2909 60.6594C10.2294 60.6537 10.1679 60.648 10.1064 60.6423C9.95262 60.6279 9.79886 60.6136 9.6451 60.5965C9.60316 60.5936 9.56123 60.5907 9.52209 60.585C9.36553 60.5679 9.20897 60.5536 9.05241 60.5364C8.9937 60.5278 8.93779 60.5221 8.87908 60.5164C8.72252 60.4992 8.56596 60.4792 8.4094 60.462C8.36747 60.4563 8.32553 60.4505 8.2836 60.4448C8.12984 60.4277 7.97607 60.4076 7.82231 60.3847C7.7636 60.379 7.70769 60.3704 7.64898 60.3618C7.48963 60.3418 7.32748 60.3189 7.16812 60.296C7.13737 60.2903 7.10662 60.2846 7.07866 60.2817C6.91931 60.2588 6.76275 60.2331 6.60619 60.2073C6.55307 60.1987 6.49995 60.1902 6.44684 60.1816C6.28469 60.1558 6.12533 60.1272 5.96598 60.0986C5.94361 60.0957 5.92125 60.0929 5.89888 60.0872C5.74232 60.0585 5.58577 60.0299 5.432 59.9985C5.38448 59.9899 5.33415 59.9813 5.28663 59.9698C5.12727 59.9384 4.97072 59.9069 4.81695 59.8726C4.80297 59.8697 4.7862 59.8668 4.76943 59.8611C4.61846 59.8296 4.47029 59.7924 4.32212 59.7581C4.28018 59.7467 4.23545 59.7381 4.19352 59.7266C4.03975 59.6894 3.88879 59.6494 3.74062 59.6093C3.73502 59.6093 3.72664 59.6065 3.71825 59.6036C3.57567 59.5635 3.43589 59.5235 3.2961 59.4806C3.25976 59.4691 3.22062 59.4577 3.18148 59.4462C3.0417 59.4033 2.90191 59.3575 2.76772 59.3117C2.76772 59.3117 2.76772 59.3117 2.76492 59.3117C3.08922 60.2216 3.1703 60.9541 3.1703 60.9656C3.17309 60.9913 3.17589 61.0171 3.17589 61.0428C3.41352 61.8898 8.71413 63.4978 17.9986 63.4978C27.2858 63.4978 32.5865 61.8898 32.8269 61.0285C32.8269 60.9999 32.8269 60.9827 32.8297 60.9541C32.8437 60.8454 32.9359 60.1558 33.2351 59.3089ZM32.8185 3.95717C32.8185 3.95717 32.8185 3.95431 32.8185 3.95717C32.5194 3.08734 27.2243 1.50218 17.9986 1.50218C8.75048 1.50218 3.45266 3.09592 3.17868 3.96003C3.19546 3.99151 3.32406 4.21182 3.9419 4.51798C3.9447 4.51798 3.9447 4.51798 3.9475 4.52084C3.99502 4.54373 4.04534 4.56663 4.09846 4.58952C4.10965 4.59524 4.11803 4.60096 4.12922 4.60668C4.17674 4.62671 4.22706 4.6496 4.27739 4.66963C4.29696 4.67822 4.31653 4.6868 4.3361 4.69538C4.38921 4.71541 4.44513 4.7383 4.50104 4.76119C4.5262 4.76978 4.54577 4.77836 4.57093 4.78694C4.59609 4.79553 4.62405 4.80697 4.65201 4.81556C7.99285 4.06018 12.8378 3.62526 17.9986 3.62526C23.1622 3.62526 28.0043 4.06018 31.348 4.81556C31.3731 4.80697 31.3983 4.79839 31.4235 4.78981C31.4514 4.77836 31.4766 4.76978 31.5017 4.75833C31.5521 4.7383 31.6024 4.71827 31.6499 4.70111C31.6807 4.6868 31.7058 4.67535 31.7338 4.66391C31.7757 4.64674 31.8149 4.62957 31.8512 4.61241C31.8792 4.60096 31.9043 4.58952 31.9295 4.57807C31.9658 4.5609 31.9994 4.5466 32.0301 4.52943C32.0553 4.51798 32.0776 4.50654 32.1 4.49509C32.1308 4.48079 32.1587 4.46362 32.1867 4.44931C32.2062 4.43787 32.2258 4.42642 32.2454 4.41784C32.2733 4.40353 32.2957 4.38922 32.3209 4.37492C32.3376 4.36347 32.3544 4.35489 32.3712 4.34344C32.3936 4.32914 32.4159 4.31769 32.4355 4.30339C32.4495 4.2948 32.4635 4.28336 32.4774 4.27477C32.497 4.26333 32.5138 4.24902 32.5305 4.23758C32.5445 4.22899 32.5557 4.22041 32.5669 4.21182C32.5837 4.20038 32.5976 4.18607 32.6144 4.17463C32.6228 4.16891 32.6312 4.16032 32.6396 4.1546C32.6591 4.13743 32.6787 4.12026 32.6955 4.1031C32.7011 4.10023 32.7039 4.09737 32.7067 4.09451L32.757 4.04301C32.7626 4.03442 32.7682 4.0287 32.7738 4.02012C32.7794 4.0144 32.7822 4.01153 32.785 4.00581C32.7905 4.00009 32.7933 3.99437 32.7989 3.98864C32.8017 3.98578 32.8045 3.98006 32.8073 3.9772C32.8101 3.97434 32.8101 3.96861 32.8129 3.96575C32.8157 3.96289 32.8157 3.96003 32.8185 3.95717ZM27.3054 5.77123C27.5263 5.73689 27.7387 5.70256 27.9484 5.66536C25.0856 5.27336 21.6274 5.05591 17.9986 5.05591C14.3726 5.05591 10.9143 5.27336 8.04876 5.66536C8.25844 5.70256 8.47371 5.73689 8.69456 5.77123C8.75048 5.77981 8.80919 5.7884 8.8679 5.79698C9.06639 5.82846 9.26488 5.85707 9.46897 5.88282C9.5137 5.88854 9.55843 5.89713 9.60596 5.90285C9.84639 5.93432 10.0924 5.9658 10.3412 5.99441C10.3999 6.00299 10.4586 6.00872 10.5173 6.01444C10.7298 6.04019 10.9423 6.06308 11.1604 6.08311C11.2163 6.08883 11.2722 6.09456 11.3281 6.10028C11.5881 6.12603 11.8537 6.15178 12.1193 6.17467C12.1752 6.17753 12.2311 6.18326 12.287 6.18898C12.5135 6.20615 12.7427 6.22331 12.972 6.24048C13.0391 6.24334 13.1034 6.24907 13.1677 6.25479C13.4444 6.27196 13.724 6.28912 14.0036 6.30629C14.0511 6.30915 14.0986 6.30915 14.1461 6.31201C14.3894 6.32632 14.6354 6.33777 14.8814 6.34921C14.9541 6.35207 15.0296 6.35493 15.1023 6.35779C15.3902 6.36924 15.681 6.37782 15.9717 6.38641C16.0025 6.38641 16.0332 6.38927 16.064 6.38927C16.3296 6.39499 16.598 6.40071 16.8663 6.40357C16.9446 6.40644 17.0229 6.40644 17.1012 6.4093C17.4003 6.41216 17.6995 6.41502 17.9986 6.41502C18.3005 6.41502 18.5997 6.41216 18.8988 6.4093C18.9771 6.40644 19.0554 6.40644 19.1336 6.40357C19.402 6.40071 19.6704 6.39499 19.936 6.38927C19.9668 6.38927 19.9975 6.38641 20.0255 6.38641C20.319 6.37782 20.6098 6.36924 20.8977 6.35779C20.9704 6.35493 21.0431 6.35207 21.1186 6.34921C21.3646 6.33777 21.6078 6.32632 21.851 6.31201C21.8986 6.30915 21.9489 6.30915 21.9964 6.30629C22.276 6.28912 22.5556 6.27196 22.8295 6.25479C22.8966 6.24907 22.9609 6.24334 23.028 6.24048C23.2573 6.22331 23.4865 6.20615 23.7102 6.18898C23.7661 6.18326 23.8248 6.17753 23.8807 6.17467C24.1463 6.15178 24.4119 6.12603 24.6719 6.10028C24.7278 6.09456 24.7837 6.08883 24.8396 6.08311C25.0549 6.06308 25.2702 6.04019 25.4798 6.01444C25.5385 6.00872 25.6001 6.00299 25.6588 5.99441C25.9076 5.9658 26.1536 5.93432 26.394 5.90285C26.4416 5.89713 26.4863 5.88854 26.531 5.88282C26.7351 5.85707 26.9336 5.82846 27.1293 5.79698C27.188 5.7884 27.2467 5.77981 27.3054 5.77123Z" fill="#111111"/>
<path d="M33.8527 7.0245C34.0205 7.29633 34.1994 7.54812 34.3923 7.77416C34.2693 7.88575 34.0456 8.04599 33.6375 8.23483C33.6347 8.23483 33.6347 8.23769 33.6319 8.23769C33.5732 8.26631 33.5089 8.29206 33.4418 8.32067C33.4278 8.32639 33.411 8.33498 33.3943 8.3407C33.3355 8.36645 33.274 8.38934 33.2097 8.41509C33.1874 8.42368 33.165 8.43226 33.1398 8.44084C33.1315 8.44657 33.1203 8.44943 33.1119 8.45229C33.0476 8.47518 32.9861 8.49807 32.919 8.52096C32.8687 8.54099 32.8183 8.55816 32.7652 8.57532C32.7457 8.58105 32.7233 8.58963 32.7009 8.59535C32.645 8.61538 32.5863 8.63255 32.5248 8.65258C32.4269 8.68405 32.3235 8.71553 32.2117 8.74414C32.1278 8.76989 32.0411 8.79564 31.9433 8.8214C31.7392 8.87862 31.5239 8.93299 31.2863 8.98735C31.236 8.9988 31.1857 9.0131 31.1325 9.02455C31.1018 9.03313 31.0682 9.03886 31.0375 9.04744C30.9816 9.05888 30.9285 9.07033 30.867 9.08464C30.8082 9.09608 30.7495 9.11039 30.688 9.12183C30.6153 9.139 30.5427 9.15331 30.47 9.16761C30.4224 9.17906 30.3777 9.18764 30.3274 9.19623C30.2966 9.20481 30.2631 9.21053 30.2323 9.21625C30.1093 9.24201 29.9779 9.2649 29.8493 9.29065L29.7934 9.29923C29.6788 9.31926 29.5586 9.34215 29.4412 9.36218C29.3433 9.37935 29.2455 9.39652 29.1448 9.41368C29.0805 9.42227 29.0134 9.43371 28.9463 9.44516C28.8093 9.46519 28.6723 9.48808 28.5326 9.50811C28.4375 9.52241 28.3397 9.53672 28.2418 9.55103C28.1384 9.56533 28.0349 9.57964 27.9287 9.59681C27.7693 9.61684 27.6072 9.63686 27.4422 9.65976C27.3947 9.66548 27.3472 9.6712 27.2997 9.67692L26.9642 9.71698C26.7266 9.74846 26.4861 9.77135 26.2373 9.7971C26.0528 9.81713 25.8683 9.83716 25.6726 9.85432C25.3902 9.88294 25.0995 9.91155 24.8087 9.93158C24.7975 9.93444 24.7863 9.93444 24.778 9.93444L24.5403 9.95447C24.3279 9.97164 24.1126 9.9888 23.8805 10.0031C23.8554 10.006 23.8302 10.006 23.8051 10.0088C23.7324 10.0146 23.6625 10.0203 23.5926 10.0231C23.5367 10.026 23.4836 10.0317 23.4249 10.0346C23.2739 10.046 23.1201 10.0518 22.9608 10.0603C22.684 10.0804 22.4016 10.0947 22.1165 10.1061C22.0074 10.1118 21.8956 10.1176 21.7838 10.1204C21.5629 10.1319 21.3421 10.1405 21.1128 10.149C20.0952 10.1834 19.0552 10.2034 17.9984 10.2034C13.6232 10.2034 9.46322 9.88866 6.29291 9.3164C2.98562 8.72125 1.92885 8.06601 1.60455 7.77989C1.80025 7.55098 1.98197 7.29633 2.14692 7.02164C2.45444 6.51233 2.6725 5.98585 2.82627 5.5166C2.83745 5.52519 2.85422 5.53377 2.8682 5.54235C2.94369 5.58813 3.02196 5.63678 3.10583 5.68256C3.131 5.69686 3.15616 5.71117 3.18132 5.72261C3.28476 5.77984 3.39099 5.8342 3.50562 5.88571C3.5196 5.89143 3.53637 5.90001 3.55035 5.90574C3.65379 5.95152 3.76282 6.00016 3.87465 6.04594C3.9082 6.05739 3.94174 6.07169 3.97529 6.086C4.10389 6.1375 4.23809 6.18614 4.38067 6.23479C7.2714 7.24482 12.3623 7.8457 17.9984 7.8457C19.058 7.8457 20.0952 7.8228 21.1016 7.78275C22.1836 7.73983 23.2292 7.67116 24.2272 7.58246C25.0911 7.5052 25.9186 7.4165 26.6986 7.30777C26.7461 7.30205 26.7936 7.29633 26.8384 7.28774C27.5653 7.1876 28.2502 7.07315 28.8904 6.94439C29.9332 6.73837 30.853 6.50375 31.619 6.23479C31.7616 6.18614 31.893 6.1375 32.0244 6.086C32.0579 6.07169 32.0915 6.05739 32.125 6.04594C32.2368 6.00016 32.3459 5.95152 32.4493 5.90574C32.4633 5.90001 32.4801 5.89143 32.494 5.88571C32.6087 5.8342 32.7149 5.77984 32.8183 5.72261C32.8435 5.70831 32.8687 5.69686 32.8938 5.68256C32.9777 5.63391 33.0588 5.58813 33.1343 5.53949C33.1482 5.53091 33.1622 5.52232 33.1734 5.5166C33.33 5.98585 33.548 6.51519 33.8527 7.0245Z" fill="#B5B5B6"/>
<path d="M33.1906 59.3232C33.2046 59.3203 33.2214 59.3146 33.2353 59.3089C32.9362 60.1558 32.8439 60.8454 32.83 60.9541C32.8272 60.9828 32.8272 60.9999 32.8272 61.0285C32.5867 61.8898 27.2861 63.4978 17.9989 63.4978C8.71441 63.4978 3.4138 61.8898 3.17616 61.0428C3.17616 61.0171 3.17337 60.9913 3.17057 60.9656C3.17057 60.9541 3.0895 60.2217 2.7652 59.3118C2.76799 59.3118 2.76799 59.3118 2.76799 59.3118C2.90219 59.3575 3.04197 59.4033 3.18175 59.4462C3.22089 59.4577 3.26003 59.4691 3.29638 59.4806C3.43616 59.5235 3.57595 59.5636 3.71853 59.6036C3.72691 59.6065 3.7353 59.6093 3.74089 59.6093C3.88906 59.6494 4.04003 59.6895 4.19379 59.7267C4.23573 59.7381 4.28046 59.7467 4.32239 59.7581C4.47056 59.7925 4.61873 59.8297 4.7697 59.8611C4.78648 59.8669 4.80325 59.8697 4.81723 59.8726C4.97099 59.9069 5.12755 59.9384 5.2869 59.9699C5.33443 59.9813 5.38475 59.9899 5.43228 59.9985C5.58604 60.0299 5.7426 60.0586 5.89916 60.0872C5.92152 60.0929 5.94389 60.0958 5.96625 60.0986C6.12561 60.1272 6.28496 60.1558 6.44711 60.1816C6.50023 60.1902 6.55335 60.1988 6.60646 60.2073C6.76302 60.2331 6.91958 60.2588 7.07893 60.2817C7.10689 60.2846 7.13764 60.2903 7.1684 60.296C7.32775 60.3189 7.4899 60.3418 7.64925 60.3619C7.70796 60.3704 7.76388 60.379 7.82259 60.3847C7.97635 60.4076 8.13011 60.4277 8.28387 60.4448C8.32581 60.4506 8.36774 60.4563 8.40968 60.462C8.56624 60.4792 8.7228 60.4992 8.87935 60.5164C8.93806 60.5221 8.99398 60.5278 9.05269 60.5364C9.20924 60.5536 9.3658 60.5679 9.52236 60.585C9.5615 60.5908 9.60344 60.5936 9.64537 60.5965C9.79913 60.6137 9.9529 60.628 10.1067 60.6423C10.1682 60.648 10.2297 60.6537 10.2912 60.6594C10.4393 60.6737 10.5875 60.6852 10.7329 60.6995C10.7832 60.7024 10.8335 60.7081 10.8839 60.7109C11.0292 60.7224 11.1746 60.7367 11.32 60.7453C11.3815 60.751 11.443 60.7567 11.5045 60.7596C11.6499 60.771 11.7925 60.7825 11.935 60.7911C11.9798 60.7939 12.0273 60.7996 12.072 60.8025C12.2146 60.8111 12.3572 60.8197 12.497 60.8282C12.5557 60.834 12.6144 60.8368 12.6731 60.8397C12.8073 60.8483 12.9387 60.8569 13.0701 60.8654C13.1232 60.8683 13.1763 60.8712 13.2294 60.874C13.3608 60.8798 13.4894 60.8883 13.618 60.8941L13.7774 60.9026C13.906 60.9084 14.0318 60.9141 14.1576 60.9198C14.2023 60.9227 14.2443 60.9255 14.289 60.9255C14.412 60.9313 14.535 60.937 14.6552 60.9427C14.7028 60.9427 14.7503 60.9456 14.8006 60.9484C14.918 60.9513 15.0354 60.957 15.1501 60.9599C15.1864 60.9627 15.2228 60.9627 15.2591 60.9656C15.3737 60.9685 15.4828 60.9713 15.589 60.9742C15.6337 60.977 15.6757 60.977 15.7176 60.9799C15.8322 60.9828 15.944 60.9856 16.0503 60.9885C16.0643 60.9885 16.0782 60.9885 16.0922 60.9913C16.2012 60.9942 16.3019 60.9942 16.4025 60.9971C16.4417 60.9999 16.478 60.9999 16.5172 60.9999C16.6122 61.0028 16.7073 61.0057 16.7967 61.0057H16.8163C16.9086 61.0085 16.9924 61.0085 17.0763 61.0114H17.1574C17.2384 61.0142 17.3139 61.0142 17.3838 61.0142C17.3838 61.0142 17.3866 61.0142 17.3894 61.0142C17.4621 61.0171 17.5236 61.0171 17.5851 61.0171H17.6438C17.6969 61.02 17.7473 61.02 17.7892 61.02H17.9989C20.8337 61.02 23.6545 60.8855 26.1511 60.6308C26.3328 60.6136 26.5089 60.5965 26.6767 60.5736C26.6823 60.5736 26.6906 60.5736 26.699 60.5707C26.7158 60.5707 26.7326 60.5679 26.7494 60.565C27.0569 60.5307 27.3532 60.4963 27.644 60.4591C27.6831 60.4563 27.7222 60.4506 27.7614 60.4448C28.0521 60.4076 28.3345 60.3704 28.6085 60.3304C28.656 60.3218 28.7007 60.3161 28.7483 60.3104C29.0166 60.2703 29.2766 60.2302 29.5311 60.1873C29.5758 60.1787 29.6205 60.173 29.6652 60.1644C29.9169 60.1215 30.1629 60.0786 30.4005 60.0328C30.4369 60.0242 30.476 60.0185 30.5123 60.0099C30.7528 59.9641 30.9848 59.9155 31.2085 59.8669C31.2364 59.8611 31.2616 59.8525 31.2867 59.8468C31.5188 59.7953 31.7424 59.7438 31.9577 59.6895C31.9661 59.6866 31.9745 59.6837 31.9829 59.6809C32.1981 59.6265 32.405 59.5693 32.6035 59.5092C32.6147 59.5063 32.6287 59.5035 32.6399 59.5006C32.8328 59.4434 33.0145 59.3833 33.1906 59.3232Z" fill="#B5B5B6"/>
<path d="M32.8213 3.95433C32.8185 3.95433 32.8185 3.95719 32.8213 3.95433C32.8157 3.96005 32.8157 3.96291 32.8129 3.96577C32.8101 3.96863 32.8101 3.97436 32.8073 3.97722C32.8046 3.98008 32.8018 3.9858 32.799 3.98866C32.7934 3.99438 32.7906 4.00011 32.785 4.00583C32.7822 4.01155 32.7794 4.01441 32.7738 4.02014C32.7682 4.02872 32.7626 4.03444 32.757 4.04303L32.7067 4.09453C32.7039 4.09739 32.7011 4.10025 32.6955 4.10311C32.6787 4.12028 32.6592 4.13745 32.6396 4.15462C32.6312 4.16034 32.6228 4.16892 32.6144 4.17465C32.5977 4.18609 32.5837 4.2004 32.5669 4.21184C32.5557 4.22043 32.5446 4.22901 32.5306 4.23759C32.5138 4.24904 32.497 4.26335 32.4775 4.27479C32.4635 4.28337 32.4495 4.29482 32.4355 4.3034C32.416 4.31771 32.3936 4.32916 32.3712 4.34346C32.3544 4.35491 32.3377 4.36349 32.3209 4.37494C32.2957 4.38924 32.2734 4.40355 32.2454 4.41786C32.2258 4.42644 32.2063 4.43788 32.1867 4.44933C32.1587 4.46364 32.1308 4.4808 32.1 4.49511C32.0777 4.50656 32.0553 4.518 32.0301 4.52945C31.9994 4.54661 31.9658 4.56092 31.9295 4.57809C31.9043 4.58953 31.8792 4.60098 31.8512 4.61242C31.8149 4.62959 31.7757 4.64676 31.7338 4.66393C31.7058 4.67537 31.6807 4.68682 31.6499 4.70112C31.6024 4.71829 31.5521 4.73832 31.5018 4.75835C31.4766 4.76979 31.4514 4.77838 31.4235 4.78982C31.3983 4.79841 31.3732 4.80699 31.348 4.81558C28.0044 4.06019 23.1622 3.62528 17.9986 3.62528C12.8378 3.62528 7.99288 4.06019 4.65204 4.81558C4.62408 4.80699 4.59612 4.79555 4.57096 4.78696C4.5458 4.77838 4.52623 4.76979 4.50107 4.76121C4.44516 4.73832 4.38924 4.71543 4.33612 4.6954C4.31655 4.68682 4.29698 4.67823 4.27741 4.66965C4.22709 4.64962 4.17677 4.62673 4.12924 4.6067C4.11806 4.60098 4.10967 4.59526 4.09849 4.58953C4.04537 4.56664 3.99505 4.54375 3.94752 4.52086C3.94473 4.518 3.94473 4.518 3.94193 4.518C3.32409 4.21184 3.19549 3.99152 3.17871 3.96005C3.45269 3.09594 8.7505 1.5022 17.9986 1.5022C27.2244 1.5022 32.5194 3.08735 32.8213 3.95433Z" fill="#595757"/>
<path d="M27.9485 5.66536C27.7388 5.70256 27.5263 5.7369 27.3055 5.77123C27.2468 5.77982 27.1881 5.7884 27.1294 5.79698C26.9337 5.82846 26.7352 5.85707 26.5311 5.88282C26.4864 5.88854 26.4416 5.89713 26.3941 5.90285C26.1537 5.93432 25.9076 5.9658 25.6588 5.99441C25.6001 6.003 25.5386 6.00872 25.4799 6.01444C25.2702 6.04019 25.055 6.06308 24.8397 6.08311C24.7838 6.08883 24.7279 6.09456 24.672 6.10028C24.412 6.12603 24.1464 6.15178 23.8808 6.17467C23.8249 6.17753 23.7662 6.18326 23.7102 6.18898C23.4866 6.20615 23.2573 6.22332 23.0281 6.24048C22.961 6.24334 22.8967 6.24907 22.8296 6.25479C22.5556 6.27196 22.2761 6.28913 21.9965 6.30629C21.949 6.30915 21.8986 6.30915 21.8511 6.31202C21.6079 6.32632 21.3647 6.33777 21.1186 6.34921C21.0432 6.35207 20.9705 6.35493 20.8978 6.3578C20.6098 6.36924 20.3191 6.37783 20.0255 6.38641C19.9976 6.38641 19.9668 6.38927 19.9361 6.38927C19.6705 6.39499 19.4021 6.40072 19.1337 6.40358C19.0554 6.40644 18.9771 6.40644 18.8989 6.4093C18.5997 6.41216 18.3006 6.41502 17.9987 6.41502C17.6995 6.41502 17.4004 6.41216 17.1012 6.4093C17.023 6.40644 16.9447 6.40644 16.8664 6.40358C16.598 6.40072 16.3296 6.39499 16.064 6.38927C16.0333 6.38927 16.0025 6.38641 15.9718 6.38641C15.681 6.37783 15.3903 6.36924 15.1023 6.3578C15.0296 6.35493 14.9542 6.35207 14.8815 6.34921C14.6355 6.33777 14.3894 6.32632 14.1462 6.31202C14.0987 6.30915 14.0512 6.30915 14.0036 6.30629C13.7241 6.28913 13.4445 6.27196 13.1677 6.25479C13.1034 6.24907 13.0391 6.24334 12.972 6.24048C12.7428 6.22332 12.5135 6.20615 12.2871 6.18898C12.2312 6.18326 12.1753 6.17753 12.1193 6.17467C11.8538 6.15178 11.5882 6.12603 11.3282 6.10028C11.2722 6.09456 11.2163 6.08883 11.1604 6.08311C10.9424 6.06308 10.7299 6.04019 10.5174 6.01444C10.4587 6.00872 10.4 6.003 10.3413 5.99441C10.0925 5.9658 9.84645 5.93432 9.60602 5.90285C9.5585 5.89713 9.51376 5.88854 9.46903 5.88282C9.26495 5.85707 9.06646 5.82846 8.86796 5.79698C8.80925 5.7884 8.75054 5.77982 8.69463 5.77123C8.47377 5.7369 8.2585 5.70256 8.04883 5.66536C10.9144 5.27337 14.3727 5.05591 17.9987 5.05591C21.6275 5.05591 25.0857 5.27337 27.9485 5.66536Z" fill="#898989"/>
<path d="M34.535 56.9741C34.535 56.9827 34.5322 56.9941 34.5322 57.0027C34.5322 57.0056 34.5294 57.0113 34.5266 57.017C34.5238 57.0227 34.521 57.0284 34.5182 57.037C34.5154 57.0399 34.5098 57.0456 34.507 57.0513C34.5014 57.0599 34.4958 57.0685 34.4903 57.0742C34.4875 57.08 34.4819 57.0857 34.4763 57.0914C34.4707 57.1 34.4623 57.1086 34.4539 57.1171C34.4483 57.1257 34.4427 57.1315 34.4343 57.14L34.4092 57.1658C34.4008 57.1715 34.3896 57.1801 34.3812 57.1887C34.37 57.1973 34.3617 57.2059 34.3505 57.2144C34.3393 57.223 34.3253 57.2345 34.3141 57.243C34.3029 57.2516 34.2918 57.2602 34.2806 57.2688C34.2666 57.2802 34.2498 57.2917 34.233 57.3003C34.2219 57.3089 34.2107 57.3174 34.1995 57.326C34.1799 57.3375 34.1576 57.3518 34.1352 57.3661C34.1268 57.3718 34.1156 57.3775 34.1044 57.3861C34.0793 57.4004 34.0513 57.4176 34.0234 57.4319C34.015 57.4376 34.0066 57.4433 33.9954 57.4491C33.9647 57.4662 33.9283 57.4834 33.892 57.5034C33.8864 57.5063 33.8808 57.5091 33.8752 57.512C33.8333 57.5349 33.7885 57.5549 33.7438 57.5778C33.741 57.5778 33.741 57.5778 33.7382 57.5807C32.7234 58.0642 30.5931 58.7052 26.5281 59.1515C26.5002 59.1544 26.4722 59.1601 26.4443 59.1601C25.4714 55.017 24.423 47.1713 27.9456 40.0324C33.3272 29.1251 34.4679 19.5942 30.2492 10.6726C31.3954 10.4609 32.4578 10.2005 33.3496 9.88293C33.358 9.88007 33.3664 9.87721 33.3748 9.87434C33.5453 9.81426 33.7047 9.75703 33.8472 9.69694C33.9507 9.65689 34.0457 9.61683 34.1212 9.58249C34.2582 9.51954 34.3896 9.4566 34.507 9.39651C34.5154 9.39079 34.5238 9.38792 34.5322 9.3822L34.535 56.9741Z" fill="#27AE60"/>
<path d="M27.9455 40.0323C24.423 47.1713 25.4713 55.0169 26.4442 59.1601C26.3044 59.1801 26.1619 59.1916 26.0165 59.2059C25.9606 59.2116 25.9047 59.2173 25.846 59.223C24.5264 55.263 22.684 47.3372 25.681 39.7433C29.9892 28.839 30.4812 19.5369 26.1087 11.2477C26.201 11.242 26.2905 11.2306 26.3799 11.222C26.6371 11.1962 26.8887 11.1676 27.1292 11.1361L27.4982 11.0932C28.0881 11.0217 28.6416 10.9416 29.1672 10.8557C29.5363 10.7985 29.8969 10.7384 30.2492 10.6726C34.4678 19.5941 33.3272 29.1251 27.9455 40.0323Z" fill="white"/>
<path d="M25.8462 59.223C23.4335 59.4634 20.7245 59.5893 17.9987 59.5893C13.6207 59.5893 9.46348 59.2745 6.29039 58.7023C1.89837 57.9097 1.47343 57.017 1.46783 57.017V9.36786C1.6859 9.48803 1.92633 9.59962 2.18632 9.70549C2.18632 9.70549 2.18632 9.70549 2.18912 9.70549C6.80759 11.6054 17.4256 11.634 17.9987 11.634C18.3342 11.634 18.6697 11.6311 19.0024 11.6283H19.0694C19.3071 11.6254 19.5419 11.6226 19.774 11.6168C20.2297 11.6083 20.6798 11.5968 21.1243 11.5796C21.4458 11.5682 21.7589 11.5567 22.072 11.5424C22.3991 11.5281 22.7262 11.511 23.0393 11.4909C23.2043 11.4824 23.3636 11.4709 23.5118 11.4623C23.6767 11.4509 23.8417 11.4423 23.9871 11.4309C24.2079 11.4137 24.4288 11.3965 24.6468 11.3793L24.9068 11.3593C25.2088 11.3364 25.5107 11.3078 25.8015 11.2792C25.9049 11.2706 26.0055 11.2592 26.109 11.2477C30.4814 19.5369 29.9894 28.839 25.6812 39.7433C22.6843 47.3372 24.5266 55.263 25.8462 59.223Z" fill="#27AE60"/>
<path d="M9.13361 46.5705C9.13361 46.1813 9.2706 45.8838 9.54178 45.6749C9.75704 45.5061 10.017 45.4231 10.3246 45.4231C10.8753 45.4231 11.5015 45.6119 12.2061 45.9896C12.8127 46.3215 13.3579 46.7336 13.8387 47.2257C14.1519 47.5519 14.3056 47.8066 14.3056 47.9925C14.3056 48.1156 14.2469 48.2272 14.1267 48.333C14.0428 48.4074 13.945 48.4475 13.8387 48.4475C13.6402 48.4475 13.4138 48.2701 13.1594 47.9153C12.7959 47.4146 12.399 47.0197 11.9684 46.7221C11.345 46.2872 10.8166 46.0697 10.3861 46.0697C10.2099 46.0697 10.0785 46.1098 9.99468 46.1871C9.91081 46.2643 9.86608 46.3816 9.86608 46.539C9.86608 46.8595 10.0925 47.3115 10.5454 47.8981C11.057 48.5648 11.7504 49.2715 12.631 50.0126C13.7493 50.9597 14.848 51.6779 15.9327 52.1729C17.0538 52.6793 18.0127 52.934 18.8067 52.934C19.1869 52.934 19.5112 52.8224 19.7768 52.5935C20.0787 52.3446 20.2269 52.0384 20.2269 51.6779C20.2269 51.0513 19.7516 50.2615 18.7983 49.3087C18.5103 49.0255 18.0882 48.6793 17.5402 48.2729C17.188 48.0068 16.9391 47.8352 16.791 47.7579C16.626 47.6721 16.545 47.5691 16.545 47.4518C16.545 47.323 16.6037 47.26 16.7239 47.26C16.9783 47.26 17.5514 47.5862 18.4432 48.2357C19.1869 48.7765 19.7935 49.3717 20.2632 50.0212C20.7916 50.7537 21.0544 51.4433 21.0544 52.0928C21.0544 52.7709 20.758 53.2974 20.1598 53.6694C19.7796 53.9068 19.3462 54.027 18.857 54.027C17.6325 54.027 16.0865 53.4347 14.219 52.2501C12.631 51.2401 11.3506 50.1757 10.3805 49.0541C9.55016 48.0898 9.13361 47.26 9.13361 46.5705Z" fill="white"/>
<path d="M14.5881 43.6005C14.5881 43.1255 14.8704 42.8851 15.438 42.8851C16.1928 42.8851 17.1489 43.2428 18.3063 43.9553C19.5588 44.7335 20.1878 45.486 20.1878 46.21C20.1878 46.5476 20.0341 46.7937 19.7293 46.951C19.5756 47.0311 19.3911 47.0741 19.1758 47.0741C18.4489 47.0741 17.6605 46.8194 16.8106 46.3072C16.0223 45.8323 15.41 45.2714 14.9739 44.6277C14.7139 44.25 14.5881 43.9066 14.5881 43.6005ZM17.8031 44.5046C17.6885 44.6505 17.6018 44.7221 17.5403 44.7221C17.4956 44.7221 17.3698 44.6305 17.1657 44.4445C16.5926 43.9209 16.1313 43.6605 15.779 43.6605C15.7343 43.6605 15.6896 43.6748 15.642 43.7035C15.5582 43.7492 15.5134 43.8236 15.5134 43.9209C15.5134 44.1069 15.6896 44.3787 16.0418 44.7392C16.4947 45.2028 16.9644 45.5576 17.4453 45.8008C17.996 46.0841 18.4517 46.2271 18.8151 46.2271C18.9102 46.2271 18.9969 46.2014 19.0696 46.1499C19.173 46.0755 19.2233 45.9782 19.2233 45.8637C19.2233 45.5862 19.0192 45.2858 18.6111 44.9682C18.4405 44.8279 18.2644 44.7164 18.0827 44.6277C17.9038 44.5418 17.8087 44.4989 17.8031 44.5046Z" fill="white"/>
<path d="M17.2495 41.3972C17.6912 41.5718 18.049 41.7034 18.3202 41.7892C18.5914 41.8751 18.7815 41.9208 18.8905 41.9208C19.0331 41.9208 19.103 41.8522 19.103 41.712C19.103 41.5031 18.9101 41.2341 18.5243 40.9022C18.337 40.7448 17.9987 40.5131 17.5123 40.2069C17.3194 40.0839 17.2243 39.958 17.2243 39.8235C17.2243 39.6719 17.2942 39.5975 17.4368 39.5975C17.68 39.5975 18.1748 39.8836 18.9185 40.4587C19.6957 41.0567 20.0843 41.6118 20.0843 42.1211C20.0843 42.3415 19.9948 42.5217 19.8131 42.6619C19.6817 42.7592 19.5252 42.8107 19.3379 42.8107C19.0191 42.8107 18.5802 42.7106 18.0183 42.516C17.4564 42.3186 16.7742 42.0267 15.9691 41.6376C13.9226 40.639 12.234 39.6204 10.9061 38.5817C9.84092 37.7519 9.30695 37.0624 9.30695 36.5187C9.30695 36.3442 9.37125 36.2011 9.50264 36.0924C9.63404 35.9751 9.78221 35.9178 9.95275 35.9178C10.7467 35.9178 12.0691 36.6446 13.917 38.0953C14.739 38.7448 15.5609 39.5231 16.3856 40.4301C16.5981 40.659 16.886 40.9852 17.2495 41.3972ZM15.8964 40.7792C14.8871 39.5717 13.6095 38.493 12.0691 37.5402C11.2695 37.0481 10.7383 36.7991 10.4783 36.7991C10.3525 36.7991 10.291 36.8535 10.291 36.9651C10.291 37.2855 10.9117 37.8664 12.153 38.7076C13.1734 39.4029 14.423 40.0953 15.8964 40.7792Z" fill="white"/>
<path d="M18.6696 36.4329C18.9994 36.6246 19.2762 36.8134 19.5027 36.9994C19.9444 37.3657 20.1652 37.729 20.1652 38.0867C20.1652 38.4015 20.0199 38.6447 19.7319 38.8192C19.5446 38.9308 19.3237 38.9852 19.0693 38.9852C18.4403 38.9852 17.7442 38.782 16.9838 38.3757C16.1395 37.9236 15.4881 37.3771 15.0352 36.739C14.7416 36.3213 14.5934 35.9179 14.5934 35.5287C14.5934 35.2855 14.6661 35.0824 14.8143 34.9193C14.9457 34.7791 15.0911 34.7104 15.256 34.7104C15.3818 34.7104 15.5552 34.759 15.776 34.8592C15.8962 34.7705 15.9997 34.7276 16.0919 34.7276C16.2121 34.7276 16.4078 34.8077 16.679 34.9708C16.9558 35.1396 17.3248 35.3084 17.7861 35.4772C18.2754 35.6575 18.6668 35.7462 18.9603 35.7462C19.1979 35.7462 19.3936 35.6746 19.5474 35.5287C19.5865 35.4887 19.6536 35.3685 19.7431 35.1711C19.8102 35.0251 19.9304 34.9536 20.1009 34.9536C20.21 34.9536 20.2966 34.9937 20.3637 35.0766C20.4364 35.1625 20.4756 35.2655 20.4756 35.3828C20.4756 35.6975 20.3386 35.9665 20.0674 36.1925C19.8465 36.3785 19.567 36.4701 19.2343 36.4701C19.1197 36.4701 18.9323 36.4586 18.6696 36.4329ZM15.8711 35.3456C15.7453 35.4143 15.653 35.4915 15.5943 35.5716C15.5356 35.6518 15.5048 35.7405 15.5048 35.832C15.5048 36.2727 15.8823 36.7533 16.6371 37.2684C17.4702 37.8378 18.1775 38.121 18.7562 38.121C18.8988 38.121 19.005 38.0924 19.0805 38.0381C19.1532 37.9837 19.1923 37.9007 19.1923 37.7891C19.1923 37.5116 18.9044 37.1854 18.3257 36.8134C18.007 36.6046 17.5401 36.347 16.9222 36.038C16.5197 35.8349 16.2541 35.6861 16.1227 35.5945C16.05 35.5516 15.9689 35.4686 15.8711 35.3456Z" fill="white"/>
<path d="M12.3182 28.9048C12.3182 28.5157 12.4552 28.2181 12.7263 28.0092C12.9416 27.8404 13.2016 27.7574 13.5091 27.7574C14.0599 27.7574 14.6861 27.9463 15.3906 28.324C15.9973 28.6559 16.5425 29.0679 17.0233 29.5601C17.3364 29.8862 17.4902 30.1409 17.4902 30.3269C17.4902 30.4499 17.4315 30.5615 17.3113 30.6674C17.2274 30.7418 17.1295 30.7818 17.0233 30.7818C16.8248 30.7818 16.5984 30.6044 16.344 30.2496C15.9805 29.7489 15.5835 29.354 15.153 29.0565C14.5296 28.6216 14.0012 28.4041 13.5706 28.4041C13.3945 28.4041 13.2631 28.4442 13.1792 28.5214C13.0954 28.5987 13.0506 28.716 13.0506 28.8734C13.0506 29.1938 13.2771 29.6459 13.73 30.2325C14.2416 30.8991 14.9349 31.6059 15.8156 32.347C16.9338 33.294 18.0326 34.0122 19.1173 34.5072C20.2411 35.0194 21.2001 35.2741 21.994 35.2741C22.3742 35.2741 22.6985 35.1596 22.9641 34.9336C23.2661 34.6846 23.4142 34.3785 23.4142 34.018C23.4142 33.3913 22.939 32.6016 21.9856 31.6488C21.6977 31.3655 21.2755 31.0193 20.7276 30.613C20.3753 30.3469 20.1265 30.1752 19.9783 30.098C19.8134 30.0121 19.7323 29.9091 19.7323 29.7918C19.7323 29.6631 19.791 29.6001 19.9113 29.6001C20.1657 29.6001 20.7388 29.9263 21.6306 30.5758C22.3742 31.1166 22.9809 31.7118 23.4506 32.3613C23.979 33.0938 24.2418 33.7833 24.2418 34.4328C24.2418 35.111 23.9454 35.6374 23.3471 36.0094C22.9669 36.2469 22.5336 36.3671 22.0444 36.3671C20.8198 36.3671 19.2738 35.7748 17.4063 34.5902C15.8184 33.5802 14.5379 32.5158 13.5678 31.3941C12.7347 30.427 12.3182 29.5973 12.3182 28.9048Z" fill="white"/>
<path d="M17.7726 25.9377C17.7726 25.4627 18.055 25.2224 18.6225 25.2224C19.3774 25.2224 20.3335 25.58 21.4909 26.2925C22.7434 27.0707 23.3724 27.8233 23.3724 28.5472C23.3724 28.8848 23.2186 29.1309 22.9139 29.2882C22.7601 29.3684 22.5756 29.4113 22.3604 29.4113C21.6335 29.4113 20.8451 29.1566 19.9952 28.6445C19.2068 28.1695 18.5946 27.6087 18.1584 26.9649C17.8984 26.5872 17.7726 26.2438 17.7726 25.9377ZM20.9877 26.8418C20.8731 26.9878 20.7864 27.0593 20.7249 27.0593C20.6802 27.0593 20.5543 26.9677 20.3503 26.7818C19.7771 26.2581 19.3159 25.9978 18.9636 25.9978C18.9189 25.9978 18.8741 26.0121 18.8266 26.0407C18.7427 26.0865 18.698 26.1609 18.698 26.2581C18.698 26.4441 18.8741 26.7159 19.2264 27.0765C19.6793 27.54 20.149 27.8948 20.6298 28.138C21.1806 28.4213 21.6363 28.5643 21.9997 28.5643C22.0948 28.5643 22.1814 28.5386 22.2541 28.4871C22.3576 28.4127 22.4079 28.3154 22.4079 28.201C22.4079 27.9234 22.2038 27.623 21.7956 27.3054C21.6251 27.1652 21.449 27.0536 21.2672 26.9649C21.0883 26.8762 20.9933 26.8361 20.9877 26.8418Z" fill="white"/>
<path d="M20.434 23.7344C20.8758 23.909 21.2336 24.0406 21.5048 24.1264C21.776 24.2123 21.9661 24.2581 22.0751 24.2581C22.2177 24.2581 22.2876 24.1894 22.2876 24.0492C22.2876 23.8403 22.0947 23.5713 21.7089 23.2394C21.5216 23.0821 21.1833 22.8503 20.6968 22.5441C20.5067 22.4182 20.4089 22.2923 20.4089 22.1579C20.4089 22.0062 20.4788 21.9318 20.6214 21.9318C20.8646 21.9318 21.3594 22.218 22.1031 22.7931C22.8803 23.3911 23.2689 23.9462 23.2689 24.4555C23.2689 24.6758 23.1794 24.8561 22.9977 24.9963C22.8663 25.0935 22.7097 25.1451 22.5224 25.1451C22.2037 25.1451 21.7648 25.0449 21.2029 24.8503C20.6409 24.6529 19.9588 24.3611 19.1536 23.9719C17.1072 22.9733 15.4186 21.9547 14.0906 20.9161C13.0255 20.0863 12.4915 19.3967 12.4915 18.8531C12.4915 18.6785 12.5558 18.5355 12.6872 18.4267C12.8186 18.3094 12.9668 18.2522 13.1373 18.2522C13.9313 18.2522 15.2536 18.979 17.1016 20.4296C17.9235 21.0792 18.7455 21.8574 19.5702 22.7645C19.7827 22.9962 20.0734 23.3224 20.434 23.7344ZM19.0809 23.1135C18.0717 21.9061 16.7941 20.8274 15.2537 19.8746C14.4541 19.3824 13.9229 19.1335 13.6629 19.1335C13.5371 19.1335 13.4756 19.1878 13.4756 19.2994C13.4756 19.6199 14.0962 20.2007 15.3375 21.042C16.3607 21.7401 17.6076 22.4297 19.0809 23.1135Z" fill="white"/>
<path d="M21.8569 18.7701C22.1868 18.9618 22.4636 19.1507 22.69 19.3366C23.1318 19.7029 23.3526 20.0663 23.3526 20.4239C23.3526 20.7387 23.2072 20.9819 22.9193 21.1564C22.732 21.268 22.5111 21.3224 22.2567 21.3224C21.6277 21.3224 20.9316 21.1192 20.1711 20.7129C19.3268 20.2608 18.6754 19.7143 18.2225 19.0763C17.929 18.6585 17.7808 18.2551 17.7808 17.8659C17.7808 17.6227 17.8535 17.4196 18.0017 17.2565C18.1331 17.1163 18.2785 17.0476 18.4434 17.0476C18.5692 17.0476 18.7425 17.0962 18.9634 17.1964C19.0836 17.1077 19.1871 17.0648 19.2793 17.0648C19.3995 17.0648 19.5952 17.1449 19.8664 17.308C20.1432 17.4768 20.5122 17.6456 20.9735 17.8144C21.4627 17.9947 21.8541 18.0834 22.1477 18.0834C22.3853 18.0834 22.581 18.0119 22.7348 17.8659C22.7739 17.8259 22.841 17.7057 22.9305 17.5083C22.9976 17.3623 23.1178 17.2908 23.2883 17.2908C23.3973 17.2908 23.484 17.3309 23.5511 17.4139C23.6238 17.4997 23.6629 17.6027 23.6629 17.72C23.6629 18.0348 23.5259 18.3037 23.2548 18.5298C23.0339 18.7157 22.7543 18.8073 22.4217 18.8073C22.3042 18.8044 22.1169 18.793 21.8569 18.7701ZM19.0557 17.6828C18.9298 17.7515 18.8376 17.8287 18.7789 17.9089C18.7202 17.989 18.6894 18.0777 18.6894 18.1692C18.6894 18.6099 19.0668 19.0906 19.8217 19.6056C20.6548 20.175 21.3621 20.4583 21.9408 20.4583C22.0834 20.4583 22.1896 20.4297 22.2651 20.3753C22.3378 20.3209 22.3769 20.238 22.3769 20.1264C22.3769 19.8488 22.089 19.5226 21.5103 19.1507C21.1916 18.9418 20.7247 18.6843 20.1068 18.3752C19.7043 18.1721 19.4387 18.0233 19.3073 17.9317C19.2346 17.8888 19.1535 17.803 19.0557 17.6828Z" fill="white"/>
</g>
<defs>
<clipPath id="clip0_4_279">
<rect width="36" height="65" fill="white"/>
</clipPath>
</defs>
</svg>
