<svg width="436" height="204" viewBox="0 0 436 204" fill="none" xmlns="http://www.w3.org/2000/svg">
<path d="M410.77 0V162.513C377.268 165.849 331.067 164.638 268.49 152.726C144.928 129.21 62.2724 150.034 24.7702 164.046V0H410.77Z" fill="#6327FE"/>
<path d="M410.77 162.513V179.345C377.139 181.522 330.898 178.689 268.567 164.496C146.119 136.615 62.8291 154.374 24.7702 167.046V164.046C62.2724 150.034 144.928 129.21 268.49 152.726C331.067 164.638 377.268 165.849 410.77 162.513Z" fill="white"/>
<path d="M153.11 26.3492C155.311 26.3492 156.994 27.1348 158.172 28.6931C159.117 29.9295 159.596 31.4362 159.596 33.2006C159.596 36.3687 158.534 39.9746 156.398 44.0185C154.534 47.5085 152.204 50.638 149.408 53.4197C147.57 55.2099 146.133 56.1113 145.084 56.1113C144.398 56.1113 143.751 55.7636 143.168 55.0811C142.741 54.5917 142.534 54.0379 142.534 53.4197C142.534 52.2736 143.531 50.9728 145.537 49.5047C148.359 47.4184 150.599 45.1389 152.282 42.6534C154.741 39.0603 155.971 36.0338 155.971 33.5483C155.971 32.5438 155.751 31.7839 155.311 31.2946C154.871 30.8052 154.211 30.5605 153.317 30.5605C151.518 30.5605 148.955 31.8612 145.641 34.4755C141.874 37.4118 137.887 41.4042 133.692 46.4654C128.346 52.8917 124.281 59.215 121.498 65.4482C118.611 71.9132 117.174 77.4252 117.174 81.9842C117.174 84.1735 117.809 86.028 119.09 87.5605C120.501 89.2862 122.223 90.1491 124.255 90.1491C127.802 90.1491 132.255 87.406 137.628 81.9326C139.233 80.2713 141.188 77.8502 143.479 74.695C144.994 72.673 145.952 71.2306 146.379 70.3935C146.871 69.4534 147.44 68.9769 148.1 68.9769C148.825 68.9769 149.175 69.3246 149.175 70.0072C149.175 71.4753 147.337 74.7722 143.673 79.8978C140.618 84.1735 137.265 87.6635 133.589 90.368C129.459 93.4073 125.55 94.9141 121.886 94.9141C118.055 94.9141 115.077 93.2013 112.98 89.7756C111.634 87.5863 110.961 85.1007 110.961 82.2932C110.961 75.2487 114.3 66.3626 120.993 55.622C126.702 46.4911 132.722 39.1375 139.052 33.5483C144.515 28.7446 149.214 26.3492 153.11 26.3492Z" fill="white"/>
<path d="M169.888 57.7083C172.581 57.7083 173.927 59.3438 173.927 62.6021C173.927 66.9421 171.907 72.4412 167.882 79.0865C163.493 86.2984 159.247 89.9044 155.143 89.9044C153.241 89.9044 151.855 89.0287 150.962 87.2643C150.509 86.3886 150.276 85.3197 150.276 84.0833C150.276 79.9107 151.713 75.3775 154.6 70.4837C157.292 65.9505 160.451 62.4218 164.089 59.9105C166.212 58.4423 168.14 57.7083 169.888 57.7083ZM164.775 76.2017C163.959 75.5449 163.545 75.0427 163.545 74.6821C163.545 74.4245 164.063 73.7033 165.124 72.5314C168.076 69.2345 169.551 66.5815 169.551 64.5596C169.551 64.302 169.474 64.0445 169.306 63.774C169.047 63.2846 168.632 63.0399 168.076 63.0399C167.027 63.0399 165.487 64.0573 163.454 66.0792C160.826 68.6936 158.833 71.3852 157.448 74.154C155.842 77.3221 155.04 79.9493 155.04 82.0357C155.04 82.5894 155.182 83.0788 155.48 83.5038C155.907 84.0962 156.451 84.3795 157.098 84.3795C158.678 84.3795 160.36 83.2076 162.16 80.8508C162.949 79.8721 163.584 78.8675 164.076 77.8115C164.568 76.7812 164.801 76.2403 164.775 76.2017Z" fill="white"/>
<path d="M182.328 73.0336C181.344 75.5835 180.606 77.6312 180.114 79.2023C179.622 80.7735 179.376 81.8553 179.376 82.4864C179.376 83.2977 179.765 83.7098 180.554 83.7098C181.732 83.7098 183.26 82.6023 185.124 80.3872C186.004 79.3054 187.325 77.3736 189.059 74.5661C189.745 73.4586 190.47 72.9048 191.221 72.9048C192.075 72.9048 192.503 73.3169 192.503 74.1282C192.503 75.532 190.884 78.3652 187.635 82.6409C184.257 87.1097 181.124 89.3506 178.237 89.3506C176.994 89.3506 175.972 88.8354 175.182 87.7794C174.625 87.0324 174.341 86.1181 174.341 85.0363C174.341 83.2075 174.897 80.6834 176.01 77.4509C177.124 74.2184 178.781 70.2905 180.981 65.6542C186.626 53.8833 192.373 44.173 198.25 36.536C202.936 30.4059 206.82 27.3408 209.901 27.3408C210.885 27.3408 211.687 27.7143 212.309 28.4612C212.969 29.2082 213.293 30.0711 213.293 31.0498C213.293 35.6217 209.189 43.22 200.995 53.8576C197.318 58.5839 192.93 63.3232 187.816 68.0496C186.496 69.2731 184.658 70.9344 182.328 73.0336ZM185.823 65.2421C192.645 59.4339 198.742 52.0932 204.114 43.22C206.898 38.6223 208.296 35.5702 208.296 34.0762C208.296 33.3551 207.985 32.9945 207.364 32.9945C205.564 32.9945 202.276 36.5618 197.525 43.7093C193.59 49.5948 189.694 56.7681 185.823 65.2421Z" fill="white"/>
<path d="M210.367 81.1986C209.279 83.0917 208.218 84.6887 207.169 85.9894C205.098 88.5393 203.053 89.8014 201.02 89.8014C199.247 89.8014 197.875 88.9643 196.891 87.303C196.269 86.2212 195.959 84.9591 195.959 83.491C195.959 79.8721 197.111 75.8798 199.402 71.5011C201.965 66.646 205.046 62.9112 208.645 60.2969C211.001 58.5969 213.279 57.7469 215.48 57.7469C216.852 57.7469 218.004 58.1719 218.923 59.0219C219.713 59.7689 220.101 60.6188 220.101 61.5718C220.101 62.293 219.817 63.2847 219.26 64.5596C219.752 65.2422 219.998 65.8475 219.998 66.3755C219.998 67.0581 219.545 68.1914 218.626 69.7497C217.668 71.3466 216.723 73.4715 215.778 76.1116C214.755 78.9191 214.25 81.1728 214.25 82.8599C214.25 84.225 214.664 85.3583 215.48 86.2341C215.713 86.4659 216.386 86.8394 217.499 87.3545C218.315 87.7409 218.729 88.4363 218.729 89.415C218.729 90.0332 218.496 90.5355 218.043 90.9347C217.551 91.3597 216.982 91.5657 216.321 91.5657C214.548 91.5657 213.02 90.7802 211.752 89.2219C210.703 87.9469 210.173 86.35 210.173 84.4311C210.173 83.7743 210.237 82.7054 210.367 81.1986ZM216.516 65.1005C216.127 64.3793 215.7 63.8513 215.234 63.5165C214.768 63.1688 214.276 63.0014 213.758 63.0014C211.26 63.0014 208.554 65.1649 205.642 69.505C202.431 74.2958 200.826 78.3653 200.826 81.688C200.826 82.4993 200.981 83.1175 201.292 83.5425C201.603 83.9675 202.069 84.1735 202.69 84.1735C204.269 84.1735 206.095 82.5122 208.192 79.1767C209.37 77.3479 210.833 74.6563 212.567 71.1019C213.719 68.7838 214.548 67.2512 215.079 66.5043C215.351 66.1308 215.817 65.6543 216.516 65.1005Z" fill="white"/>
<path d="M252.891 44.6624C255.092 44.6624 256.775 45.4479 257.953 47.0062C258.898 48.2426 259.377 49.7493 259.377 51.5137C259.377 54.6818 258.316 58.2878 256.18 62.3316C254.315 65.8217 251.985 68.9511 249.189 71.7329C247.351 73.523 245.914 74.4245 244.865 74.4245C244.179 74.4245 243.532 74.0767 242.95 73.3942C242.522 72.9048 242.315 72.351 242.315 71.7329C242.315 70.5867 243.312 69.286 245.319 67.8178C248.141 65.7315 250.38 63.452 252.063 60.9665C254.523 57.3734 255.752 54.3469 255.752 51.8614C255.752 50.8569 255.532 50.0971 255.092 49.6077C254.652 49.1183 253.992 48.8736 253.099 48.8736C251.299 48.8736 248.736 50.1743 245.422 52.7887C241.655 55.7249 237.668 59.7173 233.474 64.7785C228.127 71.2048 224.063 77.5282 221.279 83.7613C218.393 90.2263 216.956 95.7383 216.956 100.297C216.956 102.487 217.59 104.341 218.871 105.874C220.283 107.599 222.004 108.462 224.037 108.462C227.584 108.462 232.037 105.719 237.409 100.246C239.014 98.5844 240.969 96.1633 243.26 93.0081C244.775 90.9861 245.733 89.5438 246.16 88.7067C246.652 87.7665 247.222 87.29 247.882 87.29C248.607 87.29 248.956 87.6377 248.956 88.3203C248.956 89.7884 247.118 93.0853 243.454 98.211C240.399 102.487 237.047 105.977 233.37 108.681C229.241 111.72 225.331 113.227 221.668 113.227C217.836 113.227 214.858 111.514 212.761 108.089C211.415 105.899 210.742 103.414 210.742 100.606C210.742 93.5618 214.082 84.6757 220.774 73.9351C226.483 64.8043 232.503 57.4507 238.833 51.8614C244.296 47.0577 248.982 44.6624 252.891 44.6624Z" fill="white"/>
<path d="M269.657 76.0343C272.349 76.0343 273.695 77.6699 273.695 80.9281C273.695 85.2681 271.676 90.7672 267.65 97.4125C263.262 104.624 259.016 108.23 254.912 108.23C253.009 108.23 251.624 107.355 250.731 105.59C250.278 104.715 250.045 103.646 250.045 102.409C250.045 98.2367 251.482 93.7035 254.368 88.8097C257.061 84.2765 260.22 80.7478 263.857 78.2365C265.993 76.7684 267.922 76.0343 269.657 76.0343ZM264.543 94.5278C263.728 93.871 263.313 93.3687 263.313 93.0081C263.313 92.7505 263.831 92.0293 264.893 90.8574C267.844 87.5605 269.32 84.9076 269.32 82.8856C269.32 82.6281 269.242 82.3705 269.074 82.1001C268.815 81.6107 268.401 81.366 267.844 81.366C266.796 81.366 265.255 82.3834 263.223 84.4053C260.595 87.0196 258.601 89.7112 257.216 92.4801C255.611 95.6482 254.808 98.2754 254.808 100.362C254.808 100.915 254.951 101.405 255.249 101.83C255.676 102.422 256.219 102.706 256.867 102.706C258.446 102.706 260.129 101.534 261.928 99.1769C262.718 98.1981 263.352 97.1936 263.844 96.1376C264.349 95.0944 264.582 94.5535 264.543 94.5278Z" fill="white"/>
<path d="M282.111 91.3468C281.127 93.8967 280.389 95.9444 279.897 97.5156C279.405 99.0867 279.159 100.169 279.159 100.8C279.159 101.611 279.548 102.023 280.337 102.023C281.515 102.023 283.043 100.915 284.907 98.7004C285.787 97.6186 287.108 95.6868 288.842 92.8793C289.529 91.7718 290.253 91.218 291.004 91.218C291.859 91.218 292.286 91.6301 292.286 92.4415C292.286 93.8452 290.668 96.6785 287.418 100.954C284.04 105.423 280.907 107.664 278.02 107.664C276.777 107.664 275.755 107.149 274.965 106.093C274.409 105.346 274.124 104.431 274.124 103.35C274.124 101.521 274.68 98.9966 275.794 95.7641C276.907 92.5316 278.564 88.6037 280.765 83.9674C286.409 72.1965 292.156 62.4862 298.034 54.8493C302.72 48.7191 306.603 45.6541 309.684 45.6541C310.668 45.6541 311.471 46.0275 312.092 46.7745C312.752 47.5214 313.076 48.3843 313.076 49.363C313.076 53.9349 308.972 61.5332 300.778 72.1708C297.101 76.8972 292.713 81.6364 287.6 86.3628C286.266 87.5992 284.428 89.2605 282.111 91.3468ZM285.593 83.5682C292.415 77.76 298.512 70.4193 303.885 61.5461C306.668 56.9485 308.066 53.8963 308.066 52.4024C308.066 51.6812 307.755 51.3206 307.134 51.3206C305.335 51.3206 302.047 54.8879 297.296 62.0354C293.373 67.908 289.464 75.0813 285.593 83.5682Z" fill="white"/>
<path d="M310.135 99.5117C309.048 101.405 307.986 103.002 306.938 104.302C304.867 106.852 302.821 108.115 300.789 108.115C299.015 108.115 297.643 107.277 296.659 105.616C296.038 104.534 295.727 103.272 295.727 101.804C295.727 98.1852 296.879 94.1929 299.171 89.8142C301.734 84.9591 304.815 81.2243 308.414 78.61C310.77 76.91 313.048 76.0601 315.249 76.0601C316.621 76.0601 317.773 76.485 318.692 77.335C319.482 78.082 319.87 78.932 319.87 79.885C319.87 80.6061 319.585 81.5978 319.029 82.8728C319.52 83.5553 319.766 84.1606 319.766 84.6886C319.766 85.3712 319.313 86.5045 318.394 88.0628C317.436 89.6597 316.491 91.7846 315.546 94.4247C314.524 97.2322 314.019 99.486 314.019 101.173C314.019 102.538 314.433 103.671 315.249 104.547C315.482 104.779 316.155 105.152 317.268 105.668C318.084 106.054 318.498 106.749 318.498 107.728C318.498 108.346 318.265 108.849 317.812 109.248C317.32 109.673 316.75 109.879 316.09 109.879C314.317 109.879 312.789 109.093 311.52 107.535C310.472 106.26 309.941 104.663 309.941 102.744C309.941 102.087 310.006 101.018 310.135 99.5117ZM316.284 83.4136C315.896 82.6925 315.469 82.1644 315.003 81.8296C314.537 81.4819 314.045 81.3145 313.527 81.3145C311.028 81.3145 308.323 83.478 305.41 87.8181C302.2 92.6089 300.595 96.6785 300.595 100.001C300.595 100.812 300.75 101.431 301.061 101.856C301.371 102.281 301.837 102.487 302.459 102.487C304.038 102.487 305.863 100.825 307.96 97.4898C309.138 95.6611 310.601 92.9695 312.336 89.415C313.488 87.0969 314.317 85.5644 314.847 84.8174C315.119 84.4439 315.598 83.9674 316.284 83.4136Z" fill="white"/>
<path opacity="0.49" d="M55.9678 156.55C63.9966 156.55 70.5053 150.075 70.5053 142.088C70.5053 134.101 63.9966 127.625 55.9678 127.625C47.939 127.625 41.4304 134.101 41.4304 142.088C41.4304 150.075 47.939 156.55 55.9678 156.55Z" fill="white"/>
<path opacity="0.49" d="M285.59 160.762C293.619 160.762 300.127 154.287 300.127 146.299C300.127 138.312 293.619 131.837 285.59 131.837C277.561 131.837 271.052 138.312 271.052 146.299C271.052 154.287 277.561 160.762 285.59 160.762Z" fill="white"/>
<path opacity="0.49" d="M89.2759 121.933C93.2939 121.933 96.5511 118.693 96.5511 114.695C96.5511 110.698 93.2939 107.458 89.2759 107.458C85.2579 107.458 82.0007 110.698 82.0007 114.695C82.0007 118.693 85.2579 121.933 89.2759 121.933Z" fill="white"/>
<path opacity="0.49" d="M166.871 146.312C170.889 146.312 174.146 143.072 174.146 139.074C174.146 135.077 170.889 131.837 166.871 131.837C162.853 131.837 159.595 135.077 159.595 139.074C159.595 143.072 162.853 146.312 166.871 146.312Z" fill="white"/>
<path opacity="0.49" d="M340.451 137.941C344.469 137.941 347.726 134.701 347.726 130.703C347.726 126.706 344.469 123.466 340.451 123.466C336.433 123.466 333.175 126.706 333.175 130.703C333.175 134.701 336.433 137.941 340.451 137.941Z" fill="white"/>
<path opacity="0.49" d="M47.1386 97.2709C49.5193 97.2709 51.4493 95.3508 51.4493 92.9824C51.4493 90.6139 49.5193 88.6938 47.1386 88.6938C44.7578 88.6938 42.8278 90.6139 42.8278 92.9824C42.8278 95.3508 44.7578 97.2709 47.1386 97.2709Z" fill="white"/>
<path opacity="0.49" d="M373.113 154.876C375.494 154.876 377.424 152.956 377.424 150.588C377.424 148.219 375.494 146.299 373.113 146.299C370.732 146.299 368.802 148.219 368.802 150.588C368.802 152.956 370.732 154.876 373.113 154.876Z" fill="white"/>
<path opacity="0.49" d="M245.731 134.992C248.112 134.992 250.042 133.072 250.042 130.703C250.042 128.335 248.112 126.415 245.731 126.415C243.351 126.415 241.421 128.335 241.421 130.703C241.421 133.072 243.351 134.992 245.731 134.992Z" fill="white"/>
<path opacity="0.49" d="M386.316 104.818C388.697 104.818 390.627 102.898 390.627 100.529C390.627 98.1608 388.697 96.2407 386.316 96.2407C383.936 96.2407 382.006 98.1608 382.006 100.529C382.006 102.898 383.936 104.818 386.316 104.818Z" fill="white"/>
<path opacity="0.49" d="M398.706 136.872C400.415 136.872 401.8 135.494 401.8 133.794C401.8 132.094 400.415 130.716 398.706 130.716C396.997 130.716 395.612 132.094 395.612 133.794C395.612 135.494 396.997 136.872 398.706 136.872Z" fill="white"/>
<path opacity="0.49" d="M121.872 131.94C124.253 131.94 126.183 130.02 126.183 127.651C126.183 125.283 124.253 123.363 121.872 123.363C119.491 123.363 117.561 125.283 117.561 127.651C117.561 130.02 119.491 131.94 121.872 131.94Z" fill="white"/>
<path opacity="0.49" d="M148.1 112.03C149.287 112.03 150.249 111.073 150.249 109.892C150.249 108.711 149.287 107.754 148.1 107.754C146.913 107.754 145.951 108.711 145.951 109.892C145.951 111.073 146.913 112.03 148.1 112.03Z" fill="white"/>
<path opacity="0.49" d="M79.8527 78.1721C81.0395 78.1721 82.0016 77.215 82.0016 76.0343C82.0016 74.8536 81.0395 73.8965 79.8527 73.8965C78.6659 73.8965 77.7038 74.8536 77.7038 76.0343C77.7038 77.215 78.6659 78.1721 79.8527 78.1721Z" fill="white"/>
<path opacity="0.49" d="M202.975 127.651C204.162 127.651 205.124 126.694 205.124 125.513C205.124 124.333 204.162 123.376 202.975 123.376C201.788 123.376 200.826 124.333 200.826 125.513C200.826 126.694 201.788 127.651 202.975 127.651Z" fill="white"/>
<path opacity="0.49" d="M352.517 86.5175C353.704 86.5175 354.666 85.5603 354.666 84.3796C354.666 83.199 353.704 82.2418 352.517 82.2418C351.33 82.2418 350.368 83.199 350.368 84.3796C350.368 85.5603 351.33 86.5175 352.517 86.5175Z" fill="white"/>
</svg>
