<svg width="62" height="50" viewBox="0 0 62 50" fill="none" xmlns="http://www.w3.org/2000/svg">
<rect x="3.48936" y="20.5846" width="49" height="25" transform="rotate(-17.9652 3.48936 20.5846)" stroke="#EAE8FE" stroke-width="2"/>
<rect x="7.26896" y="22.513" width="43" height="19" transform="rotate(-17.9652 7.26896 22.513)" stroke="#EAE8FE" stroke-width="2"/>
<path d="M25.2937 23.8861L23.0563 24.6115L22.5684 23.1067L24.8057 22.3812L25.2937 23.8861ZM20.9122 25.3068L19.5938 25.7343L20.1379 27.4122L29.287 24.4457L28.7429 22.7677L27.4378 23.1909L26.9498 21.686L28.3881 21.2196L27.844 19.5416L18.4419 22.5903L18.986 24.2682L20.4243 23.8019L20.9122 25.3068ZM28.7218 30.7367L24.2605 32.1833L23.9971 31.3709L28.4584 29.9243L28.7218 30.7367ZM31.1088 26.3422L30.5647 24.6642L19.2582 28.3303L19.8023 30.0083L24.3835 28.5229L24.6426 29.3219L21.3398 30.3928L22.6828 34.5346L31.3791 31.7148L30.0361 27.5731L26.8 28.6224L26.5409 27.8234L31.1088 26.3422ZM37.2348 18.822L37.7832 20.5134L39.3813 19.9952L40.0895 22.1792L42.2469 21.4797L40.2088 15.1939L38.0513 15.8934L38.8329 18.3039L37.2348 18.822ZM38.701 20.8928C36.7301 20.9873 35.6568 20.1285 35.1696 19.0796L37.4069 18.3542L36.8628 16.6762L30.1242 18.8612L30.6683 20.5391L32.9189 19.8094C33.1485 20.9712 32.7734 22.4469 31.0723 23.646L32.6152 25.0002C33.9282 24.1476 34.5931 22.9754 34.8113 21.7419C35.6506 22.5147 36.798 22.9669 38.2463 22.8946L38.701 20.8928ZM37.4523 27.9353L37.3141 27.5091L43.5467 25.4882L42.3894 21.9192L34.0128 24.6353L34.5396 26.26L40.7855 24.2348L40.9193 24.6476L34.6868 26.6685L35.8527 30.2642L44.5223 27.4531L43.9912 25.8151L37.4523 27.9353Z" fill="#EAE8FE"/>
</svg>
