<svg width="130" height="40" viewBox="0 0 130 40" fill="none" xmlns="http://www.w3.org/2000/svg">
<path d="M99.1312 28.4267C99.0175 28.7422 98.8963 29.0521 98.7637 29.3658C98.8944 29.0521 99.0175 28.746 99.1312 28.4267Z" fill="#263140"/>
<path d="M100.175 24.0222C100.137 24.3584 100.088 24.6909 100.029 25.0233C100.086 24.6909 100.135 24.3584 100.175 24.0222Z" fill="#263140"/>
<path d="M100.317 20.8574C100.317 20.5344 100.29 20.2132 100.266 19.8901C100.292 20.2038 100.309 20.525 100.317 20.8574Z" fill="#263140"/>
<path d="M100.321 22.0013C100.321 21.7252 100.321 21.4472 100.321 21.1711C100.33 21.4472 100.328 21.7233 100.321 22.0013Z" fill="#263140"/>
<path d="M130 8.78043V24.5218C130 32.5569 122.629 39.3429 113.902 39.3429C108.084 39.3429 102.87 36.3096 100.052 31.8995C102.01 28.2745 102.881 23.9471 102.514 19.5445C102.144 15.0894 100.531 10.946 97.9398 7.74553C98.1848 6.43202 98.8855 5.24493 99.9205 4.39004C100.956 3.53516 102.259 3.06639 103.606 3.06499C105.134 3.06698 106.599 3.66984 107.679 4.74132C108.759 5.81279 109.366 7.26538 109.368 8.78043V24.5218C109.368 26.092 111.347 27.9158 113.9 27.9158C116.207 27.9158 118.47 26.2348 118.47 24.5218V8.78043C118.471 8.02897 118.621 7.28501 118.911 6.59106C119.202 5.89711 119.628 5.26675 120.164 4.736C120.701 4.20525 121.337 3.7845 122.038 3.49778C122.738 3.21107 123.489 3.064 124.246 3.06499C125.773 3.06897 127.235 3.6727 128.314 4.74397C129.392 5.81523 129.998 7.26668 130 8.78043Z" fill="#263140"/>
<path d="M29.9295 11.7105C28.4196 14.6508 27.6367 17.9052 27.6454 21.2049C27.6402 25.4435 28.9334 29.5837 31.3537 33.0772V33.3965C31.3522 34.9118 30.7445 36.3647 29.6641 37.4362C28.5836 38.5078 27.1186 39.1104 25.5905 39.1119C24.0628 39.1099 22.5983 38.5071 21.5182 37.4356C20.4382 36.3641 19.8308 34.9115 19.8293 33.3965V26.9185H11.5282V33.3965C11.5272 34.9117 10.92 36.3646 9.8398 37.4361C8.75962 38.5077 7.29481 39.1104 5.76695 39.1119C4.23925 39.1099 2.77473 38.5071 1.69466 37.4356C0.614591 36.3641 0.00717958 34.9115 0.00567627 33.3965V9.01146C0.0076807 7.49674 0.615316 6.04463 1.69533 4.97356C2.77535 3.90249 4.23958 3.29989 5.76695 3.2979C7.29448 3.29939 8.75901 3.90183 9.83913 4.97301C10.9193 6.04419 11.5267 7.49658 11.5282 9.01146V15.4895H19.8293V9.01146C19.8313 7.49674 20.4389 6.04463 21.5189 4.97356C22.5989 3.90249 24.0632 3.29989 25.5905 3.2979C27.1182 3.29939 28.583 3.90177 29.6634 4.97289C30.7438 6.04402 31.3517 7.49641 31.3537 9.01146V9.33639C30.8267 10.0958 30.3509 10.8888 29.9295 11.7105Z" fill="#263140"/>
<path d="M81.1731 14.6762C80.9174 14.6762 80.6579 14.6762 80.3965 14.6762C80.7242 14.6762 81.0481 14.6762 81.3662 14.6762H81.1731ZM90.385 37.9249C90.6331 37.8178 90.8775 37.707 91.1161 37.5887C90.8775 37.7051 90.6331 37.8178 90.385 37.9249ZM98.7637 29.3583C98.8963 29.0521 99.0175 28.7422 99.1311 28.4192C99.0175 28.746 98.8944 29.0521 98.7637 29.3583ZM100.029 25.0233C100.088 24.6909 100.137 24.3584 100.175 24.0222C100.135 24.3584 100.086 24.6909 100.029 25.0233ZM100.266 19.8807C100.29 20.2038 100.307 20.525 100.317 20.848C100.309 20.525 100.292 20.2038 100.266 19.8807ZM100.324 21.1711C100.324 21.4472 100.324 21.7252 100.324 22.0013C100.328 21.7233 100.33 21.4472 100.324 21.1711Z" fill="#263140"/>
<path d="M100.324 21.1711C100.292 17.8274 99.4343 14.5425 97.8262 11.6034C97.4132 10.8661 96.948 10.1588 96.4342 9.48664C96.224 9.21618 96.01 8.95134 95.7846 8.69403C94.7761 7.53313 93.5999 6.52675 92.2941 5.70765C91.9092 5.46515 91.5122 5.24199 91.1047 5.03901C90.743 4.85118 90.3699 4.6859 89.993 4.53C88.2285 3.82097 86.3552 3.41511 84.4533 3.32981C82.3586 3.29788 80.0784 3.31666 77.9307 3.2791C75.5652 3.29788 73.1637 3.17768 70.8209 3.48195C68.1221 4.13369 66.2869 6.74631 66.4895 9.49227C71.3058 16.2915 71.2111 26.2573 66.4895 32.9269C66.428 33.9415 66.6234 34.9551 67.0577 35.8757C67.5285 36.8453 68.2655 37.6635 69.1841 38.2363C70.1028 38.8091 71.1657 39.1132 72.2508 39.1138H76.8473C83.067 39.1138 86.1275 39.1795 87.7392 38.8189C90.8544 38.0764 93.6683 36.4119 95.8073 34.0463C95.9967 33.8435 96.1709 33.635 96.3433 33.4209C96.5156 33.2068 96.6539 33.0265 96.8054 32.8255C99.258 29.4766 100.383 25.2844 100.324 21.1711ZM88.9191 21.7965C88.8055 23.0211 88.5404 24.2664 87.8661 25.3107C87.6541 25.6442 87.3995 25.9492 87.1086 26.2179C86.5407 26.7194 85.8671 27.089 85.137 27.2997C82.8113 27.9721 80.4136 27.6754 78.0083 27.6904V14.7306C78.8056 14.7306 79.6087 14.6987 80.4041 14.6874C83.4609 14.6086 87.2127 14.7757 88.3926 18.1377C88.8216 19.3081 89.0008 20.5539 88.9191 21.7965Z" fill="#263140"/>
<path d="M59.4954 0.544403C59.5498 0.612604 59.598 0.685529 59.6393 0.762284C59.5982 0.68539 59.5501 0.612444 59.4954 0.544403ZM37.9767 1.01021C38.0006 0.923997 38.0329 0.840321 38.0733 0.760404C38.0321 0.839966 37.9997 0.923727 37.9767 1.01021Z" fill="#263140"/>
<path d="M66.482 14.2836C65.2029 11.1003 63.0745 8.32209 60.3249 6.2467C60.34 6.14528 59.806 1.38398 59.8041 1.28068C59.7662 0.930834 59.5992 0.607228 59.3352 0.372139C59.0713 0.137049 58.7289 0.00708014 58.3742 0.00723521C57.7132 -0.163683 54.2814 2.74756 53.717 3.03305C50.5364 2.20288 47.1933 2.20288 44.0126 3.03305C43.4217 2.73066 40.0354 -0.148658 39.3555 0.00723521C39.0007 0.00786131 38.6586 0.138055 38.3945 0.372953C38.1304 0.60785 37.9628 0.930998 37.9237 1.28068C37.9237 1.38586 37.3953 6.13965 37.4029 6.24483C23.1341 16.8812 30.7306 39.9965 48.8686 39.9965C62.0578 40.2539 71.5028 26.0996 66.482 14.2836ZM48.8686 28.5581C39.1339 28.3872 39.1036 14.047 48.8307 13.8329C58.6052 13.97 58.6412 28.391 48.8686 28.5675V28.5581Z" fill="#263140"/>
</svg>
