<svg width="313" height="118" viewBox="0 0 313 118" fill="none" xmlns="http://www.w3.org/2000/svg">
<path d="M14 0.5C35.2 8.5 57.1667 6.5 65.5 4.5L43.5 11.5L33 85.5C27.8333 101.667 14.4 126.5 2 96.5C-10.4 66.5 65.8333 87.6667 105.5 102M105.5 102C85 92.3333 52.4 63.5 86 25.5C71.8333 40.1667 55.9 76 105.5 102ZM105.5 102C110.019 104.5 168.5 -3 169.5 32C160.167 57.5 141.3 109.2 140.5 112C139.7 114.8 209.167 41.5 244 4.5C217.5 41.6667 173.8 114.6 211 109C248.2 103.4 287.5 111.667 302.5 116.5C307.5 112.333 316 106.5 310 116.5" stroke="black"/>
</svg>
