<svg width="42" height="42" viewBox="0 0 42 42" fill="none" xmlns="http://www.w3.org/2000/svg">
<circle cx="21" cy="21" r="21" fill="#F29D52"/>
<path d="M31.5401 15.42C31.4213 14.9454 31.1794 14.5106 30.8387 14.1594C30.4981 13.8082 30.0708 13.5532 29.6001 13.42C27.8801 13 21.0001 13 21.0001 13C21.0001 13 14.1201 13 12.4001 13.46C11.9293 13.5932 11.5021 13.8482 11.1614 14.1994C10.8208 14.5506 10.5789 14.9854 10.4601 15.46C10.1453 17.2056 9.99132 18.9763 10.0001 20.75C9.98886 22.537 10.1429 24.3213 10.4601 26.08C10.591 26.5398 10.8384 26.9581 11.1782 27.2945C11.5181 27.6308 11.9389 27.8738 12.4001 28C14.1201 28.46 21.0001 28.46 21.0001 28.46C21.0001 28.46 27.8801 28.46 29.6001 28C30.0708 27.8668 30.4981 27.6118 30.8387 27.2606C31.1794 26.9094 31.4213 26.4746 31.5401 26C31.8524 24.2676 32.0064 22.5103 32.0001 20.75C32.0113 18.963 31.8573 17.1787 31.5401 15.42Z" fill="white"/>
<path d="M18.75 24.02L24.5 20.75L18.75 17.48V24.02Z" fill="#F29D52"/>
</svg>
