<svg width="42" height="42" viewBox="0 0 42 42" fill="none" xmlns="http://www.w3.org/2000/svg">
<circle cx="21" cy="21" r="21" fill="#F29D52"/>
<path d="M21.096 16.1848C19.7929 16.1848 18.5732 16.546 17.534 17.1759V11H13V29.6457H17.534V29.0089C18.5732 29.6364 19.7929 30 21.096 30C24.9079 30 28 26.9063 28 23.0924C28 19.2762 24.9102 16.1848 21.096 16.1848ZM20.4271 25.8781C18.8301 25.8781 17.534 24.5814 17.534 22.9835C17.534 21.3857 18.8301 20.089 20.4271 20.089C22.0241 20.089 23.3202 21.3857 23.3202 22.9835C23.3202 24.5837 22.0241 25.8781 20.4271 25.8781Z" fill="white"/>
</svg>
