<svg width="42" height="42" viewBox="0 0 42 42" fill="none" xmlns="http://www.w3.org/2000/svg">
<circle cx="21" cy="21" r="21" fill="#F29D52"/>
<path d="M26 11H16C13.2386 11 11 13.2386 11 16V26C11 28.7614 13.2386 31 16 31H26C28.7614 31 31 28.7614 31 26V16C31 13.2386 28.7614 11 26 11Z" stroke="white" stroke-width="2" stroke-linecap="round" stroke-linejoin="round"/>
<path d="M25 20.3698C25.1234 21.2021 24.9812 22.052 24.5937 22.7988C24.2062 23.5456 23.5931 24.1512 22.8416 24.5295C22.0901 24.9077 21.2384 25.0394 20.4077 24.9057C19.5771 24.7721 18.8097 24.3799 18.2148 23.785C17.6199 23.1901 17.2277 22.4227 17.094 21.592C16.9604 20.7614 17.092 19.9097 17.4703 19.1582C17.8485 18.4067 18.4541 17.7936 19.2009 17.4061C19.9477 17.0186 20.7977 16.8764 21.63 16.9998C22.4789 17.1257 23.2648 17.5213 23.8716 18.1281C24.4785 18.735 24.8741 19.5209 25 20.3698Z" stroke="white" stroke-width="2" stroke-linecap="round" stroke-linejoin="round"/>
<path d="M26.5 15.5H26.51" stroke="white" stroke-width="2" stroke-linecap="round" stroke-linejoin="round"/>
</svg>
