<svg width="130" height="40" viewBox="0 0 130 40" fill="none" xmlns="http://www.w3.org/2000/svg">
<path d="M99.1311 28.4266C99.0175 28.7422 98.8962 29.0521 98.7637 29.3657C98.8944 29.0521 99.0175 28.7459 99.1311 28.4266Z" fill="#263140"/>
<path d="M100.175 24.0222C100.137 24.3584 100.088 24.6909 100.029 25.0233C100.086 24.6909 100.135 24.3584 100.175 24.0222Z" fill="#263140"/>
<path d="M100.317 20.8574C100.317 20.5344 100.29 20.2132 100.266 19.8901C100.292 20.2038 100.309 20.525 100.317 20.8574Z" fill="#263140"/>
<path d="M100.321 22.0013C100.321 21.7252 100.321 21.4472 100.321 21.1711C100.33 21.4472 100.328 21.7233 100.321 22.0013Z" fill="#263140"/>
<path d="M130 8.78039V24.5218C130 32.5568 122.629 39.3429 113.902 39.3429C108.084 39.3429 102.87 36.3095 100.052 31.8995C102.01 28.2745 102.881 23.9471 102.514 19.5445C102.144 15.0893 100.531 10.946 97.9398 7.74548C98.1848 6.43197 98.8855 5.24488 99.9205 4.39C100.955 3.53512 102.259 3.06635 103.606 3.06495C105.134 3.06694 106.599 3.6698 107.679 4.74127C108.759 5.81275 109.366 7.26534 109.368 8.78039V24.5218C109.368 26.092 111.347 27.9157 113.9 27.9157C116.207 27.9157 118.47 26.2347 118.47 24.5218V8.78039C118.471 8.02892 118.621 7.28497 118.911 6.59102C119.202 5.89706 119.628 5.2667 120.164 4.73595C120.701 4.2052 121.337 3.78445 122.038 3.49774C122.738 3.21102 123.489 3.06396 124.246 3.06495C125.773 3.06892 127.235 3.67266 128.314 4.74392C129.392 5.81518 129.998 7.26664 130 8.78039V8.78039Z" fill="#263140"/>
<path d="M29.9295 11.7104C28.4196 14.6508 27.6367 17.9052 27.6455 21.2049C27.6403 25.4435 28.9334 29.5836 31.3538 33.0771V33.3964C31.3523 34.9118 30.7446 36.3647 29.6641 37.4362C28.5836 38.5077 27.1186 39.1104 25.5906 39.1119C24.0629 39.1099 22.5984 38.507 21.5183 37.4355C20.4382 36.3641 19.8308 34.9115 19.8293 33.3964V26.9184H11.5283V33.3964C11.5273 34.9116 10.92 36.3645 9.83986 37.4361C8.75968 38.5077 7.29487 39.1104 5.76701 39.1119C4.23932 39.1099 2.77479 38.507 1.69472 37.4355C0.614652 36.3641 0.00724062 34.9115 0.0057373 33.3964V9.01141C0.00774173 7.49669 0.615377 6.04458 1.69539 4.97351C2.77541 3.90244 4.23964 3.29984 5.76701 3.29785C7.29454 3.29934 8.75907 3.90178 9.83919 4.97296C10.9193 6.04414 11.5268 7.49654 11.5283 9.01141V15.4894H19.8293V9.01141C19.8313 7.49669 20.439 6.04458 21.519 4.97351C22.599 3.90244 24.0632 3.29984 25.5906 3.29785C27.1183 3.29934 28.583 3.90172 29.6634 4.97285C30.7439 6.04397 31.3518 7.49637 31.3538 9.01141V9.33635C30.8268 10.0957 30.351 10.8888 29.9295 11.7104V11.7104Z" fill="#263140"/>
<path d="M81.173 14.6763C80.9173 14.6763 80.6578 14.6763 80.3965 14.6763C80.7241 14.6763 81.048 14.6763 81.3662 14.6763H81.173ZM90.385 37.9249C90.6331 37.8179 90.8774 37.7071 91.116 37.5887C90.8774 37.7052 90.6331 37.8179 90.385 37.9249ZM98.7636 29.3584C98.8962 29.0522 99.0174 28.7423 99.1311 28.4192C99.0174 28.7461 98.8943 29.0522 98.7636 29.3584V29.3584ZM100.029 25.0234C100.087 24.691 100.137 24.3585 100.175 24.0223C100.135 24.3585 100.086 24.691 100.029 25.0234V25.0234ZM100.266 19.8808C100.29 20.2039 100.307 20.5251 100.317 20.8481C100.309 20.5251 100.292 20.2039 100.266 19.8808V19.8808ZM100.324 21.1712C100.324 21.4473 100.324 21.7253 100.324 22.0013C100.328 21.7234 100.33 21.4473 100.324 21.1712V21.1712Z" fill="#263140"/>
<path d="M100.324 21.1711C100.292 17.8275 99.4343 14.5425 97.8262 11.6035C97.4131 10.8662 96.948 10.1588 96.4342 9.48669C96.2239 9.21623 96.0099 8.9514 95.7845 8.69408C94.7761 7.53318 93.5998 6.52681 92.2941 5.70771C91.9092 5.46521 91.5122 5.24204 91.1047 5.03906C90.743 4.85124 90.3699 4.68595 89.993 4.53006C88.2285 3.82103 86.3551 3.41516 84.4533 3.32987C82.3586 3.29794 80.0783 3.31672 77.9306 3.27915C75.5651 3.29793 73.1637 3.17773 70.8209 3.482C68.1221 4.13375 66.2869 6.74636 66.4895 9.49233C71.3057 16.2915 71.211 26.2574 66.4895 32.927C66.428 33.9415 66.6233 34.9552 67.0577 35.8758C67.5284 36.8454 68.2655 37.6636 69.1841 38.2364C70.1027 38.8091 71.1657 39.1133 72.2508 39.1138H76.8473C83.0669 39.1138 86.1275 39.1796 87.7392 38.819C90.8544 38.0764 93.6682 36.4119 95.8073 34.0464C95.9967 33.8435 96.1709 33.6351 96.3433 33.4209C96.5156 33.2068 96.6539 33.0265 96.8054 32.8255C99.258 29.4767 100.383 25.2845 100.324 21.1711ZM88.9191 21.7966C88.8055 23.0212 88.5403 24.2665 87.8661 25.3107C87.6541 25.6443 87.3995 25.9492 87.1085 26.2179C86.5406 26.7194 85.8671 27.089 85.137 27.2998C82.8112 27.9722 80.4136 27.6754 78.0083 27.6905V14.7307C78.8056 14.7307 79.6086 14.6988 80.4041 14.6875C83.4609 14.6086 87.2127 14.7758 88.3926 18.1378C88.8215 19.3081 89.0008 20.554 88.9191 21.7966Z" fill="#263140"/>
<path d="M59.4953 0.544434C59.5498 0.612635 59.5979 0.685559 59.6392 0.762314C59.5982 0.68542 59.55 0.612475 59.4953 0.544434V0.544434ZM37.9767 1.01024C38.0005 0.924027 38.0329 0.840351 38.0733 0.760434C38.0321 0.839997 37.9997 0.923757 37.9767 1.01024V1.01024Z" fill="#263140"/>
<path d="M66.4819 14.2836C65.2028 11.1003 63.0744 8.32209 60.3248 6.2467C60.34 6.14528 59.8059 1.38398 59.804 1.28068C59.7661 0.930834 59.5992 0.607228 59.3352 0.372139C59.0712 0.137049 58.7289 0.00708014 58.3741 0.00723521C57.7131 -0.163683 54.2813 2.74756 53.717 3.03305C50.5363 2.20288 47.1932 2.20288 44.0126 3.03305C43.4217 2.73066 40.0353 -0.148658 39.3554 0.00723521C39.0007 0.00786131 38.6586 0.138055 38.3945 0.372953C38.1303 0.60785 37.9627 0.930998 37.9236 1.28068C37.9236 1.38586 37.3952 6.13965 37.4028 6.24483C23.1341 16.8812 30.7306 39.9965 48.8685 39.9965C62.0578 40.2539 71.5027 26.0995 66.4819 14.2836ZM48.8685 28.5581C39.1338 28.3872 39.1035 14.047 48.8307 13.8329C58.6051 13.97 58.6411 28.391 48.8685 28.5675V28.5581Z" fill="#263140"/>
</svg>
