<svg width="230" height="32" viewBox="0 0 230 32" fill="none" xmlns="http://www.w3.org/2000/svg">
<path d="M16.3885 4.464C16.5565 4.464 16.6765 4.608 16.7485 4.896C16.8205 5.16 16.9165 5.424 17.0365 5.688C17.1565 6.048 17.2165 6.36 17.2165 6.624C17.2165 6.768 17.2045 6.9 17.1805 7.02C17.1565 7.116 17.1325 7.248 17.1085 7.416C17.0605 7.536 17.0485 7.668 17.0725 7.812C17.0965 7.956 17.0725 8.16 17.0005 8.424L17.1085 8.964L16.9645 10.008C16.9405 10.344 16.9165 10.572 16.8925 10.692C16.8925 10.812 16.8805 10.908 16.8565 10.98C16.8565 11.028 16.8445 11.076 16.8205 11.124C16.7965 11.172 16.7725 11.28 16.7485 11.448V11.628C16.7485 11.676 16.7485 11.736 16.7485 11.808C16.7725 11.88 16.7845 11.952 16.7845 12.024C16.7845 12.144 16.7725 12.252 16.7485 12.348C16.7245 12.444 16.6885 12.504 16.6405 12.528L16.5685 12.924C16.5205 13.404 16.4605 13.92 16.3885 14.472C16.3405 15.024 16.2925 15.54 16.2445 16.02C16.1245 16.38 15.9925 16.692 15.8485 16.956C15.7285 17.22 15.6565 17.388 15.6325 17.46L15.3085 18.396L14.9485 19.08C14.8045 19.344 14.6965 19.596 14.6245 19.836C14.5525 20.052 14.3725 20.22 14.0845 20.34C13.9165 20.46 13.7605 20.532 13.6165 20.556C13.4725 20.58 13.3285 20.592 13.1845 20.592C12.9925 20.592 12.8365 20.532 12.7165 20.412C12.6205 20.268 12.5245 20.124 12.4285 19.98L12.3925 19.548C12.3925 19.428 12.3565 19.344 12.2845 19.296C12.2125 19.224 12.1765 19.068 12.1765 18.828L12.4285 17.496V17.028C12.4285 16.98 12.4165 16.944 12.3925 16.92C12.3925 16.896 12.3805 16.848 12.3565 16.776L12.5725 16.344C12.5965 16.104 12.6205 15.864 12.6445 15.624C12.6685 15.384 12.7405 15.168 12.8605 14.976C12.7885 14.904 12.7525 14.76 12.7525 14.544C12.7525 14.424 12.7765 14.304 12.8245 14.184C12.8725 14.064 12.9205 13.944 12.9685 13.824L13.1845 13.392C13.1845 13.272 13.1485 13.164 13.0765 13.068C13.0045 12.972 12.9685 12.9 12.9685 12.852C12.9685 12.684 13.0645 12.528 13.2565 12.384C13.2805 12.336 13.3045 12.312 13.3285 12.312C13.3525 12.288 13.3645 12.264 13.3645 12.24V12.204C13.3645 12.132 13.4005 12.06 13.4725 11.988C13.5445 11.892 13.5805 11.748 13.5805 11.556L13.5445 11.232V10.404L13.8685 9C13.9165 8.688 13.9645 8.424 14.0125 8.208C14.0845 7.968 14.1205 7.644 14.1205 7.236L14.1925 6.588C14.2165 6.372 14.2765 6.192 14.3725 6.048V5.58C14.3965 5.46 14.4685 5.328 14.5885 5.184C14.7325 5.04 14.8885 4.908 15.0565 4.788C15.2245 4.644 15.3925 4.536 15.5605 4.464C15.7525 4.368 15.9205 4.32 16.0645 4.32C16.1845 4.32 16.2925 4.368 16.3885 4.464ZM5.55248 16.56C5.69648 16.512 5.91248 16.428 6.20048 16.308C6.51248 16.188 6.84848 16.056 7.20848 15.912C7.56848 15.744 7.94048 15.576 8.32448 15.408C8.70848 15.24 9.06848 15.072 9.40449 14.904C9.52449 14.856 9.64449 14.808 9.76449 14.76C9.90848 14.712 10.0405 14.676 10.1605 14.652C10.2325 14.652 10.3645 14.676 10.5565 14.724C10.7485 14.82 10.8805 14.904 10.9525 14.976C11.0245 15.048 11.0725 15.108 11.0965 15.156C11.0485 15.348 11.0005 15.492 10.9525 15.588C10.8565 15.66 10.8085 15.78 10.8085 15.948C10.6885 16.044 10.5685 16.14 10.4485 16.236C10.3285 16.308 10.2325 16.368 10.1605 16.416C9.77649 16.608 9.41649 16.788 9.08049 16.956C8.76848 17.124 8.37248 17.316 7.89248 17.532C7.74848 17.652 7.64048 17.736 7.56848 17.784C7.49648 17.832 7.42448 17.88 7.35248 17.928L7.17248 17.892C7.07648 17.988 7.00448 18.048 6.95648 18.072C6.83648 18.144 6.68048 18.216 6.48848 18.288C6.32048 18.36 6.14048 18.432 5.94848 18.504C5.75648 18.576 5.56448 18.648 5.37248 18.72C5.20448 18.768 5.07248 18.804 4.97648 18.828L4.86848 18.9C4.72448 18.948 4.54448 19.02 4.32848 19.116C4.13648 19.212 3.92048 19.26 3.68048 19.26C3.27248 19.26 2.97248 19.128 2.78048 18.864C2.58848 18.6 2.42048 18.264 2.27648 17.856C2.20448 17.712 2.15648 17.544 2.13248 17.352C2.10848 17.16 2.12048 16.932 2.16848 16.668C2.19248 16.26 2.22848 15.852 2.27648 15.444C2.34848 15.036 2.40848 14.592 2.45648 14.112C2.48048 13.992 2.49248 13.872 2.49248 13.752C2.51648 13.608 2.56448 13.476 2.63648 13.356C2.68448 13.236 2.72048 13.116 2.74448 12.996C2.79248 12.876 2.82848 12.744 2.85248 12.6C2.90048 12.24 3.00848 12.012 3.17648 11.916C3.36848 11.82 3.58448 11.748 3.82448 11.7H4.54448C4.59248 11.748 4.65248 11.796 4.72448 11.844C4.84448 11.94 4.92848 12.024 4.97648 12.096L5.37248 12.168C5.39648 13.104 5.42048 13.932 5.44448 14.652C5.46848 15.372 5.50448 16.008 5.55248 16.56ZM10.7365 26.388C10.7845 25.692 10.9165 25.032 11.1325 24.408C11.3485 23.784 11.5885 23.316 11.8525 23.004C12.1645 22.596 12.6085 22.272 13.1845 22.032C13.7845 21.792 14.2885 21.684 14.6965 21.708C14.8165 21.732 14.9485 21.828 15.0925 21.996C15.2605 22.164 15.4165 22.38 15.5605 22.644C15.7045 22.884 15.8245 23.148 15.9205 23.436C16.0165 23.724 16.0765 24 16.1005 24.264C16.1245 24.744 16.1125 25.212 16.0645 25.668C16.0405 26.1 15.9565 26.508 15.8125 26.892C15.6205 27.348 15.4045 27.684 15.1645 27.9C14.9485 28.116 14.6485 28.356 14.2645 28.62H13.8685C13.7965 28.62 13.7125 28.62 13.6165 28.62C13.5445 28.644 13.4605 28.656 13.3645 28.656C13.2445 28.656 13.0765 28.692 12.8605 28.764C12.7645 28.788 12.6685 28.812 12.5725 28.836C12.4765 28.86 12.4045 28.872 12.3565 28.872C12.2125 28.872 12.0325 28.776 11.8165 28.584C11.6245 28.392 11.4445 28.164 11.2765 27.9C11.1085 27.66 10.9645 27.396 10.8445 27.108C10.7485 26.844 10.7125 26.604 10.7365 26.388ZM9.04448 9.504H8.64848C8.52848 9.552 8.43248 9.552 8.36048 9.504C8.28848 9.432 8.21648 9.396 8.14448 9.396C7.85648 9.444 7.53248 9.516 7.17248 9.612C6.83648 9.708 6.53648 9.804 6.27248 9.9L6.09248 10.08H5.80448C5.73248 10.152 5.64848 10.224 5.55248 10.296C5.45648 10.344 5.34848 10.38 5.22848 10.404C5.08448 10.404 4.94048 10.416 4.79648 10.44C4.67648 10.464 4.49648 10.524 4.25648 10.62C4.01648 10.692 3.70448 10.8 3.32048 10.944C2.93648 11.088 2.43248 11.268 1.80848 11.484C1.68848 11.484 1.61648 11.484 1.59248 11.484C1.56848 11.46 1.53248 11.424 1.48448 11.376C1.41248 11.376 1.30448 11.4 1.16048 11.448C1.04048 11.496 0.932484 11.52 0.836484 11.52C0.740484 11.52 0.632484 11.472 0.512484 11.376C0.440484 11.328 0.344484 11.244 0.224484 11.124C0.104484 11.004 0.0684844 10.848 0.116484 10.656C0.140484 10.512 0.284484 10.332 0.548484 10.116C0.812484 9.876 1.08848 9.696 1.37648 9.576C2.62448 9.12 3.87248 8.712 5.12048 8.352C6.39248 7.992 7.60448 7.704 8.75649 7.488C8.87648 7.464 8.96048 7.452 9.00849 7.452C9.08048 7.428 9.16448 7.44 9.26049 7.488C9.30849 7.488 9.35649 7.5 9.40449 7.524C9.47649 7.524 9.52448 7.524 9.54848 7.524C9.74048 7.812 9.83649 8.016 9.83649 8.136C9.83649 8.232 9.82448 8.352 9.80048 8.496L9.69248 8.928C9.64448 8.976 9.58448 9.036 9.51249 9.108C9.46448 9.156 9.41648 9.228 9.36848 9.324L9.04448 9.504ZM23.0845 11.736C23.1325 11.976 23.1325 12.156 23.0845 12.276C23.0605 12.372 22.9165 12.444 22.6525 12.492C22.6525 12.636 22.6405 12.732 22.6165 12.78C22.5925 12.828 22.5085 12.888 22.3645 12.96C22.1245 13.104 21.8365 13.26 21.5005 13.428C21.1885 13.596 20.8405 13.752 20.4565 13.896C20.0965 14.04 19.7245 14.16 19.3405 14.256C18.9565 14.328 18.5965 14.352 18.2605 14.328C17.7565 14.28 17.4325 14.196 17.2885 14.076C17.1445 13.932 17.0725 13.764 17.0725 13.572C17.0725 13.284 17.1325 13.128 17.2525 13.104C17.3725 13.056 17.5165 13.008 17.6845 12.96C17.9965 12.792 18.2365 12.696 18.4045 12.672C18.8125 12.576 19.2205 12.444 19.6285 12.276C20.0365 12.084 20.5525 11.796 21.1765 11.412C21.4645 11.292 21.7525 11.22 22.0405 11.196C22.3525 11.172 22.6045 11.16 22.7965 11.16L23.0845 11.736ZM14.0845 23.832C13.8445 23.832 13.6405 23.928 13.4725 24.12C13.3045 24.288 13.1725 24.504 13.0765 24.768C13.1725 24.864 13.2445 25.02 13.2925 25.236C13.2925 25.356 13.2685 25.488 13.2205 25.632C13.1725 25.776 13.1725 25.908 13.2205 26.028C13.2205 26.076 13.2565 26.196 13.3285 26.388C13.4005 26.58 13.5205 26.7 13.6885 26.748C13.7605 26.604 13.8325 26.436 13.9045 26.244C14.0005 26.028 14.0845 25.8 14.1565 25.56C14.2285 25.32 14.2885 25.08 14.3365 24.84C14.3845 24.6 14.3965 24.384 14.3725 24.192C14.3725 23.952 14.2765 23.832 14.0845 23.832ZM41.8101 5.904C41.9781 6 42.0981 6.096 42.1701 6.192C42.2661 6.288 42.2901 6.48 42.2421 6.768C42.2421 6.912 42.2781 7.056 42.3501 7.2C42.3981 7.32 42.4341 7.44 42.4581 7.56C42.5061 7.656 42.5181 7.74 42.4941 7.812C42.5181 8.076 42.4581 8.28 42.3141 8.424L42.4221 8.676C42.3981 8.796 42.3861 8.94 42.3861 9.108V9.792L42.5301 10.08L42.3141 12.024C42.2661 12.24 42.2421 12.516 42.2421 12.852C42.2421 13.188 42.1821 13.452 42.0621 13.644L42.0981 13.932C42.0981 14.004 42.0861 14.076 42.0621 14.148L41.9901 14.364C41.9421 14.94 41.9061 15.552 41.8821 16.2C41.8581 16.848 41.8221 17.46 41.7741 18.036C41.7261 18.204 41.6661 18.36 41.5941 18.504C41.5461 18.624 41.4981 18.744 41.4501 18.864C41.3301 19.056 41.2581 19.248 41.2341 19.44L41.0181 20.052C40.9941 20.172 40.9701 20.292 40.9461 20.412C40.9221 20.532 40.8981 20.652 40.8741 20.772L40.4781 21.06C40.4781 21.324 40.3461 21.648 40.0821 22.032C39.8421 22.392 39.4821 22.632 39.0021 22.752C38.6421 22.752 38.4021 22.716 38.2821 22.644C38.1861 22.572 38.0781 22.44 37.9581 22.248L37.8501 22.104L37.7781 21.636L37.7061 21.42L37.6341 20.988C37.4661 20.82 37.4421 20.676 37.5621 20.556C37.6821 20.412 37.7781 20.304 37.8501 20.232L37.8141 19.692V19.152L37.7781 18.972L37.7421 18.72L37.9581 18.324C37.9821 17.988 38.0061 17.676 38.0301 17.388C38.0541 17.1 38.0781 16.788 38.1021 16.452C38.1021 16.332 38.1141 16.248 38.1381 16.2C38.1861 16.152 38.2341 16.104 38.2821 16.056C38.2341 15.96 38.1861 15.84 38.1381 15.696C38.1141 15.528 38.1261 15.336 38.1741 15.12C38.1981 14.976 38.3541 14.748 38.6421 14.436L38.5701 14.364C38.4021 14.244 38.3181 14.088 38.3181 13.896C38.3181 13.776 38.3661 13.68 38.4621 13.608C38.5821 13.536 38.6781 13.428 38.7501 13.284C38.7501 13.14 38.7861 13.02 38.8581 12.924C38.9061 12.756 38.9061 12.564 38.8581 12.348C38.8341 12.18 38.8101 12.024 38.7861 11.88C38.7861 11.712 38.8101 11.568 38.8581 11.448C38.9061 11.088 38.9421 10.788 38.9661 10.548C39.0141 10.284 39.0621 10.056 39.1101 9.864C39.1581 9.624 39.1941 9.396 39.2181 9.18C39.2421 8.964 39.2661 8.724 39.2901 8.46C39.2901 8.412 39.2901 8.316 39.2901 8.172C39.3141 8.004 39.3261 7.896 39.3261 7.848C39.3501 7.752 39.3741 7.668 39.3981 7.596C39.4221 7.5 39.4581 7.392 39.5061 7.272C39.5061 7.2 39.5061 7.104 39.5061 6.984C39.5061 6.84 39.5181 6.744 39.5421 6.696C39.5901 6.504 39.7221 6.336 39.9381 6.192C40.1781 6.024 40.3941 5.928 40.5861 5.904C40.7061 5.808 40.8381 5.7 40.9821 5.58C41.1501 5.436 41.3421 5.472 41.5581 5.688L41.8101 5.904ZM36.8781 25.884L37.8141 25.704L38.1741 25.74L38.5701 25.632C39.0981 25.512 39.4941 25.428 39.7581 25.38C40.0221 25.308 40.2021 25.26 40.2981 25.236C40.4181 25.212 40.5021 25.2 40.5501 25.2C40.6221 25.176 40.7301 25.14 40.8741 25.092C41.2821 25.188 41.4861 25.344 41.4861 25.56C41.5101 25.752 41.4981 25.944 41.4501 26.136L41.4141 26.46L40.9821 26.676C40.6461 26.796 40.1661 26.928 39.5421 27.072C38.9421 27.24 38.3781 27.372 37.8501 27.468L36.9861 27.756C36.7701 27.828 36.5541 27.864 36.3381 27.864C36.1221 27.888 35.9181 27.912 35.7261 27.936C35.5341 27.96 35.3541 27.984 35.1861 28.008C35.0181 28.032 34.8381 28.08 34.6461 28.152C34.1901 27.96 33.9141 27.732 33.8181 27.468C33.7461 27.204 33.7101 26.928 33.7101 26.64C33.7341 26.544 33.7461 26.448 33.7461 26.352C33.7701 26.256 33.7941 26.16 33.8181 26.064C33.8661 25.848 33.9141 25.656 33.9621 25.488C34.0341 25.296 34.0701 25.068 34.0701 24.804L34.1781 24.372L34.3581 24.012L34.5021 23.616C34.5501 23.52 34.6341 23.412 34.7541 23.292C34.8741 23.148 35.0061 23.016 35.1501 22.896C35.3181 22.752 35.4741 22.632 35.6181 22.536C35.7621 22.416 35.8941 22.344 36.0141 22.32C36.2781 22.44 36.4581 22.584 36.5541 22.752C36.6741 22.92 36.7461 23.112 36.7701 23.328C36.7941 23.424 36.8181 23.664 36.8421 24.048C36.8901 24.432 36.8901 24.708 36.8421 24.876L36.8781 25.56V25.884ZM34.6101 19.8C34.5621 19.992 34.5021 20.112 34.4301 20.16C34.3581 20.208 34.2501 20.232 34.1061 20.232C33.9381 20.232 33.7341 20.148 33.4941 19.98C33.3741 19.86 33.2421 19.788 33.0981 19.764C32.9781 19.716 32.8461 19.656 32.7021 19.584C32.6301 19.536 32.4861 19.44 32.2701 19.296C32.0541 19.152 31.7541 18.876 31.3701 18.468L31.0101 18.18L30.8661 18.036C30.7941 17.964 30.6981 17.868 30.5781 17.748C30.4581 17.604 30.3621 17.472 30.2901 17.352L30.1101 17.28L29.8581 16.524C29.8581 16.476 29.8581 16.428 29.8581 16.38C29.8581 16.332 29.8461 16.248 29.8221 16.128C29.7501 15.984 29.7861 15.756 29.9301 15.444C29.9781 15.396 30.0861 15.348 30.2541 15.3C30.4461 15.228 30.6141 15.192 30.7581 15.192C30.7821 15.216 30.8421 15.24 30.9381 15.264C31.0341 15.288 31.1061 15.312 31.1541 15.336C31.2021 15.36 31.2501 15.396 31.2981 15.444C31.3701 15.492 31.4301 15.516 31.4781 15.516C31.5021 15.54 31.5261 15.564 31.5501 15.588C31.5981 15.588 31.6701 15.624 31.7661 15.696C31.9821 15.864 32.1741 16.02 32.3421 16.164C32.5101 16.284 32.6541 16.38 32.7741 16.452L32.9181 16.704C33.1101 16.776 33.2541 16.896 33.3501 17.064C33.3501 17.088 33.3621 17.112 33.3861 17.136C33.4101 17.16 33.4341 17.196 33.4581 17.244C33.4821 17.292 33.5181 17.328 33.5661 17.352L33.6021 17.388C33.6741 17.436 33.7461 17.52 33.8181 17.64C33.9141 17.736 34.0581 17.904 34.2501 18.144C34.3701 18.432 34.4421 18.588 34.4661 18.612C34.4901 18.876 34.5381 19.104 34.6101 19.296C34.6821 19.464 34.6821 19.632 34.6101 19.8ZM24.4941 19.8C24.5421 19.56 24.6261 19.332 24.7461 19.116C24.7221 19.068 24.7101 19.008 24.7101 18.936C24.7101 18.864 24.7341 18.78 24.7821 18.684C24.7821 18.66 24.7821 18.636 24.7821 18.612C24.8061 18.588 24.8181 18.516 24.8181 18.396L24.8541 18.324C24.9981 18.18 25.0701 18.06 25.0701 17.964V17.64C25.0941 17.592 25.1181 17.508 25.1421 17.388C25.1901 17.244 25.2381 17.1 25.2861 16.956C25.4541 16.476 25.6701 15.864 25.9341 15.12C26.2221 14.352 26.5101 13.644 26.7981 12.996C26.7741 12.876 26.7501 12.78 26.7261 12.708C26.7261 12.612 26.7261 12.552 26.7261 12.528L27.0501 12.024C27.0981 11.976 27.1581 11.868 27.2301 11.7C27.3021 11.532 27.3861 11.352 27.4821 11.16C27.5301 11.04 27.5901 10.884 27.6621 10.692C27.7581 10.476 27.8421 10.26 27.9141 10.044L28.2741 9.468L28.3101 9.324C28.3821 9.012 28.4781 8.7 28.5981 8.388C28.7421 8.052 29.0541 7.908 29.5341 7.956C29.6781 7.98 29.8821 8.064 30.1461 8.208C30.4341 8.352 30.5541 8.424 30.5061 8.424C30.6021 8.616 30.6501 8.772 30.6501 8.892C30.6501 8.988 30.6741 9.096 30.7221 9.216V9.72C30.6981 9.96 30.6501 10.2 30.5781 10.44C30.5061 10.68 30.4341 10.932 30.3621 11.196V11.628C30.3141 11.748 30.2301 11.964 30.1101 12.276C29.9901 12.588 29.8581 12.948 29.7141 13.356C29.5701 13.74 29.4141 14.136 29.2461 14.544C29.1021 14.928 28.9821 15.24 28.8861 15.48L28.6701 16.02C28.6221 16.14 28.5741 16.272 28.5261 16.416C28.5021 16.56 28.4661 16.728 28.4181 16.92C28.3221 17.016 28.2261 17.184 28.1301 17.424C28.0821 17.496 28.0221 17.628 27.9501 17.82C27.8781 18.012 27.8181 18.156 27.7701 18.252L27.6261 18.324C27.5541 18.42 27.4221 18.564 27.2301 18.756C27.2061 18.804 27.1821 18.888 27.1581 19.008C27.1581 19.104 27.1341 19.188 27.0861 19.26C27.0621 19.38 27.0381 19.488 27.0141 19.584C26.9901 19.656 26.9421 19.74 26.8701 19.836C26.7981 19.956 26.6901 20.064 26.5461 20.16L26.4381 20.268C26.4141 20.292 26.3901 20.304 26.3661 20.304C26.3181 20.424 26.2701 20.556 26.2221 20.7C26.1741 20.82 26.1261 20.892 26.0781 20.916C26.0061 20.916 25.9221 20.928 25.8261 20.952C25.7541 20.952 25.6701 20.952 25.5741 20.952C25.4781 20.976 25.3821 20.988 25.2861 20.988C25.1661 20.988 25.0821 20.988 25.0341 20.988C25.0101 20.964 24.9861 20.952 24.9621 20.952H24.4581L24.4941 19.8ZM61.524 25.308C61.404 25.716 61.248 26.1 61.056 26.46C60.888 26.796 60.684 27.048 60.444 27.216C60.252 27.624 59.928 27.9 59.472 28.044C59.04 28.212 58.596 28.284 58.14 28.26V27.144C58.092 26.76 58.08 26.328 58.104 25.848C58.152 25.368 58.26 24.84 58.428 24.264C58.38 24.168 58.368 24.06 58.392 23.94C58.416 23.796 58.416 23.616 58.392 23.4C58.392 23.256 58.428 23.148 58.5 23.076C58.524 23.028 58.548 22.944 58.572 22.824C58.596 22.68 58.596 22.488 58.572 22.248C58.524 21.696 58.524 21.192 58.572 20.736C58.62 20.28 58.668 19.824 58.716 19.368C58.764 19.176 58.788 18.984 58.788 18.792C58.812 18.6 58.836 18.42 58.86 18.252V17.964C58.86 17.724 58.848 17.472 58.824 17.208C58.824 16.92 58.848 16.68 58.896 16.488C58.896 16.224 58.968 15.912 59.112 15.552C59.136 15.432 59.148 15.324 59.148 15.228C59.172 15.108 59.208 14.976 59.256 14.832C59.208 14.64 59.196 14.484 59.22 14.364C59.268 14.22 59.304 14.088 59.328 13.968C59.352 13.92 59.352 13.86 59.328 13.788C59.328 13.692 59.328 13.62 59.328 13.572C59.4 12.804 59.472 12.06 59.544 11.34C59.64 10.62 59.76 10.02 59.904 9.54C59.928 9.444 59.94 9.384 59.94 9.36C59.94 9.312 59.94 9.192 59.94 9L60.264 8.748C60.264 8.628 60.276 8.496 60.3 8.352C60.348 8.184 60.492 7.956 60.732 7.668C60.852 7.596 60.96 7.536 61.056 7.488C61.176 7.44 61.344 7.392 61.56 7.344C61.68 7.368 61.776 7.404 61.848 7.452C61.92 7.476 61.98 7.512 62.028 7.56C62.076 7.608 62.148 7.632 62.244 7.632C62.412 7.872 62.544 8.112 62.64 8.352C62.736 8.592 62.832 8.844 62.928 9.108L63.036 9.396C63.036 9.516 63 9.624 62.928 9.72C62.88 9.816 62.856 9.912 62.856 10.008L62.892 10.08C62.916 10.176 62.928 10.308 62.928 10.476C62.952 10.644 62.916 10.824 62.82 11.016C62.94 11.232 62.976 11.472 62.928 11.736C62.904 12 62.856 12.3 62.784 12.636C62.736 12.804 62.7 12.948 62.676 13.068C62.652 13.188 62.628 13.308 62.604 13.428V13.968C62.58 14.136 62.556 14.304 62.532 14.472C62.532 14.616 62.532 14.784 62.532 14.976C62.508 15.312 62.484 15.564 62.46 15.732C62.46 15.876 62.448 16.008 62.424 16.128C62.4 16.224 62.388 16.32 62.388 16.416V16.74C62.412 16.932 62.412 17.148 62.388 17.388C62.388 17.628 62.328 17.88 62.208 18.144C62.16 18.24 62.124 18.348 62.1 18.468C62.1 18.588 62.1 18.744 62.1 18.936C62.076 19.08 62.064 19.26 62.064 19.476C62.064 19.668 62.04 19.884 61.992 20.124C61.992 20.244 61.956 20.352 61.884 20.448C61.836 20.52 61.8 20.604 61.776 20.7C61.8 20.748 61.824 20.808 61.848 20.88C61.872 20.952 61.896 21.012 61.92 21.06C61.968 21.348 61.956 21.684 61.884 22.068C61.836 22.452 61.788 22.86 61.74 23.292C61.716 23.532 61.692 23.748 61.668 23.94C61.644 24.132 61.62 24.348 61.596 24.588L61.452 25.128L61.524 25.308ZM48.312 14.292C48.384 13.572 48.516 12.9 48.708 12.276C48.924 11.628 49.284 11.004 49.788 10.404C50.244 10.068 50.628 9.9 50.94 9.9C51.252 9.876 51.408 10.032 51.408 10.368C51.672 10.368 51.888 10.38 52.056 10.404C52.224 10.428 52.356 10.464 52.452 10.512C52.692 10.632 52.884 10.884 53.028 11.268C53.172 11.652 53.244 12.084 53.244 12.564C53.244 13.02 53.208 13.368 53.136 13.608C53.088 13.848 53.004 14.136 52.884 14.472C52.74 14.88 52.56 15.168 52.344 15.336C52.152 15.48 51.924 15.612 51.66 15.732C51.516 15.828 51.336 15.936 51.12 16.056C50.904 16.152 50.688 16.2 50.472 16.2C50.424 16.2 50.376 16.212 50.328 16.236C50.304 16.26 50.268 16.284 50.22 16.308C50.124 16.356 50.04 16.392 49.968 16.416C49.896 16.44 49.824 16.452 49.752 16.452C49.488 16.452 49.26 16.38 49.068 16.236C48.9 16.092 48.756 15.912 48.636 15.696C48.516 15.48 48.42 15.252 48.348 15.012C48.3 14.748 48.288 14.508 48.312 14.292ZM56.664 19.656H56.16C56.088 19.656 56.004 19.656 55.908 19.656C55.836 19.632 55.764 19.584 55.692 19.512C55.284 19.584 54.948 19.656 54.684 19.728C54.42 19.8 54.06 19.896 53.604 20.016L53.424 20.16H53.1C52.98 20.28 52.848 20.364 52.704 20.412C52.56 20.46 52.404 20.508 52.236 20.556C51.972 20.604 51.672 20.664 51.336 20.736C51.024 20.784 50.736 20.88 50.472 21.024L48.096 21.78L47.628 21.744C47.388 21.744 47.232 21.756 47.16 21.78C47.088 21.804 46.98 21.816 46.836 21.816C46.716 21.816 46.632 21.816 46.584 21.816C46.512 21.768 46.392 21.66 46.224 21.492C46.08 21.324 46.032 21.132 46.08 20.916C46.128 20.7 46.296 20.52 46.584 20.376C46.872 20.208 47.208 20.064 47.592 19.944C49.224 19.416 50.736 18.972 52.128 18.612C53.544 18.228 54.972 17.892 56.412 17.604C56.628 17.58 56.82 17.58 56.988 17.604C57.036 17.604 57.084 17.616 57.132 17.64C57.204 17.64 57.264 17.64 57.312 17.64C57.528 17.928 57.612 18.204 57.564 18.468C57.54 18.54 57.516 18.612 57.492 18.684C57.492 18.732 57.48 18.828 57.456 18.972C57.288 19.14 57.168 19.26 57.096 19.332C57.048 19.38 57 19.44 56.952 19.512L56.664 19.656ZM50.508 13.032C50.508 13.272 50.52 13.476 50.544 13.644C50.568 13.788 50.58 13.896 50.58 13.968V14.148C50.628 14.196 50.688 14.232 50.76 14.256C50.832 14.256 50.904 14.268 50.976 14.292C51.096 14.124 51.252 13.896 51.444 13.608C51.636 13.296 51.756 13.008 51.804 12.744C51.828 12.624 51.84 12.468 51.84 12.276C51.864 12.06 51.816 11.928 51.696 11.88C51.504 11.784 51.288 11.88 51.048 12.168C50.808 12.432 50.628 12.72 50.508 13.032ZM89.1389 28.152C89.4749 28.128 89.7149 28.176 89.8589 28.296C90.0269 28.416 90.1109 28.572 90.1109 28.764C90.1349 29.1 90.0749 29.352 89.9309 29.52C89.8109 29.688 89.6549 29.832 89.4629 29.952C89.3189 30.048 89.1629 30.096 88.9949 30.096C88.8509 30.12 88.7549 30.108 88.7069 30.06C88.6589 30.036 88.6109 30.036 88.5629 30.06C88.5149 30.108 88.4549 30.144 88.3829 30.168C88.2869 30.12 88.1549 30.096 87.9869 30.096C87.8429 30.096 87.7229 30.12 87.6269 30.168C87.5069 30.288 87.4109 30.336 87.3389 30.312C87.2669 30.288 87.1829 30.288 87.0869 30.312C86.6549 30.36 86.2349 30.42 85.8269 30.492C85.4189 30.588 84.9749 30.696 84.4949 30.816L84.4589 30.888C84.3389 30.936 84.2429 30.972 84.1709 30.996C84.0989 31.044 84.0029 31.068 83.8829 31.068C83.5469 31.02 83.3189 30.972 83.1989 30.924C83.0789 30.9 82.9949 30.792 82.9469 30.6C82.8989 30.264 82.9589 30 83.1269 29.808C83.2949 29.64 83.4749 29.52 83.6669 29.448C84.2429 29.232 84.8429 29.052 85.4669 28.908C85.6109 28.284 85.7069 27.816 85.7549 27.504C85.8269 27.216 85.8869 26.988 85.9349 26.82C85.9349 26.796 85.9349 26.772 85.9349 26.748C85.9589 26.7 85.9709 26.664 85.9709 26.64C85.9709 26.616 85.9829 26.592 86.0069 26.568C85.9829 26.448 85.9949 26.28 86.0429 26.064C86.1149 25.848 86.1749 25.632 86.2229 25.416C86.2709 25.368 86.2949 25.284 86.2949 25.164C86.2949 25.044 86.2949 24.924 86.2949 24.804L86.4029 24.3L86.5469 23.508C86.0429 23.652 85.4909 23.808 84.8909 23.976C84.3149 24.144 83.8589 24.3 83.5229 24.444L83.4149 24.516C83.2709 24.708 83.0789 24.816 82.8389 24.84V25.128C82.7909 25.224 82.7669 25.344 82.7669 25.488C82.7909 25.632 82.8269 25.728 82.8749 25.776C82.9469 26.016 82.9469 26.256 82.8749 26.496C82.8029 26.712 82.7429 26.94 82.6949 27.18C82.6949 27.324 82.6829 27.444 82.6589 27.54C82.6589 27.66 82.6349 27.816 82.5869 28.008C82.6109 28.128 82.5869 28.224 82.5149 28.296L82.3349 28.8C82.2389 28.92 82.1909 29.052 82.1909 29.196C82.1909 29.364 82.1669 29.544 82.1189 29.736L81.7949 30.168H81.9029C81.7829 30.384 81.6269 30.588 81.4349 30.78C81.2429 30.996 81.0749 31.152 80.9309 31.248C80.8109 31.296 80.7029 31.332 80.6069 31.356C80.5349 31.404 80.4389 31.404 80.3189 31.356L80.1029 31.212C80.0309 31.092 79.9589 30.972 79.8869 30.852C79.8149 30.756 79.7789 30.624 79.7789 30.456C79.6589 30.336 79.6349 30.168 79.7069 29.952V29.808C79.7069 29.664 79.6949 29.556 79.6709 29.484C79.6469 29.412 79.6229 29.352 79.5989 29.304C79.5989 29.184 79.5989 28.98 79.5989 28.692C79.5989 28.404 79.6109 28.08 79.6349 27.72C79.6589 27.36 79.6829 27 79.7069 26.64C79.7309 26.256 79.7669 25.92 79.8149 25.632L79.7789 25.56L79.8509 25.344V25.128C79.8269 25.008 79.8149 24.876 79.8149 24.732C79.8389 24.564 79.8629 24.408 79.8869 24.264C79.9109 24.096 79.9229 23.952 79.9229 23.832C79.9469 23.688 79.9589 23.58 79.9589 23.508V23.076L80.0669 22.932C80.0669 22.812 80.0669 22.668 80.0669 22.5C80.0909 22.332 80.1509 22.14 80.2469 21.924C80.3429 21.684 80.5949 21.48 81.0029 21.312L81.4349 21.276H81.6149L82.1549 21.528L82.4789 22.104C82.5269 22.224 82.5869 22.332 82.6589 22.428C82.7309 22.524 82.7909 22.632 82.8389 22.752C82.8869 22.848 82.9109 22.908 82.9109 22.932C83.1509 22.812 83.4749 22.68 83.8829 22.536C84.3149 22.392 84.7589 22.248 85.2149 22.104C85.6709 21.96 86.1269 21.828 86.5829 21.708C87.0389 21.588 87.4469 21.492 87.8069 21.42C88.0469 21.372 88.2509 21.408 88.4189 21.528L88.8149 21.78C88.9109 21.828 88.9709 21.888 88.9949 21.96C89.0429 22.008 89.0789 22.128 89.1029 22.32L89.1749 22.932L89.1389 23.724L88.6709 26.136C88.6229 26.376 88.5509 26.652 88.4549 26.964C88.3829 27.252 88.2869 27.564 88.1669 27.9C88.1429 27.972 88.1189 28.044 88.0949 28.116C88.0709 28.188 88.0469 28.26 88.0229 28.332C88.2149 28.284 88.3949 28.248 88.5629 28.224C88.7549 28.2 88.9469 28.176 89.1389 28.152ZM88.7429 15.192C88.5749 15.24 88.4189 15.24 88.2749 15.192C88.1309 15.144 87.9749 15.12 87.8069 15.12L87.1229 15.192C86.8589 15.24 86.5709 15.288 86.2589 15.336C85.9469 15.384 85.6349 15.432 85.3229 15.48C85.4189 15.816 85.4789 15.996 85.5029 16.02C85.5989 16.212 85.6469 16.404 85.6469 16.596C85.6709 16.836 85.6709 17.088 85.6469 17.352C85.6229 17.616 85.5989 17.832 85.5749 18C85.5509 18.192 85.5269 18.372 85.5029 18.54C85.4789 18.708 85.4429 18.864 85.3949 19.008C85.2749 19.44 85.2029 19.812 85.1789 20.124C85.1549 20.676 85.0229 21.048 84.7829 21.24C84.5669 21.408 84.3029 21.528 83.9909 21.6C83.8229 21.648 83.6189 21.624 83.3789 21.528C83.1629 21.432 83.0189 21.348 82.9469 21.276C82.8509 21.18 82.7669 21.048 82.6949 20.88C82.6229 20.712 82.5869 20.604 82.5869 20.556C82.5869 20.484 82.5869 20.376 82.5869 20.232C82.5869 20.088 82.6229 19.92 82.6949 19.728C82.6709 19.44 82.6829 19.116 82.7309 18.756C82.8029 18.396 82.8749 18.036 82.9469 17.676C83.0429 17.316 83.1389 16.98 83.2349 16.668C83.3549 16.356 83.4509 16.092 83.5229 15.876H83.3069L83.2349 15.948C83.1389 16.02 83.0309 16.092 82.9109 16.164C82.7909 16.236 82.6349 16.272 82.4429 16.272C82.1789 16.248 81.9389 16.272 81.7229 16.344C81.5069 16.416 81.3149 16.488 81.1469 16.56L80.6789 16.74L78.1589 17.424C77.9189 17.424 77.7509 17.388 77.6549 17.316C77.5349 17.268 77.4269 17.256 77.3309 17.28C77.2589 17.304 77.1869 17.328 77.1149 17.352C77.0669 17.376 76.9949 17.388 76.8989 17.388C76.8029 17.388 76.7189 17.388 76.6469 17.388C76.5509 17.388 76.4069 17.304 76.2149 17.136C76.0229 16.944 75.9749 16.716 76.0709 16.452C76.1189 16.236 76.3109 16.032 76.6469 15.84C76.9829 15.648 77.3189 15.504 77.6549 15.408C78.4469 15.168 79.2869 14.94 80.1749 14.724C81.0869 14.484 82.0109 14.256 82.9469 14.04C83.9069 13.824 84.8549 13.632 85.7909 13.464C86.7509 13.296 87.6509 13.164 88.4909 13.068C88.6109 13.02 88.7309 13.008 88.8509 13.032C88.9709 13.032 89.0789 13.044 89.1749 13.068C89.2229 13.068 89.2709 13.08 89.3189 13.104C89.3669 13.104 89.4029 13.104 89.4269 13.104C89.6189 13.488 89.6669 13.836 89.5709 14.148C89.5469 14.196 89.5229 14.256 89.4989 14.328C89.4989 14.376 89.4749 14.532 89.4269 14.796C89.2349 14.796 89.0789 14.88 88.9589 15.048L88.7429 15.192ZM78.0869 10.44C78.2069 9.552 78.3149 8.736 78.4109 7.992C78.5309 7.248 78.6389 6.456 78.7349 5.616C78.3989 5.688 78.1229 5.76 77.9069 5.832C77.7149 5.904 77.4149 6 77.0069 6.12C76.8869 6.168 76.7309 6.216 76.5389 6.264C76.3469 6.288 76.1429 6.3 75.9269 6.3C75.8069 6.252 75.6989 6.216 75.6029 6.192C75.5309 6.144 75.4109 6.084 75.2429 6.012C75.2429 5.7 75.3029 5.508 75.4229 5.436C75.5669 5.316 75.6509 5.232 75.6749 5.184C75.7229 5.136 75.7589 5.064 75.7829 4.968C75.9509 4.848 76.1189 4.752 76.2869 4.68C76.4549 4.608 76.6229 4.536 76.7909 4.464L77.2949 4.176L77.6909 4.032H77.8709C78.3509 3.864 78.7109 3.756 78.9509 3.708C79.2149 3.636 79.4549 3.576 79.6709 3.528C79.8389 3.48 79.9709 3.48 80.0669 3.528L80.5349 3.636C80.9189 3.684 81.1949 3.828 81.3629 4.068C81.5309 4.308 81.6389 4.596 81.6869 4.932C81.8069 5.148 81.8669 5.352 81.8669 5.544C81.8669 5.712 81.8069 5.928 81.6869 6.192L81.5069 7.2C81.4109 7.752 81.3029 8.328 81.1829 8.928C81.0869 9.528 80.9909 9.984 80.8949 10.296C80.8469 10.368 80.7989 10.452 80.7509 10.548C80.7269 10.62 80.6909 10.704 80.6429 10.8C80.5229 11.016 80.4269 11.292 80.3549 11.628C80.2349 11.964 80.0909 12.168 79.9229 12.24C79.7789 12.312 79.6109 12.36 79.4189 12.384H79.2029C79.1549 12.384 79.0949 12.396 79.0229 12.42C78.9749 12.42 78.9269 12.408 78.8789 12.384H78.6629C78.5909 12.336 78.5189 12.276 78.4469 12.204C78.3989 12.108 78.3509 12.048 78.3029 12.024C78.2549 12.024 78.2069 12.024 78.1589 12.024C78.1109 12.024 78.0629 12.012 78.0149 11.988C77.9429 11.964 77.8949 11.94 77.8709 11.916C77.8949 11.724 77.9309 11.484 77.9789 11.196C78.0269 10.884 78.0629 10.632 78.0869 10.44ZM86.1869 12.096C86.1869 11.76 86.1989 11.436 86.2229 11.124C86.2469 10.812 86.2709 10.464 86.2949 10.08C86.3429 9.672 86.3789 9.204 86.4029 8.676C86.4269 8.148 86.4629 7.488 86.5109 6.696C86.1269 6.816 85.7789 6.912 85.4669 6.984C85.1549 7.032 84.8069 7.116 84.4229 7.236C84.2069 7.308 84.0149 7.368 83.8469 7.416C83.7029 7.44 83.5349 7.44 83.3429 7.416L83.0909 7.308C82.7549 7.164 82.6109 6.996 82.6589 6.804C82.6589 6.828 82.6709 6.792 82.6949 6.696C82.7429 6.576 82.7789 6.468 82.8029 6.372C82.8989 6.3 82.9949 6.18 83.0909 6.012C83.1389 5.964 83.2229 5.904 83.3429 5.832C83.4629 5.736 83.5589 5.664 83.6309 5.616L84.3149 5.364L84.5309 5.256L84.9269 5.112L85.1069 5.076L85.4309 4.968C85.6949 4.872 85.9829 4.788 86.2949 4.716C86.6309 4.62 86.9189 4.548 87.1589 4.5C87.2549 4.476 87.3509 4.476 87.4469 4.5C87.5429 4.524 87.7589 4.56 88.0949 4.608C88.4789 4.656 88.7549 4.8 88.9229 5.04C89.0909 5.28 89.2469 5.604 89.3909 6.012C89.5109 6.228 89.5589 6.432 89.5349 6.624C89.5349 6.792 89.4989 7.008 89.4269 7.272C89.4269 7.344 89.4149 7.476 89.3909 7.668C89.3669 7.836 89.3309 8.04 89.2829 8.28C89.2349 8.688 89.1749 9.06 89.1029 9.396C89.0549 9.732 89.0069 10.032 88.9589 10.296C88.8869 10.536 88.8029 10.788 88.7069 11.052C88.6349 11.292 88.5749 11.544 88.5269 11.808C88.4549 12.192 88.2749 12.432 87.9869 12.528C87.7229 12.6 87.4109 12.624 87.0509 12.6H86.7989C86.7509 12.528 86.7029 12.456 86.6549 12.384C86.6069 12.312 86.5349 12.24 86.4389 12.168C86.3429 12.12 86.2589 12.096 86.1869 12.096ZM100.558 24.372C100.246 24.468 99.9459 24.552 99.6579 24.624C99.3699 24.696 99.0459 24.708 98.6859 24.66L97.9659 24.624C97.8219 24.6 97.7259 24.552 97.6779 24.48C97.6299 24.384 97.5339 24.324 97.3899 24.3C97.0779 24.132 96.9099 23.916 96.8859 23.652C96.8379 23.532 96.8499 23.412 96.9219 23.292C96.9939 23.148 97.0539 23.016 97.1019 22.896C97.1499 22.824 97.2099 22.74 97.2819 22.644C97.3539 22.548 97.4139 22.452 97.4619 22.356L97.9659 21.924C98.0139 21.876 98.0739 21.804 98.1459 21.708C98.2179 21.612 98.2779 21.528 98.3259 21.456C98.4219 21.384 98.5179 21.312 98.6139 21.24C98.7099 21.144 98.8299 21.036 98.9739 20.916C99.1179 20.772 99.2859 20.604 99.4779 20.412C99.6699 20.22 99.9099 19.968 100.198 19.656C100.246 19.584 100.342 19.476 100.486 19.332C100.63 19.188 100.738 19.056 100.81 18.936C100.69 18.96 100.438 19.02 100.054 19.116C99.6699 19.188 99.2739 19.26 98.8659 19.332C98.6979 19.38 98.5299 19.416 98.3619 19.44C98.1939 19.464 98.0139 19.5 97.8219 19.548C97.4859 19.62 97.2219 19.692 97.0299 19.764C96.8379 19.812 96.5979 19.86 96.3099 19.908L96.2019 19.764H96.0939C96.0459 19.764 96.0099 19.764 95.9859 19.764C95.9859 19.74 95.9739 19.728 95.9499 19.728C95.7819 19.704 95.6139 19.644 95.4459 19.548C95.2779 19.428 95.1699 19.308 95.1219 19.188V19.08C95.0739 19.032 95.0379 18.972 95.0139 18.9C94.9899 18.804 95.0139 18.648 95.0859 18.432C95.1819 18.36 95.2899 18.288 95.4099 18.216C95.5299 18.144 95.6739 18.096 95.8419 18.072C95.9139 18.048 95.9979 18.024 96.0939 18C96.1899 17.976 96.3099 17.952 96.4539 17.928C96.5739 17.88 96.6939 17.856 96.8139 17.856C96.9339 17.856 97.0179 17.844 97.0659 17.82C97.3299 17.772 97.5459 17.724 97.7139 17.676C97.9059 17.628 98.1099 17.58 98.3259 17.532C98.6139 17.484 98.8899 17.448 99.1539 17.424C99.4179 17.376 99.6819 17.316 99.9459 17.244C100.018 17.244 100.138 17.232 100.306 17.208C100.474 17.184 100.642 17.148 100.81 17.1C101.002 17.052 101.206 17.016 101.422 16.992L101.71 16.956L101.962 16.884C102.058 16.836 102.166 16.812 102.286 16.812C102.43 16.812 102.526 16.8 102.574 16.776L102.682 16.74C102.994 16.716 103.234 16.716 103.402 16.74C103.594 16.74 103.762 16.824 103.906 16.992L104.014 17.064C104.062 17.136 104.11 17.208 104.158 17.28C104.23 17.328 104.266 17.484 104.266 17.748L104.23 18.216L103.978 18.468L103.762 18.648C103.69 18.744 103.63 18.828 103.582 18.9C103.534 18.972 103.486 19.032 103.438 19.08C103.03 19.512 102.682 19.872 102.394 20.16C102.13 20.424 101.902 20.664 101.71 20.88C101.518 21.072 101.338 21.252 101.17 21.42C101.002 21.588 100.81 21.78 100.594 21.996L100.342 22.212L100.09 22.392L99.7659 22.716L100.954 22.428C101.362 22.404 101.71 22.332 101.998 22.212L102.754 22.068L103.15 21.924C103.294 21.9 103.414 21.876 103.51 21.852C103.63 21.828 103.75 21.792 103.87 21.744C103.966 21.696 104.074 21.66 104.194 21.636C104.314 21.612 104.422 21.576 104.518 21.528C104.806 21.552 104.986 21.636 105.058 21.78C105.13 21.9 105.178 22.032 105.202 22.176L105.166 22.644C105.166 22.812 105.094 22.944 104.95 23.04C104.806 23.112 104.638 23.184 104.446 23.256L104.302 23.436L104.014 23.472C103.486 23.592 102.934 23.724 102.358 23.868C101.782 24.012 101.182 24.18 100.558 24.372ZM100.846 5.868C100.702 6.564 100.498 7.224 100.234 7.848C99.9699 8.472 99.7059 8.94 99.4419 9.252C99.0339 9.636 98.5179 9.948 97.8939 10.188C97.2939 10.404 96.7779 10.488 96.3459 10.44C96.2259 10.416 96.0939 10.308 95.9499 10.116C95.8059 9.9 95.6739 9.66 95.5539 9.396C95.4579 9.132 95.3739 8.856 95.3019 8.568C95.2539 8.256 95.2299 7.968 95.2299 7.704C95.2779 7.2 95.3379 6.732 95.4099 6.3C95.4819 5.844 95.6139 5.412 95.8059 5.004C96.0459 4.524 96.2979 4.164 96.5619 3.924C96.8259 3.684 97.1499 3.48 97.5339 3.312C97.6059 3.336 97.6779 3.348 97.7499 3.348H98.0739H98.4699C98.6379 3.348 98.8539 3.3 99.1179 3.204C99.1659 3.204 99.2019 3.204 99.2259 3.204C99.2499 3.18 99.3219 3.168 99.4419 3.168C99.6099 3.168 99.7779 3.264 99.9459 3.456C100.138 3.648 100.306 3.888 100.45 4.176C100.594 4.464 100.702 4.764 100.774 5.076C100.87 5.388 100.894 5.652 100.846 5.868ZM101.674 26.568C101.602 26.64 101.506 26.724 101.386 26.82C101.29 26.916 101.206 27.012 101.134 27.108C100.942 27.3 100.786 27.444 100.666 27.54C100.546 27.636 100.438 27.72 100.342 27.792C100.27 27.888 100.186 27.972 100.09 28.044C100.018 28.14 99.9219 28.248 99.8019 28.368C100.426 28.248 101.074 28.092 101.746 27.9C102.418 27.732 103.078 27.552 103.726 27.36H104.014C104.158 27.312 104.326 27.264 104.518 27.216C104.71 27.168 104.866 27.12 104.986 27.072L105.742 27C105.886 27.12 106.018 27.264 106.138 27.432C106.282 27.6 106.366 27.768 106.39 27.936C106.414 28.152 106.306 28.32 106.066 28.44C105.85 28.584 105.646 28.68 105.454 28.728L104.914 28.8C104.818 28.848 104.734 28.884 104.662 28.908C104.614 28.932 104.53 28.968 104.41 29.016C104.146 29.088 103.822 29.172 103.438 29.268C103.078 29.388 102.718 29.484 102.358 29.556C102.022 29.652 101.722 29.736 101.458 29.808C101.194 29.88 101.038 29.916 100.99 29.916L100.414 30.06L99.8739 30.276L99.4419 30.42C99.3939 30.396 99.3339 30.396 99.2619 30.42C99.2139 30.444 99.1659 30.468 99.1179 30.492C98.9499 30.588 98.7819 30.636 98.6139 30.636C98.5419 30.636 98.4579 30.636 98.3619 30.636C98.2659 30.66 98.1579 30.672 98.0379 30.672C97.8459 30.72 97.5939 30.696 97.2819 30.6C96.9939 30.528 96.7899 30.42 96.6699 30.276C96.5499 30.204 96.4539 30.084 96.3819 29.916C96.3339 29.748 96.3339 29.568 96.3819 29.376C96.3819 29.352 96.4059 29.304 96.4539 29.232C96.5019 29.184 96.5379 29.112 96.5619 29.016C96.6339 28.92 96.7299 28.812 96.8499 28.692C96.9699 28.572 97.0899 28.452 97.2099 28.332L97.9659 27.684L99.0099 26.712C99.1779 26.568 99.3699 26.388 99.5859 26.172C99.8259 25.932 100.042 25.716 100.234 25.524C100.306 25.404 100.39 25.32 100.486 25.272C100.606 25.224 100.69 25.176 100.738 25.128C101.026 24.936 101.278 24.804 101.494 24.732C101.542 24.732 101.59 24.732 101.638 24.732C101.71 24.708 101.77 24.696 101.818 24.696C101.89 24.696 101.95 24.684 101.998 24.66C102.07 24.684 102.154 24.732 102.25 24.804C102.346 24.876 102.418 24.936 102.466 24.984C102.538 25.152 102.55 25.356 102.502 25.596C102.478 25.812 102.406 25.98 102.286 26.1L101.674 26.568ZM105.202 13.716C105.034 13.764 104.878 13.764 104.734 13.716C104.59 13.668 104.434 13.644 104.266 13.644L103.582 13.716C103.102 13.788 102.574 13.872 101.998 13.968C101.422 14.064 100.966 14.172 100.63 14.292L100.306 14.4H99.7659L99.6939 14.472C99.5979 14.544 99.4899 14.616 99.3699 14.688C99.2499 14.76 99.0939 14.796 98.9019 14.796C98.6379 14.772 98.3979 14.796 98.1819 14.868C97.9659 14.94 97.7739 15.012 97.6059 15.084L97.1379 15.264L94.6179 15.948C94.3779 15.948 94.2099 15.912 94.1139 15.84C93.9939 15.792 93.8859 15.78 93.7899 15.804C93.7179 15.828 93.6459 15.852 93.5739 15.876C93.5259 15.9 93.4539 15.912 93.3579 15.912C93.2619 15.912 93.1779 15.912 93.1059 15.912C93.0099 15.912 92.8659 15.828 92.6739 15.66C92.4819 15.468 92.4339 15.24 92.5299 14.976C92.5779 14.76 92.7699 14.556 93.1059 14.364C93.4419 14.172 93.7779 14.028 94.1139 13.932C94.9059 13.692 95.7459 13.464 96.6339 13.248C97.5459 13.008 98.4699 12.78 99.4059 12.564C100.366 12.348 101.314 12.156 102.25 11.988C103.21 11.82 104.11 11.688 104.95 11.592C105.07 11.544 105.19 11.532 105.31 11.556C105.43 11.556 105.538 11.568 105.634 11.592C105.682 11.592 105.73 11.604 105.778 11.628C105.826 11.628 105.862 11.628 105.886 11.628C106.078 12.012 106.126 12.36 106.03 12.672C106.006 12.72 105.982 12.78 105.958 12.852C105.958 12.9 105.934 13.056 105.886 13.32C105.694 13.32 105.538 13.404 105.418 13.572L105.202 13.716ZM97.3899 8.136C97.5819 8.184 97.7859 8.136 98.0019 7.992C98.2419 7.824 98.4219 7.608 98.5419 7.344C98.4939 7.272 98.4699 7.188 98.4699 7.092C98.4699 6.996 98.4699 6.924 98.4699 6.876C98.4699 6.756 98.4939 6.588 98.5419 6.372C98.6139 6.156 98.6499 5.916 98.6499 5.652C98.6499 5.532 98.5899 5.4 98.4699 5.256C98.3739 5.112 98.2419 5.04 98.0739 5.04C97.9299 5.328 97.7499 5.748 97.5339 6.3C97.3179 6.828 97.1979 7.332 97.1739 7.812C97.1739 7.932 97.1979 8.016 97.2459 8.064C97.2939 8.112 97.3419 8.136 97.3899 8.136ZM130.652 17.496C130.484 17.544 130.328 17.544 130.184 17.496C130.04 17.448 129.884 17.424 129.716 17.424L129.032 17.496C128.552 17.568 128.024 17.652 127.448 17.748C126.872 17.844 126.416 17.952 126.08 18.072L125.756 18.18H125.216L125.144 18.252C125.048 18.324 124.94 18.396 124.82 18.468C124.7 18.54 124.544 18.576 124.352 18.576C124.088 18.552 123.848 18.576 123.632 18.648C123.416 18.72 123.224 18.792 123.056 18.864L122.588 19.044L120.068 19.728C119.828 19.728 119.66 19.692 119.564 19.62C119.444 19.572 119.336 19.56 119.24 19.584C119.168 19.608 119.096 19.632 119.024 19.656C118.976 19.68 118.904 19.692 118.808 19.692C118.712 19.692 118.628 19.692 118.556 19.692C118.46 19.692 118.316 19.608 118.124 19.44C117.932 19.248 117.884 19.02 117.98 18.756C118.028 18.54 118.22 18.336 118.556 18.144C118.892 17.952 119.228 17.808 119.564 17.712C120.356 17.472 121.196 17.244 122.084 17.028C122.996 16.788 123.92 16.56 124.856 16.344C125.816 16.128 126.764 15.936 127.7 15.768C128.66 15.6 129.56 15.468 130.4 15.372C130.52 15.324 130.64 15.312 130.76 15.336C130.88 15.336 130.988 15.348 131.084 15.372C131.132 15.372 131.18 15.384 131.228 15.408C131.276 15.408 131.312 15.408 131.336 15.408C131.528 15.792 131.576 16.14 131.48 16.452C131.456 16.5 131.432 16.56 131.408 16.632C131.408 16.68 131.384 16.836 131.336 17.1C131.144 17.1 130.988 17.184 130.868 17.352L130.652 17.496ZM122.876 11.052C123.068 11.1 123.272 11.052 123.488 10.908C123.728 10.74 123.908 10.524 124.028 10.26C123.98 10.188 123.956 10.104 123.956 10.008C123.956 9.912 123.956 9.84 123.956 9.792C123.956 9.672 123.98 9.504 124.028 9.288C124.1 9.072 124.136 8.832 124.136 8.568C124.136 8.448 124.076 8.316 123.956 8.172C123.86 8.028 123.728 7.956 123.56 7.956C123.416 8.244 123.236 8.664 123.02 9.216C122.804 9.744 122.684 10.248 122.66 10.728C122.66 10.848 122.684 10.932 122.732 10.98C122.78 11.028 122.828 11.052 122.876 11.052ZM126.332 8.784C126.188 9.48 125.984 10.14 125.72 10.764C125.456 11.388 125.192 11.856 124.928 12.168C124.52 12.552 124.004 12.864 123.38 13.104C122.78 13.32 122.264 13.404 121.832 13.356C121.712 13.332 121.58 13.224 121.436 13.032C121.292 12.816 121.16 12.576 121.04 12.312C120.944 12.048 120.86 11.772 120.788 11.484C120.74 11.172 120.716 10.884 120.716 10.62C120.764 10.116 120.824 9.648 120.896 9.216C120.968 8.76 121.1 8.328 121.292 7.92C121.532 7.44 121.784 7.08 122.048 6.84C122.312 6.6 122.636 6.396 123.02 6.228C123.092 6.252 123.164 6.264 123.236 6.264H123.56H123.956C124.124 6.264 124.34 6.216 124.604 6.12C124.652 6.12 124.688 6.12 124.712 6.12C124.736 6.096 124.808 6.084 124.928 6.084C125.096 6.084 125.264 6.18 125.432 6.372C125.624 6.564 125.792 6.804 125.936 7.092C126.08 7.38 126.188 7.68 126.26 7.992C126.356 8.304 126.38 8.568 126.332 8.784ZM125.828 25.524C126.02 25.548 126.212 25.452 126.404 25.236C126.62 25.02 126.788 24.768 126.908 24.48C126.86 24.384 126.824 24.3 126.8 24.228C126.8 24.156 126.8 24.072 126.8 23.976C126.8 23.928 126.8 23.856 126.8 23.76C126.824 23.664 126.836 23.592 126.836 23.544C126.86 23.448 126.884 23.352 126.908 23.256C126.932 23.136 126.944 23.016 126.944 22.896C126.968 22.848 126.92 22.752 126.8 22.608C126.704 22.44 126.584 22.332 126.44 22.284C126.32 22.548 126.14 22.944 125.9 23.472C125.684 23.976 125.552 24.468 125.504 24.948C125.528 25.188 125.576 25.344 125.648 25.416C125.72 25.464 125.78 25.5 125.828 25.524ZM129.176 23.184C129.008 23.928 128.804 24.6 128.564 25.2C128.348 25.8 128.144 26.208 127.952 26.424C127.736 26.64 127.484 26.832 127.196 27C126.908 27.168 126.608 27.312 126.296 27.432C125.984 27.552 125.684 27.636 125.396 27.684C125.132 27.756 124.892 27.78 124.676 27.756C124.556 27.732 124.424 27.624 124.28 27.432C124.136 27.24 124.004 27.012 123.884 26.748C123.788 26.484 123.704 26.208 123.632 25.92C123.56 25.608 123.536 25.32 123.56 25.056C123.584 24.048 123.764 23.148 124.1 22.356C124.34 21.876 124.58 21.528 124.82 21.312C125.06 21.096 125.384 20.892 125.792 20.7H126.692C126.86 20.7 127.076 20.652 127.34 20.556C127.388 20.556 127.424 20.556 127.448 20.556C127.496 20.532 127.544 20.52 127.592 20.52C127.64 20.52 127.7 20.508 127.772 20.484C127.94 20.484 128.108 20.58 128.276 20.772C128.468 20.964 128.636 21.204 128.78 21.492C128.924 21.78 129.032 22.08 129.104 22.392C129.2 22.704 129.224 22.968 129.176 23.184ZM150.208 21.168C150.064 21.528 149.908 21.816 149.74 22.032C149.572 22.224 149.368 22.392 149.128 22.536C148.936 22.92 148.624 23.184 148.192 23.328C147.76 23.448 147.28 23.484 146.752 23.436V22.572C146.752 22.092 146.764 21.708 146.788 21.42C146.836 21.108 146.92 20.676 147.04 20.124C147.064 20.028 147.076 19.932 147.076 19.836C147.076 19.74 147.088 19.632 147.112 19.512C146.632 19.656 146.164 19.8 145.708 19.944C145.252 20.088 144.856 20.22 144.52 20.34C144.4 20.46 144.244 20.556 144.052 20.628C143.884 20.676 143.74 20.7 143.62 20.7C143.092 20.7 142.744 20.604 142.576 20.412C142.432 20.196 142.36 19.992 142.36 19.8C142.36 19.512 142.42 19.356 142.54 19.332C142.66 19.284 142.792 19.236 142.936 19.188C143.008 19.188 143.104 19.128 143.224 19.008C143.344 18.888 143.428 18.804 143.476 18.756C143.572 18.708 143.74 18.648 143.98 18.576C144.244 18.48 144.544 18.384 144.88 18.288C145.216 18.168 145.576 18.048 145.96 17.928C146.368 17.808 146.764 17.688 147.148 17.568C147.172 17.064 147.244 16.596 147.364 16.164C147.412 15.972 147.448 15.768 147.472 15.552C147.496 15.336 147.52 15.156 147.544 15.012C147.568 14.892 147.58 14.772 147.58 14.652C147.58 14.532 147.58 14.412 147.58 14.292C147.58 14.148 147.58 14.004 147.58 13.86C147.604 13.716 147.628 13.584 147.652 13.464C147.652 13.296 147.664 13.164 147.688 13.068C147.712 12.972 147.748 12.864 147.796 12.744C147.868 12.528 147.916 12.336 147.94 12.168C147.988 11.976 148.036 11.736 148.084 11.448C148.204 10.368 148.312 9.468 148.408 8.748C148.528 8.004 148.648 7.44 148.768 7.056C148.768 6.888 148.804 6.66 148.876 6.372L149.2 6.228C149.2 6.108 149.212 5.976 149.236 5.832C149.284 5.688 149.44 5.484 149.704 5.22H149.776C149.824 5.22 149.86 5.208 149.884 5.184C149.98 5.16 150.076 5.136 150.172 5.112C150.268 5.088 150.376 5.064 150.496 5.04C150.64 5.088 150.748 5.124 150.82 5.148C150.892 5.172 150.952 5.196 151 5.22C151.024 5.244 151.072 5.256 151.144 5.256C151.168 5.256 151.192 5.268 151.216 5.292C151.408 5.436 151.552 5.616 151.648 5.832C151.768 6.048 151.852 6.276 151.9 6.516L152.008 6.984C152.008 7.128 151.948 7.284 151.828 7.452C151.876 7.572 151.912 7.704 151.936 7.848C151.96 7.968 151.912 8.112 151.792 8.28C151.888 8.448 151.924 8.676 151.9 8.964C151.876 9.252 151.84 9.516 151.792 9.756C151.792 9.828 151.768 9.984 151.72 10.224C151.696 10.464 151.66 10.716 151.612 10.98C151.588 11.244 151.552 11.496 151.504 11.736C151.48 11.976 151.468 12.144 151.468 12.24C151.444 12.576 151.42 12.804 151.396 12.924C151.396 13.02 151.384 13.092 151.36 13.14C151.312 13.26 151.288 13.332 151.288 13.356C151.288 13.38 151.288 13.416 151.288 13.464V13.752C151.288 13.92 151.276 14.112 151.252 14.328C151.228 14.52 151.156 14.748 151.036 15.012C150.964 15.132 150.928 15.348 150.928 15.66C150.928 15.78 150.916 15.948 150.892 16.164C150.892 16.38 150.88 16.572 150.856 16.74C150.832 16.812 150.796 16.896 150.748 16.992C150.724 17.064 150.688 17.148 150.64 17.244L150.748 17.46C150.772 17.796 150.748 18.18 150.676 18.612C150.604 19.02 150.532 19.44 150.46 19.872C150.436 20.016 150.412 20.16 150.388 20.304C150.364 20.448 150.34 20.58 150.316 20.7L150.172 21.06L150.208 21.168ZM136.42 11.628C136.516 10.932 136.684 10.236 136.924 9.54C137.164 8.844 137.416 8.352 137.68 8.064C137.848 7.872 138.064 7.716 138.328 7.596C138.616 7.452 138.904 7.344 139.192 7.272C139.504 7.176 139.792 7.116 140.056 7.092C140.344 7.044 140.584 7.02 140.776 7.02C140.92 7.044 141.064 7.14 141.208 7.308C141.352 7.452 141.472 7.644 141.568 7.884C141.688 8.1 141.784 8.352 141.856 8.64C141.928 8.904 141.964 9.156 141.964 9.396C141.964 10.404 141.82 11.304 141.532 12.096C141.34 12.552 141.136 12.9 140.92 13.14C140.704 13.38 140.392 13.56 139.984 13.68C139.408 13.896 139.012 14.004 138.796 14.004C138.724 14.004 138.64 13.992 138.544 13.968C138.472 13.92 138.4 13.884 138.328 13.86C138.28 13.86 138.244 13.86 138.22 13.86C138.196 13.836 138.16 13.824 138.112 13.824C137.824 13.824 137.56 13.752 137.32 13.608C137.104 13.464 136.924 13.284 136.78 13.068C136.636 12.828 136.528 12.576 136.456 12.312C136.384 12.048 136.372 11.808 136.42 11.592V11.628ZM145.024 16.344H144.52C144.328 16.344 144.172 16.284 144.052 16.164C143.644 16.212 143.224 16.308 142.792 16.452C142.36 16.572 141.916 16.692 141.46 16.812L141.28 16.956H140.956C140.836 17.076 140.704 17.16 140.56 17.208C140.416 17.256 140.26 17.304 140.092 17.352C139.828 17.4 139.528 17.46 139.192 17.532C138.88 17.58 138.592 17.676 138.328 17.82L135.952 18.576L135.484 18.54C135.244 18.54 135.088 18.552 135.016 18.576C134.944 18.6 134.836 18.612 134.692 18.612C134.572 18.612 134.488 18.612 134.44 18.612C134.368 18.564 134.248 18.456 134.08 18.288C133.936 18.12 133.888 17.928 133.936 17.712C133.984 17.496 134.152 17.316 134.44 17.172C134.728 17.004 135.064 16.86 135.448 16.74C137.08 16.212 138.676 15.732 140.236 15.3C141.82 14.868 143.332 14.532 144.772 14.292C144.988 14.268 145.18 14.268 145.348 14.292C145.396 14.292 145.444 14.304 145.492 14.328C145.564 14.328 145.624 14.328 145.672 14.328C145.888 14.616 145.972 14.892 145.924 15.156C145.9 15.228 145.876 15.3 145.852 15.372C145.852 15.42 145.84 15.516 145.816 15.66C145.648 15.828 145.528 15.948 145.456 16.02C145.408 16.068 145.36 16.128 145.312 16.2L145.024 16.344ZM146.104 26.496L147.04 26.316L147.4 26.352L147.796 26.244C148.588 26.076 149.344 25.896 150.064 25.704C150.472 25.8 150.676 25.956 150.676 26.172C150.7 26.364 150.688 26.556 150.64 26.748L150.604 27.072L150.172 27.288C149.836 27.384 149.392 27.516 148.84 27.684C148.288 27.852 147.7 27.984 147.076 28.08L146.212 28.368C145.996 28.44 145.78 28.476 145.564 28.476C145.348 28.5 145.144 28.524 144.952 28.548C144.76 28.572 144.58 28.596 144.412 28.62C144.244 28.644 144.064 28.692 143.872 28.764C143.416 28.572 143.14 28.344 143.044 28.08C142.972 27.816 142.936 27.54 142.936 27.252C142.96 27.156 142.972 27.06 142.972 26.964C142.996 26.868 143.02 26.772 143.044 26.676C143.092 26.46 143.14 26.28 143.188 26.136C143.26 25.992 143.296 25.788 143.296 25.524L143.404 25.092L143.584 24.732L143.728 24.336C143.776 24.24 143.86 24.132 143.98 24.012C144.1 23.868 144.232 23.736 144.376 23.616C144.544 23.472 144.7 23.352 144.844 23.256C144.988 23.136 145.12 23.064 145.24 23.04C145.504 23.16 145.684 23.304 145.78 23.472C145.9 23.64 145.972 23.832 145.996 24.048C146.02 24.216 146.032 24.42 146.032 24.66C146.032 24.876 146.044 25.152 146.068 25.488L146.104 26.172V26.496ZM138.724 24.552C138.724 24.552 138.712 24.54 138.688 24.516C138.592 24.42 138.544 24.264 138.544 24.048C138.496 24 138.472 23.952 138.472 23.904C138.448 23.88 138.436 23.856 138.436 23.832V23.724L138.472 23.616C138.472 23.496 138.46 23.4 138.436 23.328C138.412 23.256 138.388 23.16 138.364 23.04C138.34 22.896 138.34 22.692 138.364 22.428C138.364 21.876 138.4 21.36 138.472 20.88C138.472 20.856 138.46 20.844 138.436 20.844C138.436 20.844 138.436 20.832 138.436 20.808L138.472 20.448C138.448 20.4 138.436 20.364 138.436 20.34C138.46 20.292 138.472 20.22 138.472 20.124C138.496 20.004 138.508 19.896 138.508 19.8C138.532 19.68 138.544 19.572 138.544 19.476V19.116L138.58 18.9L138.652 18.756C138.652 18.708 138.664 18.636 138.688 18.54C138.712 18.42 138.76 18.312 138.832 18.216C138.904 18.096 139 18 139.12 17.928C139.264 17.856 139.444 17.82 139.66 17.82H139.768C139.96 17.82 140.128 17.892 140.272 18.036C140.416 18.18 140.512 18.348 140.56 18.54L140.848 18.972C140.872 19.02 140.896 19.092 140.92 19.188C140.944 19.26 140.956 19.32 140.956 19.368C140.956 19.488 140.944 19.644 140.92 19.836C140.92 20.004 140.908 20.16 140.884 20.304C140.86 20.424 140.848 20.52 140.848 20.592C140.848 20.664 140.848 20.724 140.848 20.772C140.848 20.916 140.86 21.012 140.884 21.06C140.932 21.156 140.956 21.24 140.956 21.312C140.956 21.432 140.944 21.516 140.92 21.564C140.92 21.588 140.908 21.636 140.884 21.708C140.86 21.756 140.848 21.804 140.848 21.852C140.848 21.876 140.836 21.912 140.812 21.96C140.788 22.008 140.776 22.056 140.776 22.104V22.176V22.284C140.776 22.308 140.788 22.32 140.812 22.32C140.812 22.44 140.8 22.524 140.776 22.572C140.752 22.596 140.728 22.632 140.704 22.68C140.728 22.704 140.74 22.74 140.74 22.788C140.692 22.98 140.62 23.184 140.524 23.4C140.428 23.616 140.344 23.784 140.272 23.904C140.032 24.168 139.816 24.372 139.624 24.516C139.432 24.636 139.168 24.72 138.832 24.768L138.724 24.552ZM139.984 8.892C139.504 9.012 139.132 9.396 138.868 10.044C138.988 10.212 139.048 10.392 139.048 10.584C139.048 10.704 139.024 10.86 138.976 11.052C138.952 11.148 138.94 11.256 138.94 11.376C138.94 11.424 138.952 11.532 138.976 11.7C139 11.844 139.096 11.94 139.264 11.988C139.432 11.724 139.624 11.304 139.84 10.728C140.08 10.152 140.2 9.66 140.2 9.252C140.2 8.988 140.128 8.868 139.984 8.892ZM169.606 20.988C169.726 20.868 169.786 20.772 169.786 20.7C169.81 20.604 169.834 20.508 169.858 20.412L169.822 20.196C169.822 20.1 169.846 20.016 169.894 19.944C169.942 19.848 169.978 19.764 170.002 19.692C170.026 19.524 170.05 19.308 170.074 19.044C170.122 18.78 170.182 18.516 170.254 18.252C170.35 17.988 170.458 17.748 170.578 17.532C170.698 17.316 170.854 17.184 171.046 17.136C171.142 17.112 171.298 17.064 171.514 16.992C171.754 16.92 171.97 16.896 172.162 16.92C172.354 16.944 172.486 17.076 172.558 17.316C172.63 17.556 172.666 17.832 172.666 18.144C172.69 18.456 172.69 18.78 172.666 19.116C172.642 19.428 172.618 19.68 172.594 19.872C172.57 20.016 172.51 20.16 172.414 20.304C172.318 20.424 172.282 20.568 172.306 20.736C172.33 20.856 172.342 20.952 172.342 21.024C172.366 21.072 172.378 21.144 172.378 21.24C172.33 21.432 172.294 21.612 172.27 21.78C172.246 21.948 172.222 22.128 172.198 22.32C172.15 22.536 172.114 22.716 172.09 22.86C172.09 23.004 172.078 23.148 172.054 23.292C172.03 23.436 171.994 23.652 171.946 23.94C171.898 24.204 171.85 24.468 171.802 24.732C171.754 24.924 171.706 25.116 171.658 25.308C171.634 25.476 171.61 25.62 171.586 25.74C171.562 25.812 171.538 25.896 171.514 25.992C171.466 26.136 171.394 26.292 171.298 26.46C171.178 26.604 170.974 26.736 170.686 26.856C170.422 26.952 170.086 26.964 169.678 26.892C169.486 26.844 169.318 26.688 169.174 26.424C169.03 26.16 168.958 25.86 168.958 25.524C168.958 25.236 168.97 24.924 168.994 24.588C169.018 24.252 169.054 23.916 169.102 23.58C168.382 23.7 167.674 23.844 166.978 24.012C167.098 24.612 167.206 25.104 167.302 25.488L167.374 25.776C167.422 26.04 167.458 26.232 167.482 26.352C167.53 26.472 167.578 26.556 167.626 26.604L167.914 27.18C167.986 27.324 168.022 27.408 168.022 27.432C168.046 27.48 168.094 27.528 168.166 27.576L168.994 27.792C169.138 27.84 169.294 27.888 169.462 27.936C169.63 28.008 169.714 28.092 169.714 28.188C169.762 28.476 169.75 28.656 169.678 28.728C169.63 28.824 169.57 28.908 169.498 28.98C169.258 29.22 169.006 29.292 168.742 29.196C168.358 29.196 167.914 29.136 167.41 29.016C166.93 28.92 166.582 28.764 166.366 28.548L166.15 28.404C165.742 28.236 165.466 27.9 165.322 27.396C165.202 27.348 165.13 27.276 165.106 27.18C165.082 27.108 165.046 27 164.998 26.856C164.95 26.712 164.89 26.556 164.818 26.388C164.674 26.244 164.566 26.088 164.494 25.92C164.422 25.752 164.35 25.524 164.278 25.236C164.158 24.708 164.05 24.24 163.954 23.832C163.858 23.424 163.774 22.896 163.702 22.248C163.63 22.176 163.594 22.056 163.594 21.888C163.618 21.864 163.642 21.828 163.666 21.78C163.69 21.708 163.726 21.648 163.774 21.6C163.726 21.432 163.69 21.252 163.666 21.06C163.666 20.868 163.678 20.688 163.702 20.52C163.726 20.352 163.762 20.112 163.81 19.8C163.882 19.488 163.942 19.236 163.99 19.044C164.038 18.78 164.098 18.54 164.17 18.324C164.242 18.084 164.278 17.892 164.278 17.748C164.614 17.436 164.89 17.22 165.106 17.1C165.346 16.956 165.598 16.932 165.862 17.028C166.222 17.148 166.462 17.352 166.582 17.64C166.702 17.928 166.786 18.24 166.834 18.576L166.87 18.792V19.224L166.762 19.332C166.762 19.548 166.738 19.752 166.69 19.944C166.69 20.016 166.702 20.064 166.726 20.088C166.798 20.28 166.81 20.448 166.762 20.592C166.738 20.64 166.726 20.712 166.726 20.808V20.88C166.75 20.928 166.762 21 166.762 21.096C166.762 21.168 166.774 21.228 166.798 21.276L166.762 21.816V22.068C167.098 21.996 167.494 21.924 167.95 21.852C168.43 21.756 168.946 21.672 169.498 21.6C169.522 21.552 169.534 21.528 169.534 21.528C169.534 21.504 169.546 21.468 169.57 21.42L169.606 20.988ZM170.686 2.988C170.782 3.084 170.866 3.144 170.938 3.168C171.058 3.216 171.154 3.288 171.226 3.384C171.322 3.456 171.37 3.612 171.37 3.852C171.37 3.876 171.394 3.96 171.442 4.104C171.49 4.224 171.538 4.332 171.586 4.428C171.634 4.5 171.646 4.608 171.622 4.752C171.646 4.944 171.586 5.112 171.442 5.256L171.514 5.436V5.688C171.514 5.808 171.514 5.916 171.514 6.012C171.514 6.108 171.49 6.216 171.442 6.336C171.49 6.432 171.514 6.516 171.514 6.588C171.538 6.636 171.562 6.684 171.586 6.732C171.514 7.188 171.466 7.5 171.442 7.668C171.418 7.812 171.382 8.04 171.334 8.352C171.334 8.472 171.334 8.628 171.334 8.82C171.334 9.012 171.286 9.168 171.19 9.288L171.226 9.504L171.154 9.828C171.13 10.164 171.094 10.536 171.046 10.944C171.022 11.352 170.998 11.724 170.974 12.06C170.902 12.252 170.71 12.636 170.398 13.212C170.374 13.284 170.35 13.368 170.326 13.464C170.326 13.536 170.314 13.608 170.29 13.68C170.266 13.848 170.242 13.992 170.218 14.112C170.194 14.232 170.122 14.412 170.002 14.652L169.642 14.868C169.666 15.084 169.594 15.3 169.426 15.516C169.282 15.708 169.114 15.876 168.922 16.02L168.238 16.308C167.854 16.332 167.602 16.308 167.482 16.236C167.386 16.164 167.242 16.02 167.05 15.804V15.444C167.002 15.396 166.966 15.336 166.942 15.264C166.918 15.192 166.882 15.12 166.834 15.048L166.798 14.904C166.75 14.856 166.75 14.76 166.798 14.616C166.846 14.472 166.93 14.328 167.05 14.184C167.026 14.088 167.014 13.98 167.014 13.86V12.924L167.122 12.384C167.146 12.264 167.158 12.144 167.158 12.024C167.182 11.904 167.206 11.784 167.23 11.664C167.254 11.592 167.314 11.484 167.41 11.34C167.362 11.244 167.326 11.136 167.302 11.016C167.278 10.896 167.278 10.776 167.302 10.656C167.326 10.512 167.362 10.404 167.41 10.332C167.482 10.26 167.566 10.188 167.662 10.116L167.734 10.044C167.638 9.996 167.566 9.948 167.518 9.9C167.47 9.852 167.446 9.756 167.446 9.612C167.446 9.42 167.542 9.276 167.734 9.18L167.842 9.108C167.818 9.012 167.866 8.868 167.986 8.676C168.034 8.556 168.034 8.4 167.986 8.208C167.962 8.016 167.95 7.8 167.95 7.56C167.998 7.224 168.046 6.96 168.094 6.768C168.142 6.576 168.19 6.408 168.238 6.264C168.286 6.096 168.31 5.94 168.31 5.796C168.334 5.652 168.37 5.472 168.418 5.256C168.418 5.136 168.43 5.004 168.454 4.86C168.478 4.716 168.538 4.56 168.634 4.392C168.634 4.296 168.634 4.2 168.634 4.104C168.634 4.008 168.646 3.936 168.67 3.888C168.694 3.768 168.778 3.66 168.922 3.564C168.994 3.516 169.054 3.48 169.102 3.456C169.198 3.408 169.294 3.36 169.39 3.312C169.51 3.24 169.606 3.192 169.678 3.168C169.798 3.072 169.954 2.976 170.146 2.88C170.338 2.784 170.518 2.82 170.686 2.988ZM157.33 14.4C157.378 13.8 157.522 13.236 157.762 12.708C158.026 12.156 158.29 11.736 158.554 11.448C158.722 11.28 158.926 11.136 159.166 11.016C159.43 10.872 159.694 10.752 159.958 10.656C160.246 10.56 160.522 10.488 160.786 10.44C161.05 10.392 161.29 10.368 161.506 10.368C161.65 10.368 161.806 10.452 161.974 10.62C162.142 10.764 162.298 10.944 162.442 11.16C162.61 11.376 162.742 11.616 162.838 11.88C162.958 12.144 163.03 12.384 163.054 12.6C163.102 13.056 163.102 13.464 163.054 13.824C163.006 14.184 162.898 14.532 162.73 14.868C162.538 15.3 162.31 15.624 162.046 15.84C161.806 16.032 161.494 16.224 161.11 16.416H160.138C160.066 16.416 159.994 16.428 159.922 16.452C159.778 16.5 159.658 16.524 159.562 16.524C159.442 16.548 159.358 16.572 159.31 16.596C159.286 16.596 159.202 16.596 159.058 16.596C158.89 16.596 158.698 16.524 158.482 16.38C158.29 16.236 158.098 16.056 157.906 15.84C157.738 15.6 157.594 15.348 157.474 15.084C157.354 14.82 157.306 14.592 157.33 14.4ZM163.162 8.676C162.826 8.676 162.49 8.7 162.154 8.748C161.818 8.796 161.398 8.88 160.894 9L160.606 9.252H160.246C160.174 9.324 160.09 9.396 159.994 9.468C159.898 9.516 159.79 9.54 159.67 9.54C159.526 9.54 159.382 9.552 159.238 9.576C159.118 9.6 158.938 9.648 158.698 9.72C158.458 9.792 158.134 9.888 157.726 10.008C157.342 10.128 156.838 10.284 156.214 10.476C156.094 10.476 156.022 10.476 155.998 10.476C155.974 10.452 155.938 10.416 155.89 10.368C155.794 10.344 155.686 10.368 155.566 10.44C155.35 10.512 155.134 10.476 154.918 10.332C154.846 10.284 154.75 10.2 154.63 10.08C154.534 9.936 154.498 9.768 154.522 9.576C154.57 9.432 154.726 9.264 154.99 9.072C155.278 8.856 155.566 8.676 155.854 8.532C157.126 8.124 158.398 7.776 159.67 7.488C160.942 7.176 162.154 6.936 163.306 6.768C163.45 6.744 163.582 6.744 163.702 6.768C163.822 6.792 163.954 6.816 164.098 6.84C164.29 7.152 164.386 7.368 164.386 7.488C164.386 7.584 164.362 7.704 164.314 7.848C164.266 7.968 164.206 8.112 164.134 8.28C164.062 8.424 163.93 8.58 163.738 8.748L163.162 8.676ZM159.418 6.48C159.298 6.36 159.214 6.24 159.166 6.12C159.142 5.976 159.118 5.808 159.094 5.616C159.094 5.4 159.082 5.256 159.058 5.184C159.034 5.112 159.01 5.028 158.986 4.932C158.986 4.812 158.986 4.632 158.986 4.392C159.01 4.128 159.022 3.888 159.022 3.672C159.046 3.456 159.082 3.264 159.13 3.096V2.736C159.178 2.472 159.202 2.256 159.202 2.088C159.226 1.896 159.262 1.596 159.31 1.188C159.31 1.092 159.358 0.911999 159.454 0.647998C159.574 0.383999 159.862 0.263999 160.318 0.287998C160.51 0.287998 160.714 0.371999 160.93 0.539999C161.17 0.707999 161.314 0.851998 161.362 0.971998L161.47 1.26L161.542 1.332C161.59 1.404 161.626 1.464 161.65 1.512C161.674 1.56 161.686 1.644 161.686 1.764C161.686 1.932 161.662 2.136 161.614 2.376C161.59 2.52 161.566 2.652 161.542 2.772C161.542 2.868 161.542 2.928 161.542 2.952C161.542 3.096 161.578 3.252 161.65 3.42C161.65 3.516 161.638 3.6 161.614 3.672C161.59 3.72 161.566 3.78 161.542 3.852C161.518 3.9 161.494 3.948 161.47 3.996C161.47 4.02 161.482 4.14 161.506 4.356C161.458 4.476 161.422 4.56 161.398 4.608C161.398 4.632 161.398 4.668 161.398 4.716C161.374 4.908 161.326 5.088 161.254 5.256C161.182 5.424 161.098 5.568 161.002 5.688C160.882 5.88 160.678 6.084 160.39 6.3C160.102 6.516 159.826 6.624 159.562 6.624L159.418 6.48ZM177.526 9.936C177.574 10.176 177.574 10.356 177.526 10.476C177.502 10.572 177.358 10.644 177.094 10.692C177.094 10.836 177.082 10.932 177.058 10.98C177.034 11.028 176.95 11.088 176.806 11.16C176.566 11.304 176.278 11.46 175.942 11.628C175.63 11.796 175.282 11.952 174.898 12.096C174.538 12.24 174.166 12.36 173.782 12.456C173.398 12.528 173.038 12.552 172.702 12.528C172.198 12.48 171.874 12.396 171.73 12.276C171.586 12.132 171.514 11.964 171.514 11.772C171.514 11.484 171.574 11.328 171.694 11.304C171.814 11.256 171.958 11.208 172.126 11.16C172.438 10.992 172.678 10.896 172.846 10.872C173.254 10.776 173.662 10.644 174.07 10.476C174.478 10.284 174.994 9.996 175.618 9.612C175.906 9.492 176.194 9.42 176.482 9.396C176.794 9.372 177.046 9.36 177.238 9.36L177.526 9.936ZM160.93 12.276C160.666 12.276 160.438 12.348 160.246 12.492C160.078 12.636 159.934 12.804 159.814 12.996C159.91 13.092 159.982 13.236 160.03 13.428C160.03 13.548 160.006 13.704 159.958 13.896V14.112C159.958 14.184 159.994 14.292 160.066 14.436C160.162 14.58 160.306 14.676 160.498 14.724C160.57 14.628 160.642 14.484 160.714 14.292C160.81 14.1 160.894 13.908 160.966 13.716C161.062 13.5 161.134 13.296 161.182 13.104C161.254 12.888 161.278 12.708 161.254 12.564C161.254 12.372 161.146 12.276 160.93 12.276ZM193.732 22.968C193.612 23.376 193.456 23.748 193.264 24.084C193.072 24.42 192.856 24.672 192.616 24.84C192.424 25.248 192.1 25.524 191.644 25.668C191.212 25.812 190.768 25.86 190.312 25.812V24.696C190.288 24.312 190.288 23.88 190.312 23.4C190.36 22.92 190.48 22.404 190.672 21.852C190.624 21.756 190.612 21.648 190.636 21.528C190.66 21.384 190.672 21.204 190.672 20.988C190.672 20.844 190.708 20.736 190.78 20.664C190.804 20.616 190.828 20.532 190.852 20.412C190.876 20.268 190.876 20.076 190.852 19.836C190.828 19.284 190.84 18.78 190.888 18.324C190.936 17.868 190.996 17.412 191.068 16.956C191.116 16.764 191.152 16.572 191.176 16.38C191.2 16.188 191.224 16.008 191.248 15.84V15.552C191.248 15.312 191.248 15.06 191.248 14.796C191.248 14.508 191.272 14.268 191.32 14.076C191.32 13.812 191.392 13.5 191.536 13.14C191.584 13.02 191.608 12.912 191.608 12.816C191.632 12.696 191.668 12.564 191.716 12.42C191.668 12.228 191.656 12.072 191.68 11.952C191.728 11.808 191.764 11.676 191.788 11.556C191.812 11.508 191.824 11.448 191.824 11.376C191.824 11.28 191.824 11.208 191.824 11.16C191.92 10.392 192.016 9.66 192.112 8.964C192.208 8.244 192.328 7.644 192.472 7.164C192.496 7.068 192.508 7.008 192.508 6.984C192.508 6.936 192.508 6.816 192.508 6.624L192.868 6.372C192.868 6.252 192.88 6.12 192.904 5.976C192.952 5.808 193.096 5.58 193.336 5.292C193.456 5.22 193.564 5.172 193.66 5.148C193.78 5.1 193.948 5.052 194.164 5.004C194.284 5.028 194.38 5.064 194.452 5.112C194.524 5.136 194.584 5.172 194.632 5.22C194.68 5.268 194.752 5.292 194.848 5.292C195.016 5.532 195.148 5.784 195.244 6.048C195.34 6.288 195.424 6.54 195.496 6.804L195.604 7.092C195.604 7.212 195.568 7.32 195.496 7.416C195.448 7.488 195.424 7.572 195.424 7.668L195.46 7.776C195.484 7.872 195.496 8.004 195.496 8.172C195.496 8.316 195.448 8.484 195.352 8.676C195.472 8.916 195.508 9.168 195.46 9.432C195.436 9.696 195.376 9.984 195.28 10.296C195.232 10.464 195.196 10.608 195.172 10.728C195.148 10.848 195.124 10.968 195.1 11.088C195.1 11.184 195.088 11.28 195.064 11.376C195.064 11.448 195.064 11.532 195.064 11.628C195.04 11.796 195.016 11.964 194.992 12.132C194.992 12.276 194.992 12.444 194.992 12.636C194.944 12.972 194.908 13.224 194.884 13.392C194.884 13.536 194.872 13.668 194.848 13.788C194.824 13.884 194.812 13.98 194.812 14.076V14.4C194.812 14.592 194.8 14.808 194.776 15.048C194.776 15.288 194.716 15.54 194.596 15.804C194.548 15.9 194.512 16.008 194.488 16.128C194.488 16.248 194.476 16.404 194.452 16.596C194.428 16.74 194.416 16.92 194.416 17.136C194.416 17.328 194.392 17.544 194.344 17.784C194.32 17.904 194.272 18.012 194.2 18.108C194.152 18.18 194.116 18.264 194.092 18.36C194.116 18.408 194.14 18.468 194.164 18.54C194.188 18.612 194.212 18.672 194.236 18.72C194.284 19.008 194.272 19.344 194.2 19.728C194.128 20.112 194.068 20.52 194.02 20.952C193.972 21.192 193.936 21.408 193.912 21.6C193.888 21.792 193.864 22.008 193.84 22.248L193.66 22.752L193.732 22.968ZM182.896 16.38C183.016 16.356 183.244 16.272 183.58 16.128C183.94 15.984 184.324 15.816 184.732 15.624C185.164 15.432 185.596 15.228 186.028 15.012C186.484 14.796 186.88 14.604 187.216 14.436C187.336 14.388 187.456 14.34 187.576 14.292C187.72 14.244 187.852 14.208 187.972 14.184C188.044 14.184 188.176 14.208 188.368 14.256C188.44 14.304 188.512 14.352 188.584 14.4C188.656 14.424 188.716 14.46 188.764 14.508C188.836 14.556 188.884 14.604 188.908 14.652L188.764 15.048C188.668 15.12 188.62 15.24 188.62 15.408C188.548 15.48 188.356 15.612 188.044 15.804C187.732 15.972 187.396 16.164 187.036 16.38C186.676 16.572 186.316 16.764 185.956 16.956C185.62 17.148 185.368 17.28 185.2 17.352C185.152 17.376 185.104 17.412 185.056 17.46C185.032 17.484 185.008 17.508 184.984 17.532C184.936 17.556 184.888 17.592 184.84 17.64C184.792 17.664 184.732 17.7 184.66 17.748L184.48 17.712C184.384 17.808 184.312 17.868 184.264 17.892C184.144 17.964 183.988 18.036 183.796 18.108C183.628 18.18 183.448 18.252 183.256 18.324C183.064 18.396 182.872 18.468 182.68 18.54C182.512 18.588 182.38 18.624 182.284 18.648C182.092 18.744 181.876 18.84 181.636 18.936C181.42 19.032 181.192 19.08 180.952 19.08C180.496 19.08 180.172 18.948 179.98 18.684C179.812 18.42 179.668 18.084 179.548 17.676C179.5 17.46 179.452 17.28 179.404 17.136C179.38 16.968 179.392 16.752 179.44 16.488C179.44 16.416 179.44 16.272 179.44 16.056C179.464 15.816 179.488 15.528 179.512 15.192C179.536 14.664 179.56 14.136 179.584 13.608C179.608 13.08 179.644 12.648 179.692 12.312C179.716 12.192 179.74 12.072 179.764 11.952C179.812 11.808 179.872 11.676 179.944 11.556C179.992 11.436 180.028 11.316 180.052 11.196C180.1 11.076 180.136 10.944 180.16 10.8C180.208 10.44 180.316 10.212 180.484 10.116C180.676 10.02 180.868 9.96 181.06 9.936H181.276C181.324 9.936 181.372 9.936 181.42 9.936C181.492 9.912 181.552 9.9 181.6 9.9H181.852L181.996 10.044C182.044 10.092 182.08 10.128 182.104 10.152C182.152 10.176 182.188 10.2 182.212 10.224L182.284 10.296C182.332 10.32 182.404 10.356 182.5 10.404C182.596 10.452 182.656 10.476 182.68 10.476C182.68 10.644 182.68 10.884 182.68 11.196C182.704 11.508 182.716 11.796 182.716 12.06C182.74 12.828 182.764 13.62 182.788 14.436C182.812 15.252 182.848 15.9 182.896 16.38ZM213.488 22.968C213.2 23.88 212.792 24.588 212.264 25.092C211.76 25.572 211.124 25.812 210.356 25.812H210.068V24.264C210.068 23.928 210.092 23.556 210.14 23.148C210.188 22.74 210.284 22.308 210.428 21.852C210.404 21.804 210.392 21.744 210.392 21.672C210.392 21.6 210.392 21.528 210.392 21.456C210.416 21.36 210.428 21.276 210.428 21.204V20.988C210.428 20.796 210.452 20.688 210.5 20.664C210.572 20.616 210.608 20.424 210.608 20.088V19.44C210.608 18.768 210.656 18.144 210.752 17.568C210.872 16.968 210.956 16.392 211.004 15.84V15.552C211.004 15.264 211.004 15.012 211.004 14.796C211.028 14.58 211.052 14.364 211.076 14.148C211.124 13.908 211.172 13.656 211.22 13.392C211.292 13.128 211.376 12.804 211.472 12.42L211.436 12.168C211.436 11.976 211.46 11.808 211.508 11.664C211.556 11.52 211.58 11.352 211.58 11.16C211.676 10.392 211.772 9.66 211.868 8.964C211.964 8.244 212.084 7.644 212.228 7.164C212.252 7.068 212.264 7.008 212.264 6.984C212.264 6.936 212.264 6.816 212.264 6.624L212.624 6.372C212.624 6.348 212.624 6.276 212.624 6.156C212.648 6.012 212.696 5.868 212.768 5.724C212.84 5.58 212.96 5.436 213.128 5.292C213.32 5.148 213.584 5.052 213.92 5.004C214.16 5.052 214.352 5.16 214.496 5.328C214.664 5.472 214.796 5.652 214.892 5.868C214.988 6.084 215.072 6.3 215.144 6.516C215.216 6.732 215.288 6.924 215.36 7.092C215.36 7.356 215.336 7.5 215.288 7.524C215.24 7.524 215.204 7.572 215.18 7.668C215.18 7.716 215.192 7.776 215.216 7.848C215.24 7.896 215.252 7.968 215.252 8.064C215.252 8.28 215.204 8.484 215.108 8.676C215.204 8.844 215.252 9.036 215.252 9.252C215.252 9.42 215.228 9.588 215.18 9.756C215.132 9.924 215.084 10.104 215.036 10.296C214.964 10.608 214.904 10.86 214.856 11.052C214.832 11.22 214.82 11.412 214.82 11.628C214.7 12.588 214.628 13.212 214.604 13.5C214.58 13.788 214.568 13.98 214.568 14.076V14.4C214.544 14.592 214.532 14.808 214.532 15.048C214.532 15.288 214.472 15.54 214.352 15.804C214.304 15.924 214.28 16.08 214.28 16.272C214.28 16.464 214.268 16.68 214.244 16.92C214.244 17.16 214.22 17.412 214.172 17.676C214.124 17.916 214.016 18.144 213.848 18.36C213.896 18.48 213.932 18.588 213.956 18.684C213.98 18.78 213.992 18.888 213.992 19.008C213.992 19.44 213.932 19.956 213.812 20.556C213.716 21.132 213.644 21.696 213.596 22.248L213.452 22.68L213.416 22.752L213.488 22.968ZM203.552 19.224C203.696 19.176 203.912 19.092 204.2 18.972C204.512 18.852 204.848 18.72 205.208 18.576C205.568 18.408 205.94 18.24 206.324 18.072C206.708 17.904 207.068 17.736 207.404 17.568C207.524 17.52 207.644 17.472 207.764 17.424C207.908 17.376 208.04 17.34 208.16 17.316C208.232 17.316 208.364 17.34 208.556 17.388C208.748 17.484 208.88 17.568 208.952 17.64C209.024 17.712 209.072 17.772 209.096 17.82C209.048 18.012 209 18.156 208.952 18.252C208.856 18.324 208.808 18.444 208.808 18.612C208.688 18.708 208.568 18.804 208.448 18.9C208.328 18.972 208.232 19.032 208.16 19.08C207.776 19.272 207.416 19.452 207.08 19.62C206.768 19.788 206.372 19.98 205.892 20.196C205.748 20.316 205.64 20.4 205.568 20.448C205.496 20.496 205.424 20.544 205.352 20.592L205.172 20.556C205.076 20.652 205.004 20.712 204.956 20.736C204.836 20.808 204.68 20.88 204.488 20.952C204.32 21.024 204.14 21.096 203.948 21.168C203.756 21.24 203.564 21.312 203.372 21.384C203.204 21.432 203.072 21.468 202.976 21.492L202.868 21.564C202.724 21.612 202.544 21.684 202.328 21.78C202.112 21.876 201.884 21.924 201.644 21.924C201.236 21.924 200.936 21.792 200.744 21.528C200.552 21.264 200.384 20.928 200.24 20.52C200.168 20.376 200.12 20.208 200.096 20.016C200.072 19.824 200.084 19.596 200.132 19.332C200.132 19.236 200.132 19.092 200.132 18.9C200.156 18.684 200.18 18.444 200.204 18.18C200.228 17.7 200.252 17.256 200.276 16.848C200.3 16.416 200.336 16.032 200.384 15.696C200.408 15.576 200.432 15.456 200.456 15.336C200.504 15.192 200.564 15.06 200.636 14.94C200.684 14.82 200.72 14.7 200.744 14.58C200.792 14.46 200.828 14.328 200.852 14.184C200.9 13.824 201.008 13.596 201.176 13.5C201.368 13.404 201.584 13.332 201.824 13.284H202.544C202.592 13.332 202.652 13.38 202.724 13.428C202.844 13.524 202.928 13.608 202.976 13.68L203.372 13.752C203.42 15.216 203.444 16.356 203.444 17.172C203.468 17.988 203.504 18.672 203.552 19.224ZM207.044 11.088H206.648C206.528 11.136 206.432 11.136 206.36 11.088C206.288 11.016 206.216 10.98 206.144 10.98C205.856 11.028 205.532 11.1 205.172 11.196C204.836 11.292 204.536 11.388 204.272 11.484L204.092 11.664H203.804C203.732 11.736 203.648 11.808 203.552 11.88C203.456 11.928 203.348 11.964 203.228 11.988C203.084 11.988 202.94 12 202.796 12.024C202.676 12.048 202.496 12.108 202.256 12.204C202.016 12.276 201.704 12.384 201.32 12.528C200.936 12.672 200.432 12.852 199.808 13.068C199.688 13.068 199.616 13.068 199.592 13.068C199.568 13.044 199.532 13.008 199.484 12.96C199.412 12.96 199.304 12.984 199.16 13.032C199.04 13.08 198.932 13.104 198.836 13.104C198.74 13.104 198.632 13.056 198.512 12.96C198.44 12.912 198.344 12.828 198.224 12.708C198.104 12.588 198.068 12.432 198.116 12.24C198.14 12.096 198.284 11.916 198.548 11.7C198.812 11.46 199.088 11.28 199.376 11.16C200.624 10.704 201.872 10.296 203.12 9.936C204.392 9.576 205.604 9.288 206.756 9.072C206.876 9.048 206.96 9.036 207.008 9.036C207.08 9.012 207.164 9.024 207.26 9.072C207.308 9.072 207.356 9.084 207.404 9.108C207.476 9.108 207.524 9.108 207.548 9.108C207.74 9.396 207.836 9.6 207.836 9.72C207.836 9.816 207.824 9.936 207.8 10.08L207.692 10.512C207.644 10.56 207.584 10.62 207.512 10.692C207.464 10.74 207.416 10.812 207.368 10.908L207.044 11.088ZM221.336 13.752C221.48 14.04 221.504 14.232 221.408 14.328C221.336 14.4 221.168 14.46 220.904 14.508C220.904 14.652 220.892 14.76 220.868 14.832C220.868 14.904 220.784 14.952 220.616 14.976C220.376 15.12 220.076 15.288 219.716 15.48C219.356 15.672 218.96 15.852 218.528 16.02C218.12 16.164 217.712 16.296 217.304 16.416C216.896 16.512 216.524 16.548 216.188 16.524C215.684 16.476 215.348 16.368 215.18 16.2C215.036 16.008 214.964 15.816 214.964 15.624C214.964 15.336 215.024 15.18 215.144 15.156C215.264 15.108 215.408 15.06 215.576 15.012L215.72 14.94C215.792 14.892 215.876 14.844 215.972 14.796C216.092 14.748 216.2 14.724 216.296 14.724C216.704 14.7 217.16 14.568 217.664 14.328C218.192 14.088 218.78 13.788 219.428 13.428C219.716 13.308 220.004 13.236 220.292 13.212C220.604 13.188 220.856 13.176 221.048 13.176L221.336 13.752ZM229.722 3.06C229.89 3.396 229.974 3.792 229.974 4.248C229.974 4.584 229.938 4.908 229.866 5.22C229.794 5.508 229.71 5.784 229.614 6.048C229.566 6.192 229.53 6.336 229.506 6.48C229.482 6.6 229.446 6.732 229.398 6.876C229.134 7.956 228.942 8.748 228.822 9.252C228.702 9.732 228.618 10.08 228.57 10.296C228.498 10.608 228.438 10.872 228.39 11.088C228.342 11.304 228.318 11.532 228.318 11.772V12.168C228.174 12.312 228.054 12.564 227.958 12.924C227.886 13.284 227.814 13.644 227.742 14.004C227.694 14.148 227.658 14.292 227.634 14.436C227.634 14.556 227.622 14.676 227.598 14.796C227.478 14.988 227.37 15.18 227.274 15.372C227.202 15.564 227.13 15.732 227.058 15.876C226.962 16.044 226.89 16.212 226.842 16.38L227.022 16.488C226.926 16.824 226.806 17.064 226.662 17.208C226.518 17.328 226.35 17.436 226.158 17.532C226.11 17.556 226.062 17.58 226.014 17.604C225.99 17.628 226.026 17.688 226.122 17.784C225.906 18 225.738 18.132 225.618 18.18C225.522 18.204 225.426 18.216 225.33 18.216C224.682 18.216 224.298 18.084 224.178 17.82C224.082 17.556 224.034 17.196 224.034 16.74C224.034 16.428 224.058 16.116 224.106 15.804C224.178 15.468 224.25 15.168 224.322 14.904C224.37 14.688 224.418 14.52 224.466 14.4C224.514 14.256 224.538 14.16 224.538 14.112C224.37 14.04 224.286 13.92 224.286 13.752C224.286 13.56 224.322 13.428 224.394 13.356C224.49 13.26 224.586 13.152 224.682 13.032L224.574 12.852L224.682 12.42C224.73 12.252 224.79 12.06 224.862 11.844C224.934 11.604 224.946 11.34 224.898 11.052C225.018 10.884 225.114 10.692 225.186 10.476C225.282 10.26 225.354 10.056 225.402 9.864C225.426 9.624 225.498 9.408 225.618 9.216C225.69 8.976 225.762 8.688 225.834 8.352C225.93 7.944 226.038 7.512 226.158 7.056C226.302 6.576 226.542 6.144 226.878 5.76C226.878 5.64 226.89 5.496 226.914 5.328C226.962 5.16 227.058 4.908 227.202 4.572C227.226 4.524 227.238 4.476 227.238 4.428C227.262 4.356 227.298 4.212 227.346 3.996C227.442 3.804 227.526 3.684 227.598 3.636C227.694 3.588 227.79 3.54 227.886 3.492C228.03 3.372 228.162 3.228 228.282 3.06C228.426 2.868 228.498 2.736 228.498 2.664C228.834 2.712 229.05 2.748 229.146 2.772C229.242 2.772 229.326 2.796 229.398 2.844L229.722 3.06ZM225.69 27.072C225.57 27.072 225.45 27.096 225.33 27.144C225.234 27.192 225.126 27.24 225.006 27.288C224.742 27.432 224.502 27.504 224.286 27.504C223.974 27.504 223.686 27.432 223.422 27.288C223.158 27.168 223.026 26.964 223.026 26.676C223.026 26.556 223.026 26.412 223.026 26.244C223.05 26.076 223.062 25.896 223.062 25.704C223.086 25.512 223.098 25.236 223.098 24.876C223.098 24.516 223.098 24.168 223.098 23.832L223.35 23.616C223.35 23.496 223.374 23.412 223.422 23.364C223.47 23.292 223.554 23.22 223.674 23.148L223.818 23.004C223.818 22.956 223.818 22.908 223.818 22.86C223.818 22.812 223.794 22.728 223.746 22.608C223.842 22.512 223.95 22.428 224.07 22.356C224.214 22.284 224.334 22.248 224.43 22.248V21.924H225.078L225.402 21.888C225.618 21.888 225.762 21.96 225.834 22.104C225.93 22.224 226.002 22.356 226.05 22.5C226.122 22.572 226.266 22.608 226.482 22.608C226.482 22.944 226.47 23.22 226.446 23.436C226.446 23.652 226.434 23.832 226.41 23.976C226.386 24.12 226.35 24.252 226.302 24.372C226.278 24.468 226.254 24.576 226.23 24.696C226.182 24.936 226.134 25.164 226.086 25.38C226.038 25.596 226.014 25.836 226.014 26.1C226.014 26.148 226.014 26.22 226.014 26.316C226.014 26.412 226.026 26.52 226.05 26.64L225.69 27.072Z" fill="#5B2386"/>
</svg>
