<svg width="388" height="72" viewBox="0 0 388 72" fill="none" xmlns="http://www.w3.org/2000/svg">
<path d="M42.1064 58.456C41.3384 60.888 40.2504 62.776 38.8424 64.12C37.4984 65.4 35.8024 66.04 33.7544 66.04H32.9864V61.912C32.9864 61.016 33.0504 60.024 33.1784 58.936C33.3064 57.848 33.5624 56.696 33.9464 55.48C33.8824 55.352 33.8504 55.192 33.8504 55C33.8504 54.808 33.8824 54.392 33.9464 53.752C34.0104 53.112 34.0424 52.696 34.0424 52.504V51.928C34.0424 51.416 34.1064 51.128 34.2344 51.064C34.4264 50.936 34.5224 50.424 34.5224 49.528V47.8C34.5224 46.008 34.6504 44.344 34.9064 42.808C35.2264 41.208 35.4504 39.672 35.5784 38.2V37.432C35.5784 36.664 35.5784 35.992 35.5784 35.416C35.6424 34.84 35.7064 34.264 35.7704 33.688C35.8984 33.048 36.0264 32.376 36.1544 31.672C36.3464 30.968 36.5704 30.104 36.8264 29.08L36.7304 28.408C36.7304 27.896 36.7944 27.448 36.9224 27.064C37.0504 26.68 37.1144 26.232 37.1144 25.72C37.3704 23.672 37.6264 21.72 37.8824 19.864C38.1384 17.944 38.4584 16.344 38.8424 15.064C38.9064 14.808 38.9384 14.648 38.9384 14.584C38.9384 14.456 38.9384 14.136 38.9384 13.624L39.8984 12.952C39.8984 12.888 39.8984 12.696 39.8984 12.376C39.9624 11.992 40.0904 11.608 40.2824 11.224C40.4744 10.84 40.7944 10.456 41.2424 10.072C41.7544 9.688 42.4584 9.432 43.3544 9.304C43.9944 9.432 44.5064 9.72 44.8904 10.168C45.3384 10.552 45.6904 11.032 45.9464 11.608C46.2024 12.184 46.4264 12.76 46.6184 13.336C46.8104 13.912 47.0024 14.424 47.1944 14.872C47.1944 15.576 47.1304 15.96 47.0024 16.024C46.8744 16.024 46.7784 16.152 46.7144 16.408C46.7144 16.536 46.7464 16.696 46.8104 16.888C46.8744 17.016 46.9064 17.208 46.9064 17.464C46.9064 18.04 46.7784 18.584 46.5224 19.096C46.7784 19.544 46.9064 20.056 46.9064 20.632C46.9064 21.08 46.8424 21.528 46.7144 21.976C46.5864 22.424 46.4584 22.904 46.3304 23.416C46.1384 24.248 45.9784 24.92 45.8504 25.432C45.7864 25.88 45.7544 26.392 45.7544 26.968C45.4344 29.528 45.2424 31.192 45.1784 31.96C45.1144 32.728 45.0824 33.24 45.0824 33.496V34.36C45.0184 34.872 44.9864 35.448 44.9864 36.088C44.9864 36.728 44.8264 37.4 44.5064 38.104C44.3784 38.424 44.3144 38.84 44.3144 39.352C44.3144 39.864 44.2824 40.44 44.2184 41.08C44.2184 41.72 44.1544 42.392 44.0264 43.096C43.8984 43.736 43.6104 44.344 43.1624 44.92C43.2904 45.24 43.3864 45.528 43.4504 45.784C43.5144 46.04 43.5464 46.328 43.5464 46.648C43.5464 47.224 43.4824 47.96 43.3544 48.856C43.2904 49.688 43.1944 50.584 43.0664 51.544C42.9384 52.44 42.8104 53.336 42.6824 54.232C42.5544 55.128 42.4584 55.896 42.3944 56.536L42.0104 57.688L41.9144 57.88L42.1064 58.456ZM29.7224 56.824H28.6664C28.4104 56.952 28.1544 56.952 27.8984 56.824C27.6424 56.632 27.4504 56.472 27.3224 56.344C25.6584 56.664 23.7384 57.208 21.5624 57.976L20.5064 58.264C20.2504 58.52 19.9304 58.744 19.5464 58.936C19.2264 59.128 18.8744 59.224 18.4904 59.224C17.7864 59.224 17.1784 59.32 16.6664 59.512C16.2184 59.704 15.8024 59.928 15.4184 60.184C15.3544 60.248 15.2584 60.312 15.1304 60.376C15.0664 60.376 15.0024 60.408 14.9384 60.472L9.27438 62.392C8.69838 62.392 8.28238 62.264 8.02638 62.008C7.77038 61.944 7.48238 61.976 7.16238 62.104C6.84238 62.232 6.58638 62.296 6.39438 62.296C6.20238 62.296 5.94638 62.232 5.62638 62.104C5.37038 61.976 5.08238 61.72 4.76238 61.336C4.44238 60.952 4.34638 60.408 4.47438 59.704C4.60238 58.936 4.98638 58.424 5.62638 58.168C6.26638 57.912 6.97038 57.624 7.73838 57.304C8.63438 56.984 9.53038 56.664 10.4264 56.344C11.3864 56.024 12.3784 55.704 13.4024 55.384C13.4664 54.808 13.4984 54.168 13.4984 53.464C13.5624 52.696 13.6264 51.96 13.6904 51.256V50.008C13.7544 49.688 13.7864 49.4 13.7864 49.144C13.8504 48.888 13.8824 48.6 13.8824 48.28V47.512L14.1704 46.648C14.1704 46.648 14.1704 46.52 14.1704 46.264C14.2344 46.008 14.3304 45.752 14.4584 45.496C14.6504 45.24 14.9384 45.016 15.3224 44.824C15.7064 44.568 16.2504 44.44 16.9544 44.44H17.1464C17.5944 44.44 18.0424 44.6 18.4904 44.92C18.9384 45.176 19.3224 45.496 19.6424 45.88C19.9624 46.264 20.2184 46.68 20.4104 47.128C20.6024 47.512 20.6984 47.832 20.6984 48.088C20.6984 48.728 20.6344 49.432 20.5064 50.2C20.4424 50.968 20.4104 51.416 20.4104 51.544C20.4104 51.736 20.4424 51.928 20.5064 52.12C20.5704 52.248 20.6344 52.376 20.6984 52.504C20.6984 52.632 20.6664 52.792 20.6024 52.984C20.5384 53.176 20.4744 53.336 20.4104 53.464C22.0744 53.016 23.6424 52.632 25.1144 52.312C26.5864 51.992 27.9624 51.672 29.2424 51.352C29.6904 51.352 30.2344 51.416 30.8744 51.544H31.4504C31.8344 52.312 32.0584 52.792 32.1224 52.984C32.1864 53.176 32.1544 53.432 32.0264 53.752C31.9624 53.816 31.8664 54.264 31.7384 55.096C31.6744 55.16 31.5464 55.32 31.3544 55.576C31.1624 55.768 30.9064 55.992 30.5864 56.248L29.7224 56.824ZM7.93038 37.144C8.05838 35.608 8.41038 34.168 8.98638 32.824C9.62638 31.416 10.2984 30.36 11.0024 29.656C11.8344 28.76 13.0184 28.056 14.5544 27.544C16.0904 27.032 17.4024 26.808 18.4904 26.872C18.8744 26.872 19.2904 27.064 19.7384 27.448C20.1864 27.832 20.6024 28.312 20.9864 28.888C21.3704 29.464 21.6904 30.072 21.9464 30.712C22.2024 31.352 22.3624 31.96 22.4264 32.536C22.6184 34.776 22.3624 36.696 21.6584 38.296C21.1464 39.384 20.5704 40.184 19.9304 40.696C19.2904 41.208 18.4904 41.72 17.5304 42.232H15.0344L13.5944 42.52C13.2744 42.584 13.0504 42.648 12.9224 42.712C12.8584 42.712 12.6344 42.712 12.2504 42.712C11.8024 42.712 11.3224 42.52 10.8104 42.136C10.2984 41.752 9.81838 41.272 9.37038 40.696C8.92238 40.12 8.53838 39.512 8.21838 38.872C7.96238 38.232 7.86638 37.656 7.93038 37.144ZM23.2904 22.84C22.3944 22.84 21.4984 22.904 20.6024 23.032C19.7064 23.16 18.5864 23.384 17.2424 23.704L16.4744 24.376H15.5144C15.3224 24.568 15.0984 24.76 14.8424 24.952C14.5864 25.08 14.2984 25.144 13.9784 25.144C13.5944 25.144 13.2104 25.176 12.8264 25.24C12.5064 25.304 12.0264 25.432 11.3864 25.624C10.7464 25.816 9.88238 26.072 8.79438 26.392C7.77038 26.712 6.42638 27.128 4.76238 27.64C4.44238 27.64 4.25038 27.64 4.18638 27.64C4.12238 27.576 4.02638 27.48 3.89838 27.352C3.64238 27.288 3.35438 27.352 3.03438 27.544C2.45838 27.736 1.88238 27.64 1.30638 27.256C1.11438 27.128 0.858375 26.904 0.538375 26.584C0.282375 26.2 0.186375 25.752 0.250375 25.24C0.378375 24.856 0.794375 24.408 1.49838 23.896C2.26638 23.32 3.03438 22.84 3.80238 22.456C7.19438 21.368 10.5864 20.44 13.9784 19.672C17.3704 18.84 20.6024 18.2 23.6744 17.752C24.0584 17.688 24.4104 17.688 24.7304 17.752C25.0504 17.816 25.4024 17.88 25.7864 17.944C26.2984 18.776 26.5544 19.352 26.5544 19.672C26.5544 19.928 26.4904 20.248 26.3624 20.632C26.2344 20.952 26.0744 21.336 25.8824 21.784C25.6904 22.168 25.3384 22.584 24.8264 23.032L23.2904 22.84ZM13.1144 16.696C12.7944 16.376 12.5704 16.056 12.4424 15.736C12.3784 15.352 12.3144 14.904 12.2504 14.392C12.2504 13.816 12.2184 13.432 12.1544 13.24C12.0904 13.048 12.0264 12.824 11.9624 12.568C11.9624 12.248 11.9624 11.768 11.9624 11.128C12.0264 10.424 12.0584 9.78399 12.0584 9.20799C12.1224 8.632 12.2184 8.12 12.3464 7.672V6.712C12.4744 6.008 12.5384 5.432 12.5384 4.984C12.6024 4.472 12.6984 3.672 12.8264 2.584C12.8264 2.328 12.9544 1.848 13.2104 1.144C13.5304 0.439997 14.2984 0.119997 15.5144 0.183996C16.0264 0.183996 16.5704 0.407997 17.1464 0.855999C17.7864 1.304 18.1704 1.688 18.2984 2.008L18.5864 2.776L18.7784 2.96799C18.9064 3.16 19.0024 3.32 19.0664 3.44799C19.1304 3.576 19.1624 3.8 19.1624 4.12C19.1624 4.568 19.0984 5.112 18.9704 5.752C18.9064 6.136 18.8424 6.488 18.7784 6.808C18.7784 7.064 18.7784 7.224 18.7784 7.288C18.7784 7.672 18.8744 8.088 19.0664 8.536C19.0664 8.792 19.0344 9.016 18.9704 9.20799C18.9064 9.336 18.8424 9.496 18.7784 9.688C18.7144 9.816 18.6504 9.944 18.5864 10.072C18.5864 10.136 18.6184 10.456 18.6824 11.032C18.5544 11.352 18.4584 11.576 18.3944 11.704C18.3944 11.768 18.3944 11.864 18.3944 11.992C18.3304 12.504 18.2024 12.984 18.0104 13.432C17.8184 13.88 17.5944 14.264 17.3384 14.584C17.0184 15.096 16.4744 15.64 15.7064 16.216C14.9384 16.792 14.2024 17.08 13.4984 17.08L13.1144 16.696ZM61.6904 33.784C62.0744 34.552 62.1384 35.064 61.8824 35.32C61.6904 35.512 61.2424 35.672 60.5384 35.8C60.6024 36.248 60.3464 36.664 59.7704 37.048C58.4904 37.88 56.8264 38.616 54.7784 39.256C52.7944 39.896 50.8744 40.28 49.0184 40.408C47.6744 40.472 46.8424 40.216 46.5224 39.64C46.2664 39.064 46.1384 38.52 46.1384 38.008C46.1384 37.24 46.2984 36.824 46.6184 36.76C46.9384 36.632 47.3224 36.504 47.7704 36.376L48.1544 36.184C48.3464 36.056 48.5704 35.96 48.8264 35.896C49.1464 35.768 49.4344 35.672 49.6904 35.608C50.3944 35.48 51.2904 35.224 52.3784 34.84C53.5304 34.456 54.9384 33.816 56.6024 32.92C57.3704 32.6 58.1384 32.408 58.9064 32.344C59.7384 32.28 60.4104 32.248 60.9224 32.248L61.6904 33.784ZM17.2424 31.288C16.4104 31.288 15.7384 31.48 15.2264 31.864C14.7144 32.248 14.2984 32.728 13.9784 33.304C14.3624 33.688 14.5544 34.136 14.5544 34.648C14.5544 34.968 14.5224 35.224 14.4584 35.416C14.4584 35.544 14.4264 35.736 14.3624 35.992V36.664C14.3624 36.856 14.4904 37.176 14.7464 37.624C15.0664 38.008 15.4824 38.264 15.9944 38.392C16.1864 38.072 16.4104 37.656 16.6664 37.144C16.9224 36.632 17.1784 36.088 17.4344 35.512C17.6904 34.872 17.8824 34.264 18.0104 33.688C18.2024 33.048 18.2664 32.504 18.2024 32.056C18.2024 31.544 17.8824 31.288 17.2424 31.288ZM105.577 58.168C105.257 59.256 104.841 60.248 104.329 61.144C103.817 62.04 103.241 62.712 102.601 63.16C102.089 64.248 101.225 64.984 100.009 65.368C98.8574 65.752 97.6734 65.88 96.4574 65.752V62.776C96.3934 61.752 96.3934 60.6 96.4574 59.32C96.5854 58.04 96.9054 56.664 97.4174 55.192C97.2894 54.936 97.2574 54.648 97.3214 54.328C97.3854 53.944 97.4174 53.464 97.4174 52.888C97.4174 52.504 97.5134 52.216 97.7054 52.024C97.7694 51.896 97.8334 51.672 97.8974 51.352C97.9614 50.968 97.9614 50.456 97.8974 49.816C97.8334 48.344 97.8654 47 97.9934 45.784C98.1214 44.568 98.2814 43.352 98.4734 42.136C98.6014 41.624 98.6974 41.112 98.7614 40.6C98.8254 40.088 98.8894 39.608 98.9534 39.16V38.392C98.9534 37.752 98.9534 37.08 98.9534 36.376C98.9534 35.608 99.0174 34.968 99.1454 34.456C99.1454 33.752 99.3374 32.92 99.7214 31.96C99.8494 31.64 99.9134 31.352 99.9134 31.096C99.9774 30.776 100.073 30.424 100.201 30.04C100.073 29.528 100.041 29.112 100.105 28.792C100.233 28.408 100.329 28.056 100.393 27.736C100.457 27.608 100.489 27.448 100.489 27.256C100.489 27 100.489 26.808 100.489 26.68C100.745 24.632 101.001 22.68 101.257 20.824C101.513 18.904 101.833 17.304 102.217 16.024C102.281 15.768 102.313 15.608 102.313 15.544C102.313 15.416 102.313 15.096 102.313 14.584L103.273 13.912C103.273 13.592 103.305 13.24 103.369 12.856C103.497 12.408 103.881 11.8 104.521 11.032C104.841 10.84 105.129 10.712 105.385 10.648C105.705 10.52 106.153 10.392 106.729 10.264C107.049 10.328 107.305 10.424 107.497 10.552C107.689 10.616 107.849 10.712 107.977 10.84C108.105 10.968 108.297 11.032 108.553 11.032C109.001 11.672 109.353 12.344 109.609 13.048C109.865 13.688 110.089 14.36 110.281 15.064L110.569 15.832C110.569 16.152 110.473 16.44 110.281 16.696C110.153 16.888 110.089 17.112 110.089 17.368L110.185 17.656C110.249 17.912 110.281 18.264 110.281 18.712C110.281 19.096 110.153 19.544 109.897 20.056C110.217 20.696 110.313 21.368 110.185 22.072C110.121 22.776 109.961 23.544 109.705 24.376C109.577 24.824 109.481 25.208 109.417 25.528C109.353 25.848 109.289 26.168 109.225 26.488C109.225 26.744 109.193 27 109.129 27.256C109.129 27.448 109.129 27.672 109.129 27.928C109.065 28.376 109.001 28.824 108.937 29.272C108.937 29.656 108.937 30.104 108.937 30.616C108.809 31.512 108.713 32.184 108.649 32.632C108.649 33.016 108.617 33.368 108.553 33.688C108.489 33.944 108.457 34.2 108.457 34.456V35.32C108.457 35.832 108.425 36.408 108.361 37.048C108.361 37.688 108.201 38.36 107.881 39.064C107.753 39.32 107.657 39.608 107.593 39.928C107.593 40.248 107.561 40.664 107.497 41.176C107.433 41.56 107.401 42.04 107.401 42.616C107.401 43.128 107.337 43.704 107.209 44.344C107.145 44.664 107.017 44.952 106.825 45.208C106.697 45.4 106.601 45.624 106.537 45.88C106.601 46.008 106.665 46.168 106.729 46.36C106.793 46.552 106.857 46.712 106.921 46.84C107.049 47.608 107.017 48.504 106.825 49.528C106.633 50.552 106.473 51.64 106.345 52.792C106.217 53.432 106.121 54.008 106.057 54.52C105.993 55.032 105.929 55.608 105.865 56.248L105.385 57.592L105.577 58.168ZM66.1214 46.36C66.1214 46.04 66.0894 45.72 66.0254 45.4C65.9614 45.08 65.9294 44.664 65.9294 44.152L66.2174 43.192C65.8974 42.424 65.8974 41.464 66.2174 40.312C66.2814 40.12 66.3454 39.896 66.4094 39.64C66.4734 39.32 66.5054 39.064 66.5054 38.872C66.4414 38.744 66.3454 38.584 66.2174 38.392C66.1534 38.136 66.2494 37.816 66.5054 37.432V37.144C66.7614 35.928 67.0814 34.712 67.4654 33.496C67.9134 32.216 68.3614 30.936 68.8094 29.656C69.8334 26.968 71.7214 25.112 74.4734 24.088C75.1134 23.832 75.6894 23.768 76.2014 23.896C76.7774 23.96 77.2254 24.248 77.5454 24.76C77.7374 25.208 77.7374 25.56 77.5454 25.816C77.4174 26.008 77.1294 26.264 76.6814 26.584C76.4894 26.712 76.2974 26.84 76.1054 26.968C75.9134 27.096 75.6574 27.32 75.3374 27.64C75.0174 27.96 74.6974 28.6 74.3774 29.56C74.6974 29.496 74.9534 29.496 75.1454 29.56C75.4014 29.56 75.5934 29.56 75.7214 29.56C76.5534 29.688 77.0334 29.976 77.1614 30.424C77.3534 30.808 77.6094 31.16 77.9294 31.48C78.2494 31.48 78.6334 31.64 79.0814 31.96C79.5294 32.28 79.9454 32.792 80.3294 33.496C80.7134 34.136 81.0014 35 81.1934 36.088C81.4494 37.176 81.5774 38.456 81.5774 39.928C81.4494 44.856 79.8814 48.792 76.8734 51.736C76.3614 52.248 75.8174 52.568 75.2414 52.696C74.7294 52.824 74.1214 52.984 73.4174 53.176C72.9054 53.368 72.4254 53.464 71.9774 53.464C70.8254 53.464 69.8334 53.112 69.0014 52.408C68.1694 51.704 67.6894 51.224 67.5614 50.968C67.1774 50.136 66.8574 49.368 66.6014 48.664C66.4094 47.896 66.2494 47.128 66.1214 46.36ZM74.2814 35.512C74.1534 35.512 73.9934 35.512 73.8014 35.512C73.6094 35.512 73.3534 35.576 73.0334 35.704C72.8414 37.56 72.7454 39.416 72.7454 41.272C72.7454 42.424 72.8094 43.48 72.9374 44.44C73.0654 45.336 73.2894 46.04 73.6094 46.552C73.6094 46.616 73.6414 46.68 73.7054 46.744C73.7054 46.808 73.7374 46.84 73.8014 46.84C73.9934 46.84 74.1854 46.744 74.3774 46.552C75.0814 45.848 75.6254 44.888 76.0094 43.672C76.4574 42.456 76.6814 41.304 76.6814 40.216C76.6814 38.744 76.5214 37.656 76.2014 36.952C75.9454 36.248 75.3054 35.768 74.2814 35.512ZM164.48 6.904C164.928 6.904 165.248 7.288 165.44 8.056C165.632 8.76 165.888 9.464 166.208 10.168C166.528 11.128 166.688 11.96 166.688 12.664C166.688 13.048 166.656 13.4 166.592 13.72C166.528 13.976 166.464 14.328 166.4 14.776C166.272 15.096 166.24 15.448 166.304 15.832C166.368 16.216 166.304 16.76 166.112 17.464L166.4 18.904L166.016 21.688C165.952 22.584 165.888 23.192 165.824 23.512C165.824 23.832 165.792 24.088 165.728 24.28C165.728 24.408 165.696 24.536 165.632 24.664C165.568 24.792 165.504 25.08 165.44 25.528V26.008C165.44 26.136 165.44 26.296 165.44 26.488C165.504 26.68 165.536 26.872 165.536 27.064C165.536 27.384 165.504 27.672 165.44 27.928C165.376 28.184 165.28 28.344 165.152 28.408L164.96 29.464C164.832 30.744 164.672 32.12 164.48 33.592C164.352 35.064 164.224 36.44 164.096 37.72C163.776 38.68 163.424 39.512 163.04 40.216C162.72 40.92 162.528 41.368 162.464 41.56L161.6 44.056L160.64 45.88C160.256 46.584 159.968 47.256 159.776 47.896C159.584 48.472 159.104 48.92 158.336 49.24C157.888 49.56 157.472 49.752 157.088 49.816C156.704 49.88 156.32 49.912 155.936 49.912C155.424 49.912 155.008 49.752 154.688 49.432C154.432 49.048 154.176 48.664 153.92 48.28L153.824 47.128C153.824 46.808 153.728 46.584 153.536 46.456C153.344 46.264 153.248 45.848 153.248 45.208L153.92 41.656V40.408C153.92 40.28 153.888 40.184 153.824 40.12C153.824 40.056 153.792 39.928 153.728 39.736L154.304 38.584C154.368 37.944 154.432 37.304 154.496 36.664C154.56 36.024 154.752 35.448 155.072 34.936C154.88 34.744 154.784 34.36 154.784 33.784C154.784 33.464 154.848 33.144 154.976 32.824C155.104 32.504 155.232 32.184 155.36 31.864L155.936 30.712C155.936 30.392 155.84 30.104 155.648 29.848C155.456 29.592 155.36 29.4 155.36 29.272C155.36 28.824 155.616 28.408 156.128 28.024C156.192 27.896 156.256 27.832 156.32 27.832C156.384 27.768 156.416 27.704 156.416 27.64V27.544C156.416 27.352 156.512 27.16 156.704 26.968C156.896 26.712 156.992 26.328 156.992 25.816L156.896 24.952V22.744L157.76 19C157.888 18.168 158.016 17.464 158.144 16.888C158.336 16.248 158.432 15.384 158.432 14.296L158.624 12.568C158.688 11.992 158.848 11.512 159.104 11.128V9.88C159.168 9.56 159.36 9.208 159.68 8.824C160.064 8.44 160.48 8.088 160.928 7.768C161.376 7.384 161.824 7.096 162.272 6.904C162.784 6.64799 163.232 6.51999 163.616 6.51999C163.936 6.51999 164.224 6.64799 164.48 6.904ZM131.264 43.672C131.648 43.48 132.256 43.224 133.088 42.904C133.92 42.52 134.848 42.104 135.872 41.656C136.896 41.208 137.952 40.76 139.04 40.312C140.128 39.8 141.12 39.32 142.016 38.872C142.336 38.744 142.656 38.616 142.976 38.488C143.36 38.36 143.712 38.264 144.032 38.2C144.224 38.2 144.576 38.264 145.088 38.392C145.6 38.648 145.952 38.872 146.144 39.064C146.336 39.256 146.464 39.416 146.528 39.544C146.4 40.056 146.272 40.44 146.144 40.696C145.888 40.888 145.76 41.208 145.76 41.656C145.44 41.912 145.12 42.168 144.8 42.424C144.48 42.616 144.224 42.776 144.032 42.904C143.008 43.416 142.048 43.896 141.152 44.344C140.32 44.792 139.264 45.304 137.984 45.88C137.6 46.2 137.312 46.424 137.12 46.552C136.928 46.68 136.736 46.808 136.544 46.936L136.064 46.84C135.808 47.096 135.616 47.256 135.488 47.32C135.168 47.512 134.752 47.704 134.24 47.896C133.792 48.088 133.312 48.28 132.8 48.472C132.288 48.664 131.776 48.856 131.264 49.048C130.816 49.176 130.464 49.272 130.208 49.336L129.92 49.528C129.536 49.656 129.056 49.848 128.48 50.104C127.904 50.36 127.296 50.488 126.656 50.488C125.568 50.488 124.768 50.136 124.256 49.432C123.744 48.728 123.296 47.832 122.912 46.744C122.72 46.36 122.592 45.912 122.528 45.4C122.464 44.888 122.496 44.28 122.624 43.576C122.624 43.32 122.624 42.936 122.624 42.424C122.688 41.848 122.752 41.208 122.816 40.504C122.88 39.288 122.944 37.848 123.008 36.184C123.072 34.52 123.168 33.24 123.296 32.344C123.36 32.024 123.424 31.704 123.488 31.384C123.616 31 123.776 30.648 123.968 30.328C124.096 30.008 124.192 29.688 124.256 29.368C124.384 29.048 124.48 28.696 124.544 28.312C124.672 27.352 124.96 26.744 125.408 26.488C125.92 26.232 126.496 26.04 127.136 25.912H129.056C129.184 26.04 129.344 26.168 129.536 26.296C129.856 26.552 130.08 26.776 130.208 26.968L130.784 27.16C130.912 31.064 130.976 34.424 130.976 37.24C131.04 40.056 131.136 42.2 131.264 43.672ZM149.408 65.368C149.536 63.512 149.888 61.752 150.464 60.088C151.04 58.424 151.68 57.176 152.384 56.344C153.216 55.256 154.4 54.392 155.936 53.752C157.536 53.112 158.88 52.824 159.968 52.888C160.288 52.952 160.64 53.208 161.024 53.656C161.472 54.104 161.888 54.68 162.272 55.384C162.656 56.024 162.976 56.728 163.232 57.496C163.488 58.264 163.648 59 163.712 59.704C163.776 60.984 163.744 62.232 163.616 63.448C163.552 64.6 163.328 65.688 162.944 66.712C162.432 67.928 161.856 68.824 161.216 69.4C160.64 69.976 159.84 70.616 158.816 71.32H157.76C157.568 71.32 157.344 71.32 157.088 71.32C156.896 71.384 156.672 71.416 156.416 71.416C156.096 71.416 155.648 71.512 155.072 71.704C154.816 71.768 154.56 71.832 154.304 71.896C154.048 71.96 153.856 71.992 153.728 71.992C153.344 71.992 152.864 71.736 152.288 71.224C151.776 70.712 151.296 70.104 150.848 69.4C150.4 68.76 150.016 68.056 149.696 67.288C149.44 66.584 149.344 65.944 149.408 65.368ZM141.056 20.056H140C139.68 20.184 139.424 20.184 139.232 20.056C139.04 19.864 138.848 19.768 138.656 19.768C137.888 19.896 137.024 20.088 136.064 20.344C135.168 20.6 134.368 20.856 133.664 21.112L133.184 21.592H132.416C132.224 21.784 132 21.976 131.744 22.168C131.488 22.296 131.2 22.392 130.88 22.456C130.496 22.456 130.112 22.488 129.728 22.552C129.408 22.616 128.928 22.776 128.288 23.032C127.648 23.224 126.816 23.512 125.792 23.896C124.768 24.28 123.424 24.76 121.76 25.336C121.44 25.336 121.248 25.336 121.184 25.336C121.12 25.272 121.024 25.176 120.896 25.048C120.704 25.048 120.416 25.112 120.032 25.24C119.712 25.368 119.424 25.432 119.168 25.432C118.912 25.432 118.624 25.304 118.304 25.048C118.112 24.92 117.856 24.696 117.536 24.376C117.216 24.056 117.12 23.64 117.248 23.128C117.312 22.744 117.696 22.264 118.4 21.688C119.104 21.048 119.84 20.568 120.608 20.248C123.936 19.032 127.264 17.944 130.592 16.984C133.984 16.024 137.216 15.256 140.288 14.68C140.608 14.616 140.832 14.584 140.96 14.584C141.152 14.52 141.376 14.552 141.632 14.68C141.76 14.68 141.888 14.712 142.016 14.776C142.208 14.776 142.336 14.776 142.4 14.776C142.912 15.544 143.168 16.088 143.168 16.408C143.168 16.664 143.136 16.984 143.072 17.368L142.784 18.52C142.656 18.648 142.496 18.808 142.304 19C142.176 19.128 142.048 19.32 141.92 19.576L141.056 20.056ZM147.2 29.848C146.816 29.848 146.4 29.752 145.952 29.56C145.056 29.816 143.968 30.2 142.688 30.712C141.408 31.16 140.416 31.544 139.712 31.864L135.776 33.496L135.2 33.208L134.624 33.304C134.496 33.304 134.208 33.24 133.76 33.112C133.312 32.92 133.088 32.312 133.088 31.288C133.088 30.968 133.184 30.616 133.376 30.232C133.568 29.848 133.888 29.528 134.336 29.272C135.104 28.824 136.032 28.376 137.12 27.928C138.208 27.416 139.296 26.968 140.384 26.584C141.536 26.136 142.656 25.752 143.744 25.432C144.896 25.112 145.92 24.856 146.816 24.664L147.296 24.568C147.936 24.568 148.384 24.792 148.64 25.24C148.896 25.624 149.024 26.008 149.024 26.392C149.024 26.904 148.864 27.48 148.544 28.12C148.48 28.248 148.384 28.408 148.256 28.6C148.192 28.792 148.096 29.048 147.968 29.368L147.2 29.848ZM158.336 58.552C157.696 58.552 157.152 58.808 156.704 59.32C156.256 59.768 155.904 60.344 155.648 61.048C155.904 61.304 156.096 61.72 156.224 62.296C156.224 62.616 156.16 62.968 156.032 63.352C155.904 63.736 155.904 64.088 156.032 64.408C156.032 64.536 156.128 64.856 156.32 65.368C156.512 65.88 156.832 66.2 157.28 66.328C157.472 65.944 157.664 65.496 157.856 64.984C158.112 64.408 158.336 63.8 158.528 63.16C158.72 62.52 158.88 61.88 159.008 61.24C159.136 60.6 159.168 60.024 159.104 59.512C159.104 58.872 158.848 58.552 158.336 58.552ZM194.779 3.16C195.227 4.056 195.451 5.112 195.451 6.328C195.451 7.224 195.355 8.088 195.163 8.92C194.971 9.688 194.747 10.424 194.491 11.128C194.363 11.512 194.267 11.896 194.203 12.28C194.139 12.6 194.043 12.952 193.915 13.336C193.211 16.216 192.699 18.328 192.379 19.672C192.059 20.952 191.835 21.88 191.707 22.456C191.515 23.288 191.355 23.992 191.227 24.568C191.099 25.144 191.035 25.752 191.035 26.392V27.448C190.651 27.832 190.331 28.504 190.075 29.464C189.883 30.424 189.691 31.384 189.499 32.344C189.371 32.728 189.275 33.112 189.211 33.496C189.211 33.816 189.179 34.136 189.115 34.456C188.795 34.968 188.507 35.48 188.251 35.992C188.059 36.504 187.867 36.952 187.675 37.336C187.419 37.784 187.227 38.232 187.099 38.68L187.579 38.968C187.323 39.864 187.003 40.504 186.619 40.888C186.235 41.208 185.787 41.496 185.275 41.752C185.147 41.816 185.019 41.88 184.891 41.944C184.827 42.008 184.923 42.168 185.179 42.424C184.603 43 184.155 43.352 183.835 43.48C183.579 43.544 183.323 43.576 183.067 43.576C181.339 43.576 180.315 43.224 179.995 42.52C179.739 41.816 179.611 40.856 179.611 39.64C179.611 38.808 179.675 37.976 179.803 37.144C179.995 36.248 180.187 35.448 180.379 34.744C180.507 34.168 180.635 33.72 180.763 33.4C180.891 33.016 180.955 32.76 180.955 32.632C180.507 32.44 180.283 32.12 180.283 31.672C180.283 31.16 180.379 30.808 180.571 30.616C180.827 30.36 181.083 30.072 181.339 29.752L181.051 29.272L181.339 28.12C181.467 27.672 181.627 27.16 181.819 26.584C182.011 25.944 182.043 25.24 181.915 24.472C182.235 24.024 182.491 23.512 182.683 22.936C182.939 22.36 183.131 21.816 183.259 21.304C183.323 20.664 183.515 20.088 183.835 19.576C184.027 18.936 184.219 18.168 184.411 17.272C184.667 16.184 184.955 15.032 185.275 13.816C185.659 12.536 186.299 11.384 187.195 10.36C187.195 10.04 187.227 9.656 187.291 9.20799C187.419 8.76 187.675 8.088 188.059 7.192C188.123 7.064 188.155 6.936 188.155 6.808C188.219 6.616 188.315 6.23199 188.443 5.65599C188.699 5.144 188.923 4.824 189.115 4.696C189.371 4.568 189.627 4.44 189.883 4.31199C190.267 3.99199 190.619 3.608 190.939 3.16C191.323 2.648 191.515 2.296 191.515 2.10399C192.411 2.232 192.987 2.328 193.243 2.392C193.499 2.392 193.723 2.456 193.915 2.584L194.779 3.16ZM184.027 67.192C183.707 67.192 183.387 67.256 183.067 67.384C182.811 67.512 182.523 67.64 182.203 67.768C181.499 68.152 180.859 68.344 180.283 68.344C179.451 68.344 178.683 68.152 177.979 67.768C177.275 67.448 176.923 66.904 176.923 66.136C176.923 65.816 176.923 65.432 176.923 64.984C176.987 64.536 177.019 64.056 177.019 63.544C177.083 63.032 177.115 62.296 177.115 61.336C177.115 60.376 177.115 59.448 177.115 58.552L177.787 57.976C177.787 57.656 177.851 57.432 177.979 57.304C178.107 57.112 178.331 56.92 178.651 56.728L179.035 56.344C179.035 56.216 179.035 56.088 179.035 55.96C179.035 55.832 178.971 55.608 178.843 55.288C179.099 55.032 179.387 54.808 179.707 54.616C180.091 54.424 180.411 54.328 180.667 54.328V53.464H182.395L183.259 53.368C183.835 53.368 184.219 53.56 184.411 53.944C184.667 54.264 184.859 54.616 184.987 55C185.179 55.192 185.563 55.288 186.139 55.288C186.139 56.184 186.107 56.92 186.043 57.496C186.043 58.072 186.011 58.552 185.947 58.936C185.883 59.32 185.787 59.672 185.659 59.992C185.595 60.248 185.531 60.536 185.467 60.856C185.339 61.496 185.211 62.104 185.083 62.68C184.955 63.256 184.891 63.896 184.891 64.6C184.891 64.728 184.891 64.92 184.891 65.176C184.891 65.432 184.923 65.72 184.987 66.04L184.027 67.192ZM221.685 3.16C222.133 4.056 222.357 5.112 222.357 6.328C222.357 7.224 222.261 8.088 222.069 8.92C221.877 9.688 221.653 10.424 221.397 11.128C221.269 11.512 221.173 11.896 221.109 12.28C221.045 12.6 220.949 12.952 220.821 13.336C220.117 16.216 219.605 18.328 219.285 19.672C218.965 20.952 218.741 21.88 218.613 22.456C218.421 23.288 218.261 23.992 218.133 24.568C218.005 25.144 217.941 25.752 217.941 26.392V27.448C217.557 27.832 217.237 28.504 216.981 29.464C216.789 30.424 216.597 31.384 216.405 32.344C216.277 32.728 216.181 33.112 216.117 33.496C216.117 33.816 216.085 34.136 216.021 34.456C215.701 34.968 215.413 35.48 215.157 35.992C214.965 36.504 214.773 36.952 214.581 37.336C214.325 37.784 214.133 38.232 214.005 38.68L214.485 38.968C214.229 39.864 213.909 40.504 213.525 40.888C213.141 41.208 212.693 41.496 212.181 41.752C212.053 41.816 211.925 41.88 211.797 41.944C211.733 42.008 211.829 42.168 212.085 42.424C211.509 43 211.061 43.352 210.741 43.48C210.485 43.544 210.229 43.576 209.973 43.576C208.245 43.576 207.221 43.224 206.901 42.52C206.645 41.816 206.517 40.856 206.517 39.64C206.517 38.808 206.581 37.976 206.709 37.144C206.901 36.248 207.093 35.448 207.285 34.744C207.413 34.168 207.541 33.72 207.669 33.4C207.797 33.016 207.861 32.76 207.861 32.632C207.413 32.44 207.189 32.12 207.189 31.672C207.189 31.16 207.285 30.808 207.477 30.616C207.733 30.36 207.989 30.072 208.245 29.752L207.957 29.272L208.245 28.12C208.373 27.672 208.533 27.16 208.725 26.584C208.917 25.944 208.949 25.24 208.821 24.472C209.141 24.024 209.397 23.512 209.589 22.936C209.845 22.36 210.037 21.816 210.165 21.304C210.229 20.664 210.421 20.088 210.741 19.576C210.933 18.936 211.125 18.168 211.317 17.272C211.573 16.184 211.861 15.032 212.181 13.816C212.565 12.536 213.205 11.384 214.101 10.36C214.101 10.04 214.133 9.656 214.197 9.20799C214.325 8.76 214.581 8.088 214.965 7.192C215.029 7.064 215.061 6.936 215.061 6.808C215.125 6.616 215.221 6.23199 215.349 5.65599C215.605 5.144 215.829 4.824 216.021 4.696C216.277 4.568 216.533 4.44 216.789 4.31199C217.173 3.99199 217.525 3.608 217.845 3.16C218.229 2.648 218.421 2.296 218.421 2.10399C219.317 2.232 219.893 2.328 220.149 2.392C220.405 2.392 220.629 2.456 220.821 2.584L221.685 3.16ZM210.933 67.192C210.613 67.192 210.293 67.256 209.973 67.384C209.717 67.512 209.429 67.64 209.109 67.768C208.405 68.152 207.765 68.344 207.189 68.344C206.357 68.344 205.589 68.152 204.885 67.768C204.181 67.448 203.829 66.904 203.829 66.136C203.829 65.816 203.829 65.432 203.829 64.984C203.893 64.536 203.925 64.056 203.925 63.544C203.989 63.032 204.021 62.296 204.021 61.336C204.021 60.376 204.021 59.448 204.021 58.552L204.693 57.976C204.693 57.656 204.757 57.432 204.885 57.304C205.013 57.112 205.237 56.92 205.557 56.728L205.941 56.344C205.941 56.216 205.941 56.088 205.941 55.96C205.941 55.832 205.877 55.608 205.749 55.288C206.005 55.032 206.293 54.808 206.613 54.616C206.997 54.424 207.317 54.328 207.573 54.328V53.464H209.301L210.165 53.368C210.741 53.368 211.125 53.56 211.317 53.944C211.573 54.264 211.765 54.616 211.893 55C212.085 55.192 212.469 55.288 213.045 55.288C213.045 56.184 213.013 56.92 212.949 57.496C212.949 58.072 212.917 58.552 212.853 58.936C212.789 59.32 212.693 59.672 212.565 59.992C212.501 60.248 212.437 60.536 212.373 60.856C212.245 61.496 212.117 62.104 211.989 62.68C211.861 63.256 211.797 63.896 211.797 64.6C211.797 64.728 211.797 64.92 211.797 65.176C211.797 65.432 211.829 65.72 211.893 66.04L210.933 67.192ZM252.623 23.224C252.751 25.08 252.879 26.904 253.007 28.696C253.135 30.424 253.359 31.928 253.679 33.208C255.471 31.864 257.167 30.424 258.767 28.888C260.367 27.352 261.935 25.816 263.471 24.28L264.527 24.184L265.103 23.608L266.543 23.128C267.631 22.552 268.591 22.136 269.423 21.88C270.255 21.624 271.215 21.56 272.303 21.688C273.583 21.944 274.607 22.744 275.375 24.088C276.207 25.368 276.623 27.512 276.623 30.52C276.623 32.568 276.111 34.648 275.087 36.76C274.127 38.872 273.007 40.664 271.727 42.136L269.519 45.016L268.271 46.168C267.439 47.256 266.415 48.504 265.199 49.912C264.047 51.256 262.799 52.632 261.455 54.04C260.175 55.384 258.863 56.728 257.519 58.072C256.175 59.416 254.927 60.568 253.775 61.528C253.519 61.784 253.263 62.104 253.007 62.488C252.815 62.808 252.591 63.288 252.335 63.928C252.335 64.056 252.303 64.376 252.239 64.888C252.175 65.4 252.015 65.816 251.759 66.136C251.311 66.648 250.863 67.064 250.415 67.384C249.967 67.704 249.391 67.864 248.687 67.864C247.343 67.864 246.447 67.544 245.999 66.904L243.599 63.544C242.703 62.52 241.711 61.208 240.623 59.608C239.535 58.008 238.639 56.376 237.935 54.712C237.807 54.52 237.647 54.296 237.455 54.04C237.263 53.72 237.103 53.464 236.975 53.272L236.783 52.024C236.079 50.616 235.439 48.952 234.863 47.032C234.351 45.048 233.871 43 233.423 40.888L233.135 39.16C232.943 37.88 232.751 36.632 232.559 35.416C232.431 34.136 232.367 32.856 232.367 31.576C232.367 28.248 232.559 25.4 232.943 23.032C233.391 20.664 233.935 18.712 234.575 17.176C235.023 16.152 235.791 14.968 236.879 13.624C237.967 12.216 239.055 11.16 240.143 10.456L241.103 9.784C241.807 9.272 242.543 8.792 243.311 8.344C244.079 7.832 244.975 7.576 245.999 7.576C246.191 7.576 246.447 7.64 246.767 7.768C247.151 7.832 247.503 7.99199 247.823 8.248C247.951 8.312 248.143 8.408 248.399 8.536C248.655 8.664 248.847 8.72799 248.975 8.72799C249.679 9.04799 250.255 9.688 250.703 10.648C251.151 11.544 251.503 12.664 251.759 14.008C252.015 15.288 252.175 16.728 252.239 18.328C252.367 19.928 252.495 21.56 252.623 23.224ZM308.311 23.224C308.439 25.08 308.567 26.904 308.695 28.696C308.823 30.424 309.047 31.928 309.367 33.208C311.159 31.864 312.855 30.424 314.455 28.888C316.055 27.352 317.623 25.816 319.159 24.28L320.215 24.184L320.791 23.608L322.231 23.128C323.319 22.552 324.279 22.136 325.111 21.88C325.943 21.624 326.903 21.56 327.991 21.688C329.271 21.944 330.295 22.744 331.063 24.088C331.895 25.368 332.311 27.512 332.311 30.52C332.311 32.568 331.799 34.648 330.775 36.76C329.815 38.872 328.695 40.664 327.415 42.136L325.207 45.016L323.959 46.168C323.127 47.256 322.103 48.504 320.887 49.912C319.735 51.256 318.487 52.632 317.143 54.04C315.863 55.384 314.551 56.728 313.207 58.072C311.863 59.416 310.615 60.568 309.463 61.528C309.207 61.784 308.951 62.104 308.695 62.488C308.503 62.808 308.279 63.288 308.023 63.928C308.023 64.056 307.991 64.376 307.927 64.888C307.863 65.4 307.703 65.816 307.447 66.136C306.999 66.648 306.551 67.064 306.103 67.384C305.655 67.704 305.079 67.864 304.375 67.864C303.031 67.864 302.135 67.544 301.687 66.904L299.287 63.544C298.391 62.52 297.399 61.208 296.311 59.608C295.223 58.008 294.327 56.376 293.623 54.712C293.495 54.52 293.335 54.296 293.143 54.04C292.951 53.72 292.791 53.464 292.663 53.272L292.471 52.024C291.767 50.616 291.127 48.952 290.551 47.032C290.039 45.048 289.559 43 289.111 40.888L288.823 39.16C288.631 37.88 288.439 36.632 288.247 35.416C288.119 34.136 288.055 32.856 288.055 31.576C288.055 28.248 288.247 25.4 288.631 23.032C289.079 20.664 289.623 18.712 290.263 17.176C290.711 16.152 291.479 14.968 292.567 13.624C293.655 12.216 294.743 11.16 295.831 10.456L296.791 9.784C297.495 9.272 298.231 8.792 298.999 8.344C299.767 7.832 300.663 7.576 301.687 7.576C301.879 7.576 302.135 7.64 302.455 7.768C302.839 7.832 303.191 7.99199 303.511 8.248C303.639 8.312 303.831 8.408 304.087 8.536C304.343 8.664 304.535 8.72799 304.663 8.72799C305.367 9.04799 305.943 9.688 306.391 10.648C306.839 11.544 307.191 12.664 307.447 14.008C307.703 15.288 307.863 16.728 307.927 18.328C308.055 19.928 308.183 21.56 308.311 23.224ZM363.998 23.224C364.126 25.08 364.254 26.904 364.382 28.696C364.51 30.424 364.734 31.928 365.054 33.208C366.846 31.864 368.542 30.424 370.142 28.888C371.742 27.352 373.31 25.816 374.846 24.28L375.902 24.184L376.478 23.608L377.918 23.128C379.006 22.552 379.966 22.136 380.798 21.88C381.63 21.624 382.59 21.56 383.678 21.688C384.958 21.944 385.982 22.744 386.75 24.088C387.582 25.368 387.998 27.512 387.998 30.52C387.998 32.568 387.486 34.648 386.462 36.76C385.502 38.872 384.382 40.664 383.102 42.136L380.894 45.016L379.646 46.168C378.814 47.256 377.79 48.504 376.574 49.912C375.422 51.256 374.174 52.632 372.83 54.04C371.55 55.384 370.238 56.728 368.894 58.072C367.55 59.416 366.302 60.568 365.15 61.528C364.894 61.784 364.638 62.104 364.382 62.488C364.19 62.808 363.966 63.288 363.71 63.928C363.71 64.056 363.678 64.376 363.614 64.888C363.55 65.4 363.39 65.816 363.134 66.136C362.686 66.648 362.238 67.064 361.79 67.384C361.342 67.704 360.766 67.864 360.062 67.864C358.718 67.864 357.822 67.544 357.374 66.904L354.974 63.544C354.078 62.52 353.086 61.208 351.998 59.608C350.91 58.008 350.014 56.376 349.31 54.712C349.182 54.52 349.022 54.296 348.83 54.04C348.638 53.72 348.478 53.464 348.35 53.272L348.158 52.024C347.454 50.616 346.814 48.952 346.238 47.032C345.726 45.048 345.246 43 344.798 40.888L344.51 39.16C344.318 37.88 344.126 36.632 343.934 35.416C343.806 34.136 343.742 32.856 343.742 31.576C343.742 28.248 343.934 25.4 344.318 23.032C344.766 20.664 345.31 18.712 345.95 17.176C346.398 16.152 347.166 14.968 348.254 13.624C349.342 12.216 350.43 11.16 351.518 10.456L352.478 9.784C353.182 9.272 353.918 8.792 354.686 8.344C355.454 7.832 356.35 7.576 357.374 7.576C357.566 7.576 357.822 7.64 358.142 7.768C358.526 7.832 358.878 7.99199 359.198 8.248C359.326 8.312 359.518 8.408 359.774 8.536C360.03 8.664 360.222 8.72799 360.35 8.72799C361.054 9.04799 361.63 9.688 362.078 10.648C362.526 11.544 362.878 12.664 363.134 14.008C363.39 15.288 363.55 16.728 363.614 18.328C363.742 19.928 363.87 21.56 363.998 23.224Z" fill="#5B2386"/>
</svg>
