<svg width="64" height="72" viewBox="0 0 64 72" fill="none" xmlns="http://www.w3.org/2000/svg">
<path d="M31.577 34.9133C31.0929 33.3336 31.8729 31.756 33.0739 31.1549C34.3804 30.5009 36.4026 30.5989 37.6021 32.9315C37.1696 31.166 38.1622 29.7228 39.3132 29.2037C40.6877 28.5831 42.6379 28.9958 43.6686 31.0672C43.5829 30.4987 43.5302 30.0029 43.6502 29.5122C43.9581 28.2552 44.75 27.4332 45.9855 27.1504C47.3797 26.832 48.5204 27.3638 49.3127 28.5415C50.0803 29.6821 50.7796 30.8706 51.5019 32.0419C52.3006 33.3362 53.1116 34.6228 53.7726 35.9989C54.571 37.66 55.1738 39.3846 55.6307 41.1716C56.4218 44.2684 56.4041 47.4007 56.1702 50.5451C56.0694 51.8985 55.4168 52.9821 54.2895 53.7108C52.0778 55.1407 49.8477 56.5441 47.6018 57.9202C46.9446 58.3226 46.1721 58.4609 45.4005 58.5284C43.4502 58.6995 41.5376 58.4304 39.6366 58.0106C35.8375 57.1715 32.3161 55.6091 28.9012 53.7763C27.2587 52.8948 25.6274 51.9923 24.0511 50.9932C22.1605 49.7945 22.0841 47.0607 23.9274 45.8259C24.9751 45.1247 26.0906 45.122 27.185 45.7224C28.7117 46.5593 30.2169 47.4363 31.732 48.295C31.8989 48.3896 32.0768 48.489 32.2505 48.315C32.4736 48.0919 32.2932 47.8973 32.1803 47.7157C30.9671 45.7687 29.7477 43.826 28.5316 41.8807C25.5899 37.1746 22.6463 32.4692 19.7081 27.7612C18.6715 26.0998 19.1237 24.2098 20.7813 23.2144C22.0568 22.4487 23.9289 22.85 24.7938 24.1457C25.7621 25.5971 26.665 27.0925 27.5931 28.5706C28.8659 30.5981 30.1353 32.6282 31.4064 34.6569C31.4518 34.731 31.5028 34.803 31.577 34.9133Z" fill="#FCEE21"/>
<path d="M22.9534 18.1154C22.8519 17.8792 22.8737 17.6133 22.9346 17.348C23.3029 15.7363 23.6682 14.1241 24.0432 12.5135C24.204 11.8221 24.8118 11.4219 25.4901 11.5383C26.1014 11.643 26.5654 12.2593 26.4621 12.9351C26.3468 13.6847 26.1606 14.4233 26.0005 15.1657C25.8071 16.0613 25.6143 16.9567 25.4087 17.8494C25.2228 18.6563 24.6838 19.0655 23.9575 18.9735C23.4841 18.9144 23.1247 18.6129 22.9534 18.1154Z" fill="#FCEE21"/>
<path d="M15.2421 23.6719C15.4062 24.167 15.2857 24.5746 14.9851 24.9455C14.6483 25.361 14.1971 25.4294 13.7168 25.3236C12.4996 25.0546 11.2878 24.7646 10.0732 24.4826C9.6937 24.3946 9.31137 24.3168 8.93612 24.2145C8.19897 24.0137 7.79495 23.391 7.94123 22.7025C8.07813 22.0542 8.73095 21.627 9.45711 21.7817C11.1002 22.1319 12.7368 22.5142 14.3743 22.8913C14.8102 22.9912 15.0835 23.2889 15.2421 23.6719Z" fill="#FCEE21"/>
<path d="M29.8147 22.6457C29.1857 22.8597 28.5527 22.6087 28.2795 22.0781C27.9654 21.4683 28.0879 20.8436 28.6452 20.4836C30.0725 19.5621 31.5065 18.6497 32.9531 17.7593C33.5899 17.3675 34.2892 17.5571 34.6687 18.162C35.0182 18.7189 34.872 19.4323 34.268 19.8291C32.8573 20.7556 31.4286 21.6547 30.0049 22.5621C29.9301 22.6094 29.8425 22.634 29.8147 22.6457Z" fill="#FCEE21"/>
<path d="M18.929 18.3901C19.1397 19.0014 18.9069 19.6337 18.4169 19.8921C17.8334 20.1993 17.1486 20.0659 16.8124 19.5414C15.8716 18.0733 14.9396 16.6001 14.0185 15.1195C13.6543 14.5342 13.8386 13.8005 14.4017 13.4428C14.9857 13.0721 15.6802 13.2085 16.0659 13.8092C16.9963 15.2573 17.9094 16.7165 18.8268 18.172C18.8805 18.2559 18.9129 18.3536 18.929 18.3901Z" fill="#FCEE21"/>
<path d="M9.73371 33.5799C9.54254 33.0373 9.74439 32.4727 10.2981 32.1103C11.3201 31.4429 12.3529 30.7925 13.3816 30.1363C13.7462 29.9034 14.1093 29.6682 14.4795 29.4433C15.0944 29.0698 15.8093 29.2369 16.2018 29.8366C16.5725 30.404 16.4139 31.1202 15.7949 31.5265C14.8213 32.1665 13.8342 32.7855 12.8527 33.4126C12.4227 33.6873 11.9933 33.9639 11.5599 34.2327C10.8686 34.6611 10.0049 34.3497 9.73371 33.5799Z" fill="#FCEE21"/>
</svg>
