<svg width="433" height="337" viewBox="0 0 433 337" fill="none" xmlns="http://www.w3.org/2000/svg">
<g clip-path="url(#clip0_1_419)">
<g clip-path="url(#clip1_1_419)">
<path d="M188.37 81.65C188.37 81.65 192.69 60.55 188.54 79.85C188.54 79.85 178.31 47.47 160.1 51.41C144.69 54.75 144.67 80.33 144.67 80.33C144.67 80.33 127.28 61.35 112.61 72.03C93.32 86.08 109.58 115.26 109.58 115.26C84.58 112.91 92.09 134.24 92.09 134.24C92.09 134.24 60.94 122.05 53.76 142.63C46.34 163.89 70.01 174.44 70.01 174.44C70.01 174.44 42.73 176.19 43.05 196.61C43.37 217.03 67.57 219.74 67.57 219.74C67.57 219.74 38.12 229.03 44.54 249.29C49.17 263.92 77.35 258.5 77.35 258.5C77.35 258.5 58.86 277.33 66.42 290.88C72.16 301.17 93.94 293.99 93.94 293.99C93.94 293.99 84.21 319.27 96.49 326.13C108.77 332.99 124.25 312.41 124.25 312.41C124.25 312.41 118.56 327.89 129.4 334.83C141.36 342.49 151.52 326.4 151.52 326.4L273.93 325.34C273.93 325.34 284.03 341.04 296.25 334.3C308.9 327.33 302.27 310.81 302.27 310.81C302.27 310.81 317.82 320.73 329.39 316.23C346.62 309.53 333.94 281.05 333.94 281.05C333.94 281.05 358.11 291.82 367.02 274.31C373.04 262.49 355.23 248.26 355.23 248.26C355.23 248.26 376.05 247.3 379.73 233.66C383.42 220.02 360.47 208.74 360.01 208.77C360.01 208.77 386.1 207.14 384.79 187.56C383.3 165.36 353.79 171.68 353.79 171.68C363.92 152.85 344.22 151.74 344.22 151.74C344.22 151.74 363.68 129.09 353.31 115.69C342.94 102.29 321.25 113.94 321.25 113.94C321.25 113.94 333.85 86.02 316.46 71.51C297.28 55.49 272.75 78.53 272.75 78.53C272.75 78.53 277.34 51.33 261.42 47.42C242.18 42.69 236.21 70.87 236.21 70.87C236.21 70.87 235.57 44.07 217.07 44.87C198.57 45.67 200.64 77.41 200.64 77.41C190.75 66.48 188.52 79.8 188.52 79.8L188.37 81.65Z" fill="#DF5F14"/>
<path d="M255.25 294.19H147.5V351.62H255.25V294.19Z" fill="white"/>
<path d="M224.86 255.07C219.59 254.11 214.7 251.18 212.3 246.36C217.83 246.16 222.26 241.67 222.26 237.57C222.26 233.36 217.63 230.56 211.92 230.56C206.2 230.56 201.58 233.36 201.58 237.57C201.58 241.68 206 246.17 211.54 246.36C209.14 251.18 204.25 254.1 198.98 255.07C198.98 255.07 200.62 267.79 211.92 267.79C223.22 267.79 224.86 255.07 224.86 255.07ZM101.12 280.34C95.34 273.04 91.07 265 88.48 256.34C86.56 249.94 85.57 243.21 85.57 236.22C85.57 214.68 95.04 194.9 111.73 179.32C110.43 166.74 109.07 133.72 129.4 126.73C147.84 120.38 163.5 139.17 170.6 149.77C172.94 149.23 175.32 148.74 177.73 148.3C179.73 158.61 185.97 175.62 205.44 181.43C225.79 187.5 242.17 176.65 242.17 176.65C237.77 174.8 234.43 172.13 231.93 169.39C244.63 171.37 255.88 164.62 255.88 164.62C248.56 160.45 245.64 153.33 244.47 148.01C247.44 148.53 250.37 149.12 253.23 149.77C260.34 139.17 276 120.38 294.43 126.73C314.76 133.72 313.4 166.74 312.1 179.32C328.8 194.9 338.26 214.69 338.26 236.22C338.26 286.47 286.88 322.93 211.91 322.93C161.49 322.92 121.73 306.43 101.12 280.34ZM241.26 223.51C241.26 218.46 237.16 214.35 232.11 214.35C227.05 214.35 222.95 218.46 222.95 223.51C222.95 228.56 227.05 232.66 232.11 232.66C237.16 232.66 241.26 228.57 241.26 223.51ZM200.89 223.51C200.89 218.46 196.79 214.35 191.73 214.35C186.68 214.35 182.58 218.46 182.58 223.51C182.58 228.56 186.68 232.66 191.73 232.66C196.79 232.66 200.89 228.57 200.89 223.51Z" fill="#F5D975"/>
<path d="M232.11 214.35C237.16 214.35 241.26 218.46 241.26 223.51C241.26 228.56 237.16 232.66 232.11 232.66C227.05 232.66 222.95 228.56 222.95 223.51C222.95 218.46 227.05 214.35 232.11 214.35ZM238.06 226.53C238.06 224.6 236.49 223.04 234.56 223.04C232.63 223.04 231.07 224.61 231.07 226.53C231.07 228.46 232.64 230.03 234.56 230.03C236.49 230.03 238.06 228.46 238.06 226.53ZM232.38 219.82C232.38 218.36 231.2 217.18 229.74 217.18C228.28 217.18 227.1 218.36 227.1 219.82C227.1 221.29 228.28 222.47 229.74 222.47C231.2 222.47 232.38 221.29 232.38 219.82Z" fill="#231815"/>
<path d="M234.56 223.04C236.49 223.04 238.06 224.61 238.06 226.53C238.06 228.46 236.49 230.03 234.56 230.03C232.63 230.03 231.07 228.46 231.07 226.53C231.06 224.6 232.63 223.04 234.56 223.04Z" fill="white"/>
<path d="M229.74 217.18C231.2 217.18 232.38 218.36 232.38 219.82C232.38 221.29 231.2 222.47 229.74 222.47C228.28 222.47 227.1 221.29 227.1 219.82C227.1 218.37 228.29 217.18 229.74 217.18Z" fill="white"/>
<path d="M224.86 255.07C224.86 255.07 223.22 267.79 211.92 267.79C200.61 267.79 198.98 255.07 198.98 255.07C204.25 254.11 209.14 251.18 211.54 246.36C211.67 246.37 211.8 246.37 211.92 246.37C212.05 246.37 212.18 246.37 212.3 246.36C214.71 251.19 219.6 254.11 224.86 255.07Z" fill="#D45055"/>
<path d="M211.92 230.56C217.63 230.56 222.26 233.36 222.26 237.57C222.26 241.68 217.83 246.17 212.3 246.36C212.16 246.09 212.04 245.81 211.92 245.53C211.8 245.81 211.67 246.08 211.54 246.36C206 246.16 201.58 241.67 201.58 237.57C201.58 233.36 206.2 230.56 211.92 230.56Z" fill="#231815"/>
<path d="M212.3 246.36C212.17 246.37 212.04 246.37 211.92 246.37C211.79 246.37 211.66 246.37 211.54 246.36C211.68 246.09 211.8 245.81 211.92 245.53C212.04 245.82 212.17 246.09 212.3 246.36Z" fill="#231815"/>
<path d="M191.73 214.35C196.79 214.35 200.89 218.46 200.89 223.51C200.89 228.56 196.79 232.66 191.73 232.66C186.68 232.66 182.58 228.56 182.58 223.51C182.58 218.46 186.68 214.35 191.73 214.35ZM197.4 226.53C197.4 224.6 195.83 223.04 193.9 223.04C191.97 223.04 190.41 224.61 190.41 226.53C190.41 228.46 191.98 230.03 193.9 230.03C195.83 230.03 197.4 228.46 197.4 226.53ZM191.73 219.82C191.73 218.36 190.55 217.18 189.09 217.18C187.63 217.18 186.45 218.36 186.45 219.82C186.45 221.29 187.63 222.47 189.09 222.47C190.55 222.47 191.73 221.29 191.73 219.82Z" fill="#231815"/>
<path d="M193.9 223.04C195.83 223.04 197.4 224.61 197.4 226.53C197.4 228.46 195.83 230.03 193.9 230.03C191.97 230.03 190.41 228.46 190.41 226.53C190.41 224.6 191.97 223.04 193.9 223.04Z" fill="white"/>
<path d="M189.09 217.18C190.55 217.18 191.73 218.36 191.73 219.82C191.73 221.29 190.55 222.47 189.09 222.47C187.63 222.47 186.45 221.29 186.45 219.82C186.45 218.37 187.63 217.18 189.09 217.18Z" fill="white"/>
<path d="M177.74 148.28C175.33 148.72 172.95 149.22 170.61 149.75C163.5 139.15 147.84 120.36 129.41 126.71C109.08 133.7 110.44 166.72 111.74 179.3C95.04 194.88 85.58 214.67 85.58 236.2C85.58 243.19 86.58 249.93 88.49 256.32C91.08 264.98 95.35 273.02 101.13 280.32C121.74 306.41 161.5 322.9 211.93 322.9C286.9 322.9 338.28 286.44 338.28 236.19C338.28 214.65 328.81 194.87 312.12 179.29C313.42 166.71 314.78 133.69 294.45 126.7C276.01 120.35 260.35 139.14 253.25 149.74C250.39 149.08 247.46 148.5 244.49 147.98" stroke="#231815" stroke-width="8" stroke-miterlimit="10" stroke-linecap="round" stroke-linejoin="round"/>
<path d="M118.82 243.05L88.48 256.34" stroke="#231815" stroke-width="8" stroke-miterlimit="10" stroke-linecap="round" stroke-linejoin="round"/>
<path d="M101.12 280.34L129.46 264.42" stroke="#231815" stroke-width="8" stroke-miterlimit="10" stroke-linecap="round" stroke-linejoin="round"/>
<path d="M304.91 243.05L335.25 256.34" stroke="#231815" stroke-width="8" stroke-miterlimit="10" stroke-linecap="round" stroke-linejoin="round"/>
<path d="M322.62 280.34L294.27 264.42" stroke="#231815" stroke-width="8" stroke-miterlimit="10" stroke-linecap="round" stroke-linejoin="round"/>
<path d="M136.26 144.7C136.26 144.7 145.09 150 144.77 164.6" stroke="#231815" stroke-width="8" stroke-miterlimit="10" stroke-linecap="round" stroke-linejoin="round"/>
<path d="M287.58 144.7C287.58 144.7 278.75 150 279.07 164.6" stroke="#231815" stroke-width="8" stroke-miterlimit="10" stroke-linecap="round" stroke-linejoin="round"/>
<path d="M211.92 245.54C211.8 245.82 211.67 246.09 211.54 246.37C209.14 251.19 204.25 254.11 198.98 255.08C195.94 255.63 192.78 255.53 189.9 254.76C184.18 253.23 179.75 249.31 177.06 244.08" stroke="#231815" stroke-width="8" stroke-miterlimit="10" stroke-linecap="round" stroke-linejoin="round"/>
<path d="M211.92 245.54C212.04 245.82 212.17 246.09 212.3 246.37C214.7 251.19 219.59 254.11 224.86 255.08C227.9 255.63 231.06 255.53 233.94 254.76C239.66 253.23 244.08 249.31 246.78 244.08" stroke="#231815" stroke-width="8" stroke-miterlimit="10" stroke-linecap="round" stroke-linejoin="round"/>
<path d="M225.24 158.12C225.24 158.12 226.9 163.89 231.93 169.37C234.43 172.11 237.77 174.78 242.17 176.63C242.17 176.63 225.79 187.48 205.44 181.41C185.97 175.61 179.74 158.59 177.73 148.28C176.78 143.42 176.78 140.04 176.78 140.04" stroke="#231815" stroke-width="8" stroke-miterlimit="10" stroke-linecap="round" stroke-linejoin="round"/>
<path d="M243.72 141.08C243.72 141.08 243.61 144.04 244.47 147.99C245.64 153.31 248.56 160.43 255.88 164.6C255.88 164.6 244.63 171.35 231.93 169.37" stroke="#231815" stroke-width="8" stroke-miterlimit="10" stroke-linecap="round" stroke-linejoin="round"/>
<path d="M70.51 103.29C70.51 103.29 89.13 108.27 99.24 124.79" stroke="#231815" stroke-width="8" stroke-miterlimit="10" stroke-linecap="round" stroke-linejoin="round"/>
<path d="M122.67 313.21C122.49 313.7 117.11 328.89 127.86 335.76C139.89 343.46 150.11 327.27 150.11 327.27" stroke="#231815" stroke-width="8" stroke-miterlimit="10" stroke-linecap="round" stroke-linejoin="round"/>
<path d="M90.31 133.94C90.31 133.94 58.97 121.67 51.76 142.37C44.3 163.76 68.11 174.38 68.11 174.38C68.11 174.38 40.66 176.14 40.98 196.69C41.3 217.23 65.65 219.96 65.65 219.96C65.65 219.96 36.03 229.31 42.48 249.69C47.13 264.41 75.49 258.96 75.49 258.96C75.49 258.96 56.88 277.9 64.5 291.54C70.28 301.89 92.18 294.67 92.18 294.67C92.18 294.67 82.39 320.11 94.75 327.01C106.94 333.82 122.25 313.76 122.66 313.22" stroke="#231815" stroke-width="8" stroke-miterlimit="10" stroke-linecap="round" stroke-linejoin="round"/>
<path d="M190.4 46.64C190.4 46.64 191.52 59.79 187.35 79.22C187.35 79.22 177.06 46.64 158.74 50.6C143.23 53.96 143.22 79.7 143.22 79.7C143.22 79.7 125.73 60.6 110.96 71.36C91.55 85.49 107.91 114.85 107.91 114.85" stroke="#231815" stroke-width="8" stroke-miterlimit="10" stroke-linecap="round" stroke-linejoin="round"/>
<path d="M199.55 76.81C199.55 76.81 197.46 44.87 216.08 44.07C234.7 43.27 235.34 70.23 235.34 70.23C235.34 70.23 241.34 41.88 260.7 46.64C276.71 50.57 272.09 77.93 272.09 77.93C272.09 77.93 296.76 54.76 316.06 70.87C333.56 85.47 320.88 113.56 320.88 113.56C320.88 113.56 342.7 101.85 353.14 115.32C363.57 128.8 343.99 151.59 343.99 151.59" stroke="#231815" stroke-width="8" stroke-miterlimit="10" stroke-linecap="round" stroke-linejoin="round"/>
<path d="M348.8 160.9C348.8 160.9 362.13 153.52 378.82 157.11" stroke="#231815" stroke-width="8" stroke-miterlimit="10" stroke-linecap="round" stroke-linejoin="round"/>
<path d="M301.79 311.61C301.99 312.13 308.24 328.33 295.72 335.24C283.42 342.01 273.26 326.22 273.26 326.22" stroke="#231815" stroke-width="8" stroke-miterlimit="10" stroke-linecap="round" stroke-linejoin="round"/>
<path d="M353.62 171.66C353.62 171.66 383.3 165.3 384.8 187.63C386.13 207.33 359.88 208.96 359.88 208.96C360.34 208.93 383.42 220.27 379.71 234C376 247.72 355.06 248.68 355.06 248.68C355.06 248.68 372.98 262.98 366.92 274.89C357.95 292.5 333.63 281.66 333.63 281.66C333.63 281.66 346.39 310.31 329.05 317.05C317.57 321.51 302.2 311.86 301.78 311.6C301.77 311.59 301.77 311.59 301.77 311.59" stroke="#231815" stroke-width="8" stroke-miterlimit="10" stroke-linecap="round" stroke-linejoin="round"/>
<path d="M198.98 255.07C198.98 255.07 200.62 267.79 211.92 267.79C223.22 267.79 224.86 255.07 224.86 255.07" stroke="#231815" stroke-width="8" stroke-miterlimit="10" stroke-linecap="round" stroke-linejoin="round"/>
<path d="M176.88 358.88C176.88 358.88 210.38 294.49 174.27 280.34C133.49 264.36 114.16 324.98 115.41 355.14C115.92 367.33 121.18 379.54 134.68 381.06" fill="#DF5F14"/>
<path d="M176.88 358.88C176.88 358.88 210.38 294.49 174.27 280.34C133.49 264.36 114.16 324.98 115.41 355.14C115.92 367.33 121.18 379.54 134.68 381.06" stroke="#231815" stroke-width="8" stroke-miterlimit="10"/>
<path d="M246.96 358.88C246.96 358.88 213.46 294.49 249.57 280.34C290.35 264.36 309.68 324.98 308.43 355.14C307.92 367.33 302.66 379.54 289.16 381.06" fill="#DF5F14"/>
<path d="M246.96 358.88C246.96 358.88 213.46 294.49 249.57 280.34C290.35 264.36 309.68 324.98 308.43 355.14C307.92 367.33 302.66 379.54 289.16 381.06" stroke="#231815" stroke-width="8" stroke-miterlimit="10"/>
<path d="M211.92 322.93V377.88" stroke="#231815" stroke-width="8" stroke-miterlimit="10" stroke-linecap="round" stroke-linejoin="round"/>
<path d="M147.5 243.78C156.27 243.78 163.38 239.245 163.38 233.65C163.38 228.055 156.27 223.52 147.5 223.52C138.73 223.52 131.62 228.055 131.62 233.65C131.62 239.245 138.73 243.78 147.5 243.78Z" fill="#D7715F"/>
<path d="M276.34 243.78C285.11 243.78 292.22 239.245 292.22 233.65C292.22 228.055 285.11 223.52 276.34 223.52C267.57 223.52 260.46 228.055 260.46 233.65C260.46 239.245 267.57 243.78 276.34 243.78Z" fill="#D7715F"/>
</g>
</g>
<defs>
<clipPath id="clip0_1_419">
<rect width="433" height="337" fill="white"/>
</clipPath>
<clipPath id="clip1_1_419">
<rect width="429.96" height="381.04" fill="white" transform="translate(2 4)"/>
</clipPath>
</defs>
</svg>
