<svg width="125" height="25" viewBox="0 0 125 25" fill="none" xmlns="http://www.w3.org/2000/svg">
<g clip-path="url(#clip0_1_407)">
<path d="M26.16 6.35982V17.5819C26.16 19.6286 25.4325 21.3758 23.9775 22.8135C22.5425 24.2712 20.7985 25 18.7555 25C16.4434 25 14.5599 24.1114 13.085 22.3442C11.6001 24.1114 9.69664 25 7.39456 25C5.35159 25 3.60759 24.2712 2.17253 22.8135C0.727497 21.3758 0 19.6386 0 17.5819V6.35982H3.46807V17.5819C3.46807 18.6701 3.85673 19.5986 4.62409 20.3674C5.39145 21.1362 6.31826 21.5255 7.40453 21.5255C8.49079 21.5255 9.4176 21.1462 10.185 20.3974C10.9523 19.6286 11.351 18.7001 11.3609 17.6118V6.35982H14.829V17.6118C14.829 18.7001 15.2177 19.6286 15.985 20.3974C16.7524 21.1462 17.6792 21.5255 18.7654 21.5255C19.8517 21.5255 20.7785 21.1362 21.5459 20.3674C22.3132 19.5986 22.7019 18.6701 22.7019 17.5819V6.35982H26.16Z" fill="white"/>
<path d="M39.1852 17.4221C39.5739 18.6102 40.2615 19.5986 41.2581 20.3674C42.2945 21.1362 43.4505 21.5256 44.7461 21.5256C45.7825 21.5256 46.809 21.2859 47.8454 20.8167C48.9317 20.3275 49.7289 19.7085 50.2372 18.9497L53.0973 20.8966C52.2702 22.1246 51.0743 23.113 49.4997 23.8618C47.9451 24.6106 46.3605 24.99 44.7461 24.99C42.1749 24.99 39.9825 24.0815 38.1587 22.2544C36.335 20.4273 35.4281 18.2408 35.4281 15.6849C35.4281 13.109 36.335 10.9125 38.1587 9.08546C39.9825 7.25838 42.1749 6.34984 44.7461 6.34984C47.2973 6.34984 49.4898 7.25838 51.3035 9.08546C53.1272 10.9125 54.0341 13.109 54.0341 15.6849C54.0341 16.264 53.9843 16.8331 53.8747 17.3922L39.1852 17.4221ZM44.7461 9.83426C43.4505 9.83426 42.2845 10.2236 41.2581 10.9924C40.2615 11.7612 39.5739 12.7496 39.1852 13.9577H50.287C49.8984 12.7496 49.2107 11.7612 48.2141 10.9924C47.1777 10.2137 46.0217 9.83426 44.7461 9.83426Z" fill="white"/>
<path d="M63.073 25V15.6949C63.073 13.119 63.9799 10.9225 65.8036 9.09544C67.6274 7.26836 69.8099 6.35982 72.3611 6.35982C74.9322 6.35982 77.1247 7.26836 78.9484 9.09544C80.7721 10.9225 81.679 13.119 81.679 15.6949V25H78.211V15.6949C78.211 14.0875 77.6329 12.6997 76.4769 11.5415C75.3408 10.4033 73.9656 9.83426 72.3611 9.83426C70.7566 9.83426 69.3813 10.4033 68.2452 11.5415C67.1091 12.6997 66.5411 14.0875 66.5411 15.6949V25H63.073Z" fill="white"/>
<path d="M90.7179 0H94.186V3.36462H90.7179V0ZM90.7179 6.35982H94.186V25H90.7179V6.35982Z" fill="white"/>
<path d="M125 6.35982L117.127 23.2628C116.599 24.4209 115.702 25 114.426 25C113.151 25 112.244 24.4209 111.696 23.2628L103.823 6.35982H107.65L113.968 19.9181C114.058 20.1078 114.207 20.2077 114.416 20.2077C114.626 20.2077 114.775 20.1078 114.865 19.9181L121.183 6.35982H125V6.35982Z" fill="white"/>
</g>
<defs>
<clipPath id="clip0_1_407">
<rect width="125" height="25" fill="white"/>
</clipPath>
</defs>
</svg>
